<svg width="202" height="46" viewBox="0 0 202 46" fill="none" xmlns="http://www.w3.org/2000/svg">
<path d="M91.5028 8.83867H98.5098V16.4534C97.5309 17.3301 96.5348 17.9833 95.4872 18.4474C94.4396 18.9115 93.2889 19.1349 92.018 19.1349C90.6441 19.1349 89.3904 18.8771 88.2569 18.3614C87.1406 17.8457 86.1789 17.1582 85.3889 16.3159C84.5989 15.4737 83.9806 14.5111 83.5684 13.411C83.1391 12.3281 82.933 11.1936 82.933 10.0419C82.933 8.66678 83.1906 7.41197 83.7058 6.27749C84.221 5.14301 84.908 4.18042 85.7495 3.38973C86.5911 2.59903 87.5528 1.98022 88.6519 1.55049C89.7339 1.12077 90.8674 0.897308 92.018 0.897308C93.2202 0.897308 94.4052 1.13796 95.5387 1.63644C96.6722 2.13492 97.7198 2.83968 98.6644 3.78508L96.2429 6.34625C95.6074 5.74463 94.9376 5.28052 94.2163 4.95393C93.495 4.62734 92.7565 4.45545 92.0352 4.45545C91.2624 4.45545 90.5411 4.59296 89.8713 4.88518C89.2015 5.17739 88.6176 5.57274 88.1024 6.08841C87.6043 6.60408 87.2093 7.18851 86.9174 7.87608C86.6254 8.56364 86.488 9.28558 86.488 10.0419C86.488 10.8154 86.6254 11.5374 86.9174 12.2077C87.2093 12.8781 87.6043 13.4625 88.1024 13.9782C88.6004 14.4767 89.1843 14.872 89.8713 15.1642C90.5411 15.4565 91.2624 15.594 92.0352 15.594C92.5504 15.594 93.0657 15.5252 93.5637 15.3705C94.0789 15.233 94.5598 15.0267 94.9892 14.7689V12.3968H91.52V8.83867H91.5028Z" fill="#D3D3D3"/>
<path d="M114.19 18.9629H103.439V1.06903H106.994V15.4219H114.207V18.9629H114.19Z" fill="#D3D3D3"/>
<path d="M124.168 19.152C123.052 19.152 121.952 18.9457 120.87 18.516C119.806 18.0862 118.844 17.4846 118.002 16.7111C117.161 15.9376 116.474 14.9922 115.976 13.8921C115.478 12.792 115.203 11.5544 115.203 10.1964C115.203 9.02758 115.426 7.8931 115.873 6.793C116.319 5.71008 116.955 4.74749 117.745 3.92242C118.552 3.09734 119.497 2.42697 120.578 1.94567C121.66 1.44719 122.863 1.20654 124.151 1.20654C125.284 1.20654 126.4 1.43 127.482 1.87692C128.564 2.32383 129.526 2.94264 130.35 3.75053C131.175 4.55841 131.845 5.50381 132.343 6.60392C132.841 7.70402 133.098 8.90726 133.098 10.2308C133.098 11.3825 132.875 12.4998 132.429 13.5827C131.982 14.6484 131.364 15.611 130.574 16.4533C129.784 17.2955 128.839 17.9487 127.74 18.4472C126.658 18.8941 125.456 19.152 124.168 19.152ZM124.168 4.69593C123.395 4.69593 122.691 4.83344 122.021 5.12565C121.351 5.41787 120.785 5.81322 120.287 6.3117C119.788 6.81018 119.393 7.39461 119.119 8.06499C118.827 8.73536 118.689 9.44011 118.689 10.1792C118.689 10.9356 118.827 11.6403 119.119 12.2935C119.411 12.9639 119.806 13.5311 120.287 14.0296C120.785 14.5281 121.368 14.9062 122.038 15.1985C122.708 15.4735 123.429 15.6282 124.168 15.6282C124.923 15.6282 125.628 15.4907 126.28 15.1985C126.933 14.9062 127.517 14.5109 127.998 14.0296C128.496 13.5311 128.891 12.9639 129.165 12.3107C129.457 11.6575 129.595 10.9528 129.595 10.1964C129.595 9.44012 129.457 8.73536 129.165 8.08218C128.874 7.41181 128.479 6.82737 127.98 6.32889C127.482 5.83041 126.899 5.43506 126.246 5.14284C125.593 4.83344 124.889 4.69593 124.168 4.69593Z" fill="#D3D3D3"/>
<path d="M150.255 5.96792C150.255 6.55235 150.118 7.17116 149.86 7.84153C149.603 8.51191 149.104 9.11352 148.383 9.61201C148.83 9.81828 149.208 10.0761 149.534 10.3855C149.86 10.6949 150.118 11.0215 150.324 11.3653C150.53 11.7091 150.685 12.07 150.788 12.4482C150.891 12.8264 150.942 13.1873 150.942 13.5483C150.942 14.2187 150.839 14.8719 150.65 15.5079C150.461 16.1439 150.118 16.7283 149.654 17.2268C149.19 17.7424 148.572 18.155 147.799 18.4644C147.026 18.7738 146.065 18.9457 144.897 18.9457H137.649V1.06903H144.794C145.567 1.06903 146.271 1.20654 146.941 1.48157C147.61 1.75659 148.177 2.11756 148.675 2.56448C149.173 3.0114 149.551 3.54426 149.843 4.12869C150.118 4.73031 150.255 5.34911 150.255 5.96792ZM141.187 8.0478H144.399C145.034 8.0478 145.532 7.8931 145.927 7.60088C146.305 7.30867 146.494 6.91332 146.494 6.41484C146.494 5.91635 146.305 5.50381 145.927 5.14284C145.549 4.79906 145.034 4.62717 144.399 4.62717H141.187V8.0478ZM144.433 15.4047C145.412 15.4047 146.099 15.2156 146.528 14.8547C146.958 14.4937 147.164 14.064 147.164 13.5655C147.164 13.3077 147.129 13.067 147.044 12.8264C146.958 12.5857 146.82 12.3795 146.614 12.2076C146.408 12.0357 146.133 11.881 145.773 11.7778C145.412 11.6747 144.966 11.6059 144.45 11.6059H141.187V15.4219H144.433V15.4047Z" fill="#D3D3D3"/>
<path d="M162.363 0.879944L170.417 18.9629H166.502L165.042 15.6969H158.224C158.001 16.2126 157.76 16.7627 157.503 17.3471C157.245 17.9315 157.005 18.4816 156.798 18.9629H152.917L160.869 0.879944H162.363ZM163.462 12.1388L161.624 7.99623L159.787 12.1388H163.462Z" fill="#D3D3D3"/>
<path d="M184.363 18.9629H173.612V1.06903H177.167V15.4219H184.38V18.9629H184.363Z" fill="#D3D3D3"/>
<path d="M89.2015 45.1075C88.4115 45.1075 87.6558 45.0043 86.9345 44.7809C86.196 44.5574 85.509 44.248 84.8564 43.8355H84.8736C84.4099 43.5433 83.9977 43.2339 83.6543 42.8901C83.2936 42.5463 83.0532 42.3056 82.9158 42.1509L85.5777 39.6929C85.698 39.8476 85.8869 40.0367 86.1445 40.243C86.4021 40.4492 86.7112 40.6555 87.0547 40.8618C87.3982 41.0508 87.7588 41.2227 88.1195 41.3603C88.4973 41.4978 88.858 41.5665 89.1843 41.5665C89.4762 41.5665 89.7682 41.5321 90.0602 41.4634C90.3521 41.3946 90.6097 41.2915 90.8502 41.1368C91.0906 40.9993 91.2795 40.793 91.4341 40.5696C91.5886 40.3289 91.6573 40.0367 91.6573 39.6757C91.6573 39.5382 91.6058 39.3835 91.5199 39.2288C91.4341 39.0741 91.2623 38.885 91.0391 38.7131C90.8158 38.524 90.4895 38.3178 90.0773 38.1115C89.6652 37.9052 89.1499 37.6646 88.5488 37.4411C87.8275 37.1661 87.1749 36.8739 86.5567 36.5645C85.9384 36.2551 85.406 35.8769 84.9595 35.4472C84.513 35.0175 84.1523 34.5362 83.9119 33.9861C83.6714 33.4361 83.534 32.8173 83.534 32.0953C83.534 31.3562 83.6714 30.6686 83.9462 30.0326C84.221 29.3966 84.5988 28.8466 85.114 28.3653C85.6121 27.9012 86.2132 27.523 86.9345 27.2652C87.6386 27.0074 88.4286 26.8698 89.2702 26.8698C89.7339 26.8698 90.2147 26.9214 90.7471 27.0417C91.2623 27.1621 91.7776 27.3168 92.2756 27.5058C92.7737 27.6949 93.2373 27.9184 93.6667 28.159C94.096 28.3997 94.4567 28.6575 94.7487 28.9153L92.5504 31.6828C92.2241 31.4593 91.8978 31.2531 91.5543 31.064C91.2623 30.9093 90.936 30.7718 90.5582 30.6343C90.1804 30.4967 89.8025 30.428 89.4075 30.428C88.6862 30.428 88.1367 30.5655 87.7417 30.8577C87.3467 31.1327 87.1406 31.5453 87.1406 32.0781C87.1406 32.3188 87.2093 32.5422 87.3638 32.7313C87.5012 32.9204 87.7073 33.1095 87.9478 33.2642C88.1882 33.4189 88.4801 33.5736 88.8065 33.7111C89.1328 33.8486 89.4762 33.9689 89.8369 34.0893C90.8673 34.4846 91.726 34.88 92.413 35.2753C93.1171 35.6707 93.6667 36.1004 94.096 36.5473C94.5254 36.9942 94.8174 37.4927 95.0063 38.0084C95.178 38.5241 95.2811 39.0913 95.2811 39.7101C95.2811 40.4664 95.1265 41.1712 94.8174 41.8244C94.5082 42.4947 94.096 43.062 93.5465 43.5433C93.0141 44.0246 92.3787 44.4199 91.623 44.6949C90.8845 44.9528 90.0773 45.1075 89.2015 45.1075Z" fill="#D3D3D3"/>
<path d="M106.152 45.1075C105.122 45.1075 104.194 44.9356 103.336 44.5918C102.477 44.248 101.756 43.7667 101.155 43.1479C100.553 42.5291 100.073 41.8072 99.7291 40.9477C99.3856 40.0883 99.2139 39.16 99.2139 38.1287V27.0245H102.735V37.6646C102.735 38.2662 102.82 38.7991 103.009 39.2804C103.198 39.7617 103.456 40.1742 103.765 40.5008C104.074 40.8274 104.435 41.0852 104.847 41.2743C105.259 41.4462 105.688 41.5493 106.118 41.5493C106.564 41.5493 106.994 41.4634 107.389 41.2743C107.801 41.1024 108.162 40.8446 108.471 40.5008C108.78 40.1742 109.037 39.7617 109.226 39.2804C109.415 38.7991 109.501 38.249 109.501 37.6646V27.0245H113.056V38.1287C113.056 39.16 112.884 40.0883 112.541 40.9477C112.197 41.8072 111.717 42.5291 111.115 43.1479C110.497 43.7667 109.776 44.248 108.917 44.5918C108.11 44.9184 107.165 45.1075 106.152 45.1075Z" fill="#D3D3D3"/>
<path d="M121.815 44.9184H118.26V27.0245H125.49C126.246 27.0245 126.95 27.162 127.603 27.4543C128.272 27.7465 128.856 28.1418 129.354 28.6403C129.852 29.1388 130.265 29.7232 130.556 30.3936C130.848 31.064 131.003 31.7687 131.003 32.5422C131.003 33.3157 130.866 34.0377 130.574 34.7081C130.282 35.3956 129.887 35.98 129.389 36.4785C128.891 36.977 128.307 37.3724 127.62 37.6474C126.95 37.9396 126.229 38.0771 125.49 38.0771H121.815V44.9184ZM121.815 34.5705H124.838C125.748 34.5705 126.4 34.3643 126.83 33.9689C127.259 33.5736 127.465 33.0923 127.465 32.5422C127.465 31.9922 127.259 31.5281 126.83 31.1499C126.4 30.7718 125.748 30.5827 124.838 30.5827H121.815V34.5705Z" fill="#D3D3D3"/>
<path d="M138.422 44.9184H134.867V27.0245H142.097C142.853 27.0245 143.557 27.162 144.21 27.4543C144.88 27.7465 145.464 28.1418 145.962 28.6403C146.46 29.1388 146.872 29.7232 147.164 30.3936C147.456 31.064 147.61 31.7687 147.61 32.5422C147.61 33.3157 147.473 34.0377 147.181 34.7081C146.889 35.3956 146.494 35.98 145.996 36.4785C145.498 36.977 144.914 37.3724 144.227 37.6474C143.557 37.9396 142.836 38.0771 142.097 38.0771H138.422V44.9184ZM138.422 34.5705H141.445C142.355 34.5705 143.008 34.3643 143.437 33.9689C143.866 33.5736 144.072 33.0923 144.072 32.5422C144.072 31.9922 143.866 31.5281 143.437 31.1499C143.008 30.7718 142.355 30.5827 141.445 30.5827H138.422V34.5705Z" fill="#D3D3D3"/>
<path d="M162.208 44.9184H151.457V27.0245H155.012V41.3774H162.225V44.9184H162.208Z" fill="#D3D3D3"/>
<path d="M166.021 44.9184V27.0245H169.542V44.9184H166.021Z" fill="#D3D3D3"/>
<path d="M178.146 30.5655V34.1752H183.951V37.7505H178.146V41.3602H186.097V44.9184H174.591V27.0245H186.097V30.5827H178.146V30.5655Z" fill="#D3D3D3"/>
<path d="M195.011 45.1075C194.221 45.1075 193.465 45.0043 192.744 44.7809C192.005 44.5574 191.318 44.248 190.666 43.8355H190.683C190.219 43.5433 189.807 43.2339 189.463 42.8901C189.103 42.5463 188.862 42.3056 188.725 42.1509L191.387 39.6929C191.507 39.8476 191.696 40.0367 191.954 40.243C192.211 40.4492 192.52 40.6555 192.864 40.8618C193.207 41.0508 193.568 41.2227 193.929 41.3603C194.307 41.4978 194.667 41.5665 194.994 41.5665C195.285 41.5665 195.577 41.5321 195.869 41.4634C196.161 41.3946 196.419 41.2915 196.659 41.1368C196.9 40.9993 197.089 40.793 197.243 40.5696C197.398 40.3289 197.467 40.0367 197.467 39.6757C197.467 39.5382 197.415 39.3835 197.329 39.2288C197.243 39.0741 197.072 38.885 196.848 38.7131C196.625 38.524 196.299 38.3178 195.887 38.1115C195.474 37.9052 194.959 37.6646 194.358 37.4411C193.637 37.1661 192.984 36.8739 192.366 36.5645C191.748 36.2551 191.215 35.8769 190.769 35.4472C190.322 35.0175 189.961 34.5362 189.721 33.9861C189.481 33.4361 189.343 32.8173 189.343 32.0953C189.343 31.3562 189.481 30.6686 189.755 30.0326C190.03 29.3966 190.408 28.8466 190.923 28.3653C191.421 27.9012 192.022 27.523 192.744 27.2652C193.448 27.0074 194.238 26.8698 195.079 26.8698C195.543 26.8698 196.024 26.9214 196.556 27.0417C197.072 27.1621 197.587 27.3168 198.085 27.5058C198.583 27.6949 199.047 27.9184 199.476 28.159C199.905 28.3997 200.266 28.6575 200.558 28.9153L198.36 31.6828C198.033 31.4593 197.707 31.2531 197.364 31.064C197.072 30.9093 196.745 30.7718 196.367 30.6343C195.99 30.4967 195.612 30.428 195.217 30.428C194.495 30.428 193.946 30.5655 193.551 30.8577C193.156 31.1327 192.95 31.5453 192.95 32.0781C192.95 32.3188 193.018 32.5422 193.173 32.7313C193.31 32.9204 193.517 33.1095 193.757 33.2642C193.997 33.4189 194.289 33.5736 194.616 33.7111C194.942 33.8486 195.285 33.9689 195.646 34.0893C196.677 34.4846 197.535 34.88 198.222 35.2753C198.926 35.6707 199.476 36.1004 199.905 36.5473C200.335 36.9942 200.627 37.4927 200.815 38.0084C200.987 38.5241 201.09 39.0913 201.09 39.7101C201.09 40.4664 200.936 41.1712 200.627 41.8244C200.317 42.4947 199.905 43.062 199.356 43.5433C198.823 44.0246 198.188 44.4199 197.432 44.6949C196.694 44.9528 195.887 45.1075 195.011 45.1075Z" fill="#D3D3D3"/>
<path d="M41.0111 20.1489H56.2788H58.2195C56.9829 19.5473 55.5918 18.9457 54.0462 18.3612C53.1875 18.069 52.3459 17.7596 51.5731 17.433C50.7831 17.1064 50.0961 16.7455 49.4951 16.3501C48.894 15.9548 48.4303 15.525 48.0696 15.0437C47.7261 14.5625 47.5372 14.0468 47.5372 13.4623C47.5372 12.1904 48.0181 11.2106 48.997 10.523C49.9588 9.83545 51.3155 9.50886 53.0501 9.50886C53.9947 9.50886 54.9221 9.68075 55.8323 10.0073C56.7425 10.3339 57.5497 10.6949 58.2538 11.0559C59.0782 11.5028 59.8853 12.0013 60.6754 12.5341L65.9993 5.84758C65.2952 5.22878 64.4193 4.62716 63.3717 4.02554C62.3241 3.42392 61.1906 2.90825 60.0056 2.44414C58.8034 1.99723 57.584 1.61907 56.3303 1.32685C55.0766 1.03464 53.8916 0.897125 52.7753 0.897125C50.7144 0.897125 48.8253 1.22372 47.1079 1.85971C45.3905 2.49571 43.9307 3.38954 42.7113 4.52402C41.492 5.6585 40.5474 6.99925 39.8948 8.54627C39.2422 10.0933 38.8987 11.7606 38.8987 13.5311C38.8987 15.2672 39.1906 16.797 39.7917 18.1206C40.118 18.8253 40.5302 19.5129 41.0111 20.1489Z" fill="#D3D3D3"/>
<path d="M66.5833 27.8496C66.1539 26.5948 65.4154 25.4088 64.385 24.3258C63.3545 23.2257 61.9978 22.1944 60.2976 21.2318C59.6621 20.8708 58.958 20.5099 58.2367 20.1489L51.9853 26.0448L51.4014 26.5948C52.7238 27.1277 53.8401 27.6262 54.7504 28.0903C55.7465 28.6059 56.5193 29.0872 57.0689 29.5513C57.6184 29.9982 58.0134 30.428 58.2367 30.8233C58.46 31.2187 58.5802 31.5796 58.5802 31.9062C58.5802 32.7657 58.3913 33.4876 58.0306 34.0721C57.6528 34.6565 57.1891 35.1206 56.6052 35.4644C56.0212 35.8082 55.3858 36.066 54.6817 36.2379C53.9775 36.4098 53.2734 36.4785 52.5864 36.4785C51.7621 36.4785 50.8862 36.3066 49.9932 35.98C49.0829 35.6535 48.2242 35.2409 47.3999 34.7768C46.5755 34.2955 45.837 33.8142 45.2016 33.2985C45.0299 33.161 44.8753 33.0235 44.7379 32.9032L43.7933 33.797L39.3453 37.9568L38.6755 38.5928C38.5553 38.6959 38.435 38.7991 38.3148 38.9022C38.5553 39.1428 38.83 39.4007 39.1392 39.7101C39.9979 40.5352 40.994 41.2915 42.1103 41.9962H42.0416C43.6044 42.9932 45.2875 43.7495 47.0564 44.2824C48.8253 44.8152 50.6629 45.0903 52.5693 45.0903C54.6645 45.0903 56.6223 44.7465 58.4084 44.0761C60.1945 43.3885 61.7574 42.4603 63.0454 41.2915C64.3506 40.1226 65.3639 38.7303 66.1024 37.1145C66.8409 35.4988 67.2187 33.797 67.2187 31.975C67.2359 30.4795 67.0126 29.1216 66.5833 27.8496Z" fill="#D3D3D3"/>
<path d="M58.2196 20.1491H21.7247L24.0261 28.7608H30.3289V31.2704C30.3289 33.4191 28.7661 35.3614 26.7224 35.9459C26.7052 35.9459 26.7052 35.9459 26.688 35.9631C25.4515 36.3068 24.215 36.4959 22.9784 36.4959C21.1237 36.4959 19.3719 36.1521 17.7575 35.4474C16.126 34.7426 14.7006 33.78 13.4812 32.5596C12.2619 31.3392 11.3001 29.9125 10.596 28.2795C9.89184 26.6466 9.54836 24.9105 9.54836 23.054C9.54836 21.1976 9.89184 19.4443 10.596 17.7942C11.3001 16.144 12.2619 14.7001 13.4812 13.4625C14.7006 12.2249 16.126 11.2623 17.7575 10.5576C19.3891 9.85282 21.1237 9.50904 22.9784 9.50904C24.7474 9.50904 26.5163 9.90439 28.268 10.7123C30.0198 11.5202 31.6685 12.6375 33.1798 14.0813L39.0533 7.89327C36.7864 5.62431 34.2618 3.88821 31.4968 2.68497C28.7317 1.48174 25.8809 0.897308 22.9613 0.897308C20.1619 0.897308 17.4312 1.43017 14.7864 2.4787C12.1416 3.52724 9.80597 5.02269 7.76226 6.93068C5.71855 8.85586 4.06985 11.1764 2.81614 13.9266C1.56244 16.6769 0.927002 19.7194 0.927002 23.054C0.927002 25.8559 1.44222 28.5889 2.47266 31.236C3.50311 33.8832 4.98007 36.2209 6.90356 38.2664C8.82705 40.3119 11.1455 41.962 13.859 43.2168C16.5897 44.4716 19.6123 45.1077 22.9613 45.1077C26.0183 45.1077 28.8004 44.5576 31.3422 43.4403C33.7466 42.3746 36.0651 40.8791 38.3149 38.9196C38.4351 38.7993 58.2367 20.1491 58.2196 20.1491Z" fill="#D21615"/>
</svg>
