<svg width="11" height="16" viewBox="0 0 11 16" fill="none" xmlns="http://www.w3.org/2000/svg">
<path fill-rule="evenodd" clip-rule="evenodd" d="M1.93464 1.13111C1.72082 0.956357 1.37417 0.956357 1.16036 1.13111C0.946547 1.30587 0.946547 1.5892 1.16036 1.76396L8.7273 7.9487L1.38716 13.9481C1.17335 14.1228 1.17335 14.4062 1.38716 14.5809C1.60098 14.7557 1.94763 14.7557 2.16144 14.5809L9.91748 8.24162C10.1313 8.06686 10.1313 7.78353 9.91748 7.60877C9.86318 7.56439 9.80031 7.53128 9.73322 7.50944C9.72013 7.49593 9.70595 7.48289 9.69067 7.4704L1.93464 1.13111Z" fill="white"/>
<path d="M1.16036 1.13111L0.843935 0.743973L0.843934 0.743974L1.16036 1.13111ZM1.93464 1.13111L2.25106 0.743973L2.25106 0.743973L1.93464 1.13111ZM1.16036 1.76396L1.47678 1.37682L1.47678 1.37682L1.16036 1.76396ZM8.7273 7.9487L9.04373 8.33584L9.51739 7.9487L9.04373 7.56156L8.7273 7.9487ZM1.38716 13.9481L1.70359 14.3352L1.38716 13.9481ZM1.38716 14.5809L1.07074 14.968H1.07074L1.38716 14.5809ZM2.16144 14.5809L2.47787 14.968L2.47787 14.968L2.16144 14.5809ZM9.91748 8.24162L10.2339 8.62876L10.2339 8.62876L9.91748 8.24162ZM9.91748 7.60877L10.2339 7.22163L9.91748 7.60877ZM9.73322 7.50944L9.37411 7.85735L9.46045 7.94647L9.57845 7.98488L9.73322 7.50944ZM9.69067 7.4704L9.37425 7.85754L9.37425 7.85754L9.69067 7.4704ZM1.47678 1.51825C1.48241 1.51365 1.50624 1.50005 1.5475 1.50005C1.58875 1.50005 1.61258 1.51365 1.61821 1.51825L2.25106 0.743973C1.85314 0.418736 1.24186 0.418736 0.843935 0.743973L1.47678 1.51825ZM1.47678 1.37682C1.47494 1.37531 1.4812 1.38001 1.48799 1.3937C1.49482 1.40747 1.5 1.42612 1.5 1.44754C1.5 1.46895 1.49482 1.4876 1.48799 1.50137C1.4812 1.51506 1.47494 1.51976 1.47678 1.51825L0.843934 0.743974C0.631187 0.91786 0.499999 1.17009 0.499999 1.44754C0.499999 1.72498 0.631187 1.97721 0.843935 2.1511L1.47678 1.37682ZM9.04373 7.56156L1.47678 1.37682L0.843935 2.1511L8.41088 8.33584L9.04373 7.56156ZM8.41088 7.56156L1.07074 13.5609L1.70359 14.3352L9.04373 8.33584L8.41088 7.56156ZM1.07074 13.5609C0.857994 13.7348 0.726807 13.987 0.726807 14.2645C0.726807 14.5419 0.857994 14.7942 1.07074 14.968L1.70359 14.1938C1.70175 14.1923 1.708 14.197 1.7148 14.2107C1.72163 14.2244 1.72681 14.2431 1.72681 14.2645C1.72681 14.2859 1.72163 14.3045 1.7148 14.3183C1.708 14.332 1.70175 14.3367 1.70359 14.3352L1.07074 13.5609ZM1.07074 14.968C1.46866 15.2933 2.07994 15.2933 2.47787 14.968L1.84502 14.1938C1.83939 14.1984 1.81556 14.212 1.7743 14.212C1.73305 14.212 1.70922 14.1984 1.70359 14.1938L1.07074 14.968ZM2.47787 14.968L10.2339 8.62876L9.60105 7.85448L1.84502 14.1938L2.47787 14.968ZM10.2339 8.62876C10.4466 8.45487 10.5778 8.20264 10.5778 7.9252C10.5778 7.64775 10.4466 7.39552 10.2339 7.22163L9.60105 7.99591C9.6029 7.99742 9.59664 7.99272 9.58984 7.97903C9.58301 7.96526 9.57784 7.94661 9.57784 7.9252C9.57784 7.90378 9.58301 7.88514 9.58984 7.87136C9.59664 7.85767 9.6029 7.85297 9.60105 7.85448L10.2339 8.62876ZM10.2339 7.22163C10.1275 7.1347 10.0087 7.0733 9.888 7.034L9.57845 7.98488C9.59191 7.98927 9.59881 7.99408 9.60105 7.99591L10.2339 7.22163ZM9.37425 7.85754L9.37411 7.85735L10.0923 7.16154C10.0655 7.13384 10.037 7.10773 10.0071 7.08326L9.37425 7.85754ZM1.61821 1.51825L9.37425 7.85754L10.0071 7.08326L2.25106 0.743973L1.61821 1.51825Z" fill="white"/>
</svg>
