<svg id="Capa_1" enable-background="new 0 0 512 512" viewBox="0 0 512 512" xmlns="http://www.w3.org/2000/svg"><g><g><g><g><g><g><path d="m122.167 508.089h11.563l1.552 3.911h241.404l3.385-4.195 9.602.284v-91.094c0-26.698-17.298-50.319-42.751-58.378l-75.239-23.821-.416-14.487-15.083-.53-79.136 2.78-72.413 22.927c-24.497 7.756-41.146 30.49-41.146 56.186v88.683c0 11.954 9.691 21.645 21.645 21.645h34.689z" fill="#4a80aa"/><path d="m407.366 345.486-72.413-22.927-65.862-2.315.609 21.206 72.413 22.927c24.497 7.756 41.146 30.49 41.146 56.186v87.526h6.079l2.807 3.911h34.722c11.954 0 21.645-9.691 21.645-21.645v-88.683c0-25.696-16.648-48.43-41.146-56.186z" fill="#407093"/><g><path d="m334.953 322.559-79.103-2.78-79.136 2.78c-3.343 58.252 58.789 149.973 82.552 189.436 23.763-39.462 79.03-131.183 75.687-189.436z" fill="#e4f6ff"/></g><path d="m292.936 483.006-24.555-92.759h-25.063l-20.801 93.573 36.749 28.176z" fill="#e28086"/><g><g><g><g><g><g><g><g><path d="m300.151 318.221v-55.966h-88.669v55.966c0 24.485 44.334 51.183 44.334 51.183s44.335-26.698 44.335-51.183z" fill="#ffddce"/></g></g></g></g><g fill="#365e7d"><path d="m134.948 512v-50.64c0-4.27-3.46-7.73-7.73-7.73s-7.73 3.46-7.73 7.73v50.64z"/><path d="m392.145 512v-50.64c0-4.27-3.46-7.73-7.73-7.73s-7.73 3.46-7.73 7.73v50.64z"/></g></g></g></g></g><g><g><g><g><g><path d="m255.817 352.446-23.608 20.418c-5.829 5.042-14.71 4.086-19.334-2.08l-36.162-48.225 13.049-11.368c6.387-5.565 15.946-5.406 22.145.367z" fill="#f4fbff"/></g></g></g></g></g><g><g><g><g><g><g><path d="m255.85 352.446 23.608 20.418c5.829 5.042 14.71 4.086 19.334-2.08l36.162-48.225-13.049-11.368c-6.387-5.565-15.946-5.406-22.145.367z" fill="#f4fbff"/></g></g></g></g></g></g></g><g fill="#365e7d"><path d="m176.714 322.559-5.77 1.073c-12.738 2.368-23.842 10.286-29.936 21.719-2.681 5.03-4.648 10.637-4.648 16.26 0 8.469 13.101 18.953 21.048 24.534 2.727 1.915 3.151 6.116.846 8.609-4.496 4.863-10.092 13.135-8.398 22.995 4.896 28.506 56.146 70.517 88.085 94.247h21.326c-23.765-39.463-85.896-131.184-82.553-189.437z"/><path d="m280.586 511.996c31.939-23.731 83.189-65.741 88.085-94.247 1.694-9.86-3.902-18.132-8.398-22.995-2.305-2.493-1.882-6.693.846-8.609 7.947-5.581 21.048-16.065 21.048-24.534 0-4.415-1.213-8.819-3.031-12.943-5.904-13.387-18.612-22.527-33.102-24.557l-11.08-1.552c3.343 58.253-51.924 149.973-75.687 189.436h21.319z"/></g></g><path d="m229.641 374.597 13.677 15.65h25.064l13.372-15.783-25.904-22.018z" fill="#dd636e"/></g></g><path d="m342.455 142.621c0-65.393-43.327-120.666-102.841-138.679-3.505-1.061-7.236-1.204-10.813-.424-63.99 13.95-111.905 70.93-111.905 139.103s47.915 125.153 111.905 139.103c3.578.78 7.309.637 10.813-.424 59.514-18.013 102.841-73.286 102.841-138.679z" fill="#e28086"/><path d="m259.266.25c-10.872 0-21.459 1.219-31.632 3.527 63.405 14.385 110.738 71.086 110.738 138.843s-47.333 124.458-110.738 138.843c10.173 2.308 20.76 3.527 31.632 3.527 78.629 0 142.37-63.741 142.37-142.37s-63.741-142.37-142.37-142.37z" fill="#dd636e"/><path d="m310.925 232.859c19.735-24.755 31.53-56.119 31.53-90.238s-11.795-65.483-31.53-90.238c-15.218-8.731-32.856-13.723-51.659-13.723-57.416 0-103.961 46.545-103.961 103.961s46.545 103.961 103.961 103.961c18.803 0 36.44-4.992 51.659-13.723z" fill="#ffe07d"/><path d="m302.371 47.99c22.394 25.154 36 58.303 36 94.631s-13.606 69.477-36 94.631c35.903-16.38 60.856-52.591 60.856-94.631s-24.953-78.251-60.856-94.631z" fill="#ffd064"/><circle cx="259.266" cy="142.621" fill="#cbe2ff" r="64.109"/><g><path d="m271.417 138.199c-1.978 0-3.957-.755-5.466-2.264-3.018-3.019-3.018-7.913 0-10.933l67.835-67.835c3.02-3.017 7.913-3.017 10.933 0 3.018 3.019 3.018 7.913 0 10.933l-67.835 67.835c-1.51 1.509-3.489 2.264-5.467 2.264z" fill="#ddb7a0"/></g><path d="m374.249 1.749 4.444 19.753c.19.844.849 1.503 1.692 1.692l19.753 4.443c1.721.387 2.338 2.519 1.091 3.766l-39.157 39.157c-.543.543-1.325.769-2.074.601l-22.516-5.065c-.844-.19-1.503-.849-1.692-1.692l-5.065-22.516c-.168-.749.058-1.531.601-2.074l39.157-39.157c1.247-1.247 3.379-.629 3.766 1.092z" fill="#b9cbea"/></g><circle cx="259.266" cy="142.621" fill="#407093" r="21.072"/></g></svg>