<svg width="25" height="19" viewBox="0 0 52 38" fill="none" xmlns="http://www.w3.org/2000/svg">
<path fill-rule="evenodd" clip-rule="evenodd" d="M23.5879 36.2767L49.8201 10.0463C52.1166 7.74726 52.117 4.02135 49.8193 1.72318C47.5218 -0.573416 43.7955 -0.575413 41.4968 1.7233L19.4274 23.7928L10.0458 14.4111C7.74811 12.1133 4.02195 12.1135 1.72358 14.4119C-0.574493 16.7099 -0.57458 20.4367 1.72364 22.7345L15.2651 36.277C17.5641 38.5742 21.2904 38.5746 23.5879 36.2767ZM44.7739 0.98725C46.3234 0.709254 47.9793 1.16914 49.1765 2.36587C51.1194 4.30914 51.1194 7.4595 49.1772 9.40387L22.9449 35.6343C22.1957 36.3837 21.2666 36.8441 20.2963 37.0154C21.2668 36.8441 22.196 36.3838 22.9454 35.6342L49.1777 9.4038C51.1198 7.45942 51.1198 4.30906 49.1769 2.36579C47.9796 1.16896 46.3235 0.709098 44.7739 0.98725ZM5.01535 13.6727C6.56051 13.3999 8.20961 13.8603 9.40292 15.0537L19.427 25.0779L19.4272 25.0776L9.40333 15.0536C8.20991 13.8601 6.56063 13.3998 5.01535 13.6727Z" fill="white"/>
</svg>
