<svg width="48" height="48" viewBox="0 0 48 48" fill="none" xmlns="http://www.w3.org/2000/svg">
<path d="M23.0205 6.91894L23.0513 10.8057C25.3498 11.0476 27.5291 11.9946 29.2978 13.565C29.4645 13.7131 29.6292 13.8681 29.7876 14.0262L34.3361 18.5667L34.3493 18.5893C36.0786 20.4383 37.1021 22.7637 37.3173 25.2257L41.4345 25.3252C41.4458 25.3254 41.4572 25.3256 41.4684 25.3256C44.9366 25.3256 47.7582 22.5079 47.7582 19.0444C47.7582 17.3734 47.1037 15.799 45.9149 14.6103C45.9136 14.609 45.9123 14.6076 45.9109 14.6062C45.2722 13.9687 44.5221 13.4849 43.7057 13.1733L46.163 10.7203C47.3477 9.53765 48.0001 7.96003 48.0002 6.27797C48.0002 4.5977 47.3492 3.02176 46.1668 1.83949C46.1656 1.83827 46.1642 1.83686 46.163 1.83564C43.711 -0.611881 39.7215 -0.611881 37.2696 1.83564L34.9568 4.14442C33.9304 2.06317 31.783 0.626459 29.3103 0.626459C27.6361 0.626459 26.0584 1.28102 24.8678 2.46949C23.6765 3.65861 23.0205 5.23482 23.0205 6.9076C23.0205 6.91153 23.0205 6.91528 23.0205 6.91894Z" fill="#ADCAFA"/>
<path d="M10.5732 41.6092C10.5729 41.609 10.5726 41.6087 10.5723 41.6084C10.0235 41.0596 10.0231 40.17 10.5715 39.6206C11.1202 39.071 12.0107 39.0702 12.5603 39.6189L15.0215 42.0778L23.1761 37.5673L19.8745 34.2699C19.8742 34.2696 19.8739 34.2693 19.8736 34.269C19.3248 33.7202 19.3243 32.8305 19.8728 32.2812C20.4215 31.7317 21.3118 31.7309 21.8615 32.2795L25.7376 36.1505L30.1182 33.7275C32.4572 32.4339 34.0341 30.1766 34.4451 27.5347C34.848 24.9431 34.0534 22.371 32.2648 20.4781C32.2079 20.418 32.1501 20.3584 32.0911 20.2995C32.0898 20.2981 32.0878 20.2966 32.0871 20.2954L27.801 16.0169C27.6812 15.8973 27.5565 15.7799 27.4304 15.6679C25.5212 13.9729 22.9703 13.2473 20.4316 13.6774C18.9104 13.9352 17.518 14.5824 16.3696 15.5369L21.3587 20.5174L21.3596 20.5183C21.9084 21.0671 21.9088 21.9568 21.3604 22.506C20.8117 23.0556 19.9213 23.0564 19.3717 22.5077L14.5281 17.6725C14.4705 17.7671 14.4139 17.8625 14.3596 17.9598L8.44263 28.5612L11.0478 31.1651C11.0481 31.1654 11.0485 31.1658 11.0488 31.1661C11.5976 31.7148 11.5981 32.6045 11.0496 33.1539C10.5009 33.7035 9.61057 33.7043 9.06091 33.1556L7.01811 31.1138L0.294282 43.1614C0.253501 43.2345 0.219282 43.311 0.192095 43.3902C-0.24206 44.6552 0.0756574 46.029 1.02122 46.9755L1.02253 46.9768C1.96987 47.924 3.34593 48.2432 4.61418 47.8094C4.69217 47.7828 4.76764 47.7493 4.83983 47.7093L12.4601 43.4945L10.5732 41.6092Z" fill="#ADCAFA"/>
</svg>
