<svg width="68" height="47" viewBox="0 0 68 47" fill="none" xmlns="http://www.w3.org/2000/svg">
<path d="M33.6121 14.4708V42.2618L55.7374 38.063V24.5223C55.7374 23.9555 56.231 23.5152 56.7942 23.5798L59.5162 24.001C59.9951 24.056 60.3566 24.4614 60.3566 24.9435V40.674C60.3566 41.1212 60.0444 41.5075 59.6073 41.6015L35.3872 46.8093C34.2168 47.0608 33.0065 47.0636 31.835 46.8172L7.87494 41.7773C7.44494 41.6869 7.13331 41.3129 7.12184 40.8736L6.70794 24.8978C6.69494 24.3967 7.07402 23.9721 7.57322 23.9282L27.9259 22.1398C28.2788 22.1089 28.5851 21.8836 28.7201 21.5561L31.7862 14.1097C32.1818 13.1488 33.6121 13.4318 33.6121 14.4708ZM6.47774 5.37181L0.0908958 19.0238C-0.221184 19.6909 0.312834 20.4437 1.04554 20.3696L25.0313 17.946C25.3703 17.9118 25.6648 17.6984 25.803 17.387L33.5207 0L7.1657 4.84077C6.86409 4.8962 6.60777 5.094 6.47774 5.37181ZM33.5208 0L41.6871 17.9305C41.8299 18.2439 42.1311 18.4553 42.4745 18.4829L66.415 20.4082C67.1364 20.4662 67.6545 19.7274 67.3541 19.0688L61.1105 5.38096C60.9813 5.09786 60.7217 4.8962 60.4154 4.84099L33.5208 0Z" fill="#67BBC7"/>
</svg>
