<svg width="54" height="55" viewBox="0 0 54 55" fill="none" xmlns="http://www.w3.org/2000/svg">
<path d="M29 22.2161C27.8954 22.2161 27 23.1115 27 24.2161V31.0508C27 32.1553 27.8954 33.0508 29 33.0508H39.4479C40.8283 33.0508 41.7849 34.4205 41.1057 35.6223C38.3197 40.5517 33.0415 43.8855 27 43.8855C18.0684 43.8855 10.8 36.5937 10.8 27.6334C10.8 18.6731 18.0684 11.3813 27 11.3813C30.195 11.3813 33.2908 12.3294 35.9019 14.0825C36.8209 14.6996 38.0819 14.6246 38.8078 13.7888L43.2803 8.63951C44.0031 7.80738 43.9205 6.54054 43.0386 5.87938C38.4355 2.42837 32.8154 0.546631 27 0.546631C12.1122 0.546631 0 12.6978 0 27.6334C0 42.5691 12.1122 54.7202 27 54.7202C41.8878 54.7202 54 42.5691 54 27.6334V24.2161C54 23.1115 53.1046 22.2161 52 22.2161H29Z" fill="#D7576C"/>
</svg>
