<svg width="58" height="49" viewBox="0 0 58 49" fill="none" xmlns="http://www.w3.org/2000/svg">
<path d="M56.5571 17.1698L35.3305 0.29123C34.9325 -0.0255666 34.3859 -0.0891856 33.9229 0.12634C33.4612 0.341866 33.1667 0.797586 33.1667 1.29875V9.08884H31.84C15.3031 9.08884 0 13.6499 0 46.7409C0 47.3447 0.425861 47.8692 1.02551 48.0055C1.12634 48.0289 1.22717 48.0393 1.32667 48.0393C1.82417 48.0393 2.28983 47.7653 2.51669 47.3135C8.73477 34.9364 15.8086 27.2657 31.84 27.2657H33.1667V35.0558C33.1667 35.557 33.4612 36.0127 33.9229 36.2282C34.3845 36.4437 34.9325 36.3788 35.3305 36.0633L56.5571 19.1848C56.8662 18.9394 57.0467 18.5681 57.0467 18.1773C57.0467 17.7865 56.8662 17.4164 56.5571 17.1698Z" fill="#ADCAFA"/>
</svg>
