<svg width="20" height="15" viewBox="0 0 20 15" fill="none" xmlns="http://www.w3.org/2000/svg">
<path fill-rule="evenodd" clip-rule="evenodd" d="M0 1.36364C0 0.61052 0.61052 0 1.36364 0C2.11675 0 2.72727 0.61052 2.72727 1.36364C2.72727 2.11675 2.11675 2.72727 1.36364 2.72727C0.61052 2.72727 0 2.11675 0 1.36364ZM0 7.50002C0 6.7469 0.61052 6.13638 1.36364 6.13638C2.11675 6.13638 2.72727 6.7469 2.72727 7.50002C2.72727 8.25313 2.11675 8.86365 1.36364 8.86365C0.61052 8.86365 0 8.25313 0 7.50002ZM1.36364 12.2728C0.61052 12.2728 0 12.8833 0 13.6364C0 14.3895 0.61052 15 1.36364 15C2.11675 15 2.72727 14.3895 2.72727 13.6364C2.72727 12.8833 2.11675 12.2728 1.36364 12.2728Z" fill="white"/>
<path fill-rule="evenodd" clip-rule="evenodd" d="M5.45455 1.36364C5.45455 0.61052 6.06507 0 6.81819 0H18.4091C19.1622 0 19.7727 0.61052 19.7727 1.36364C19.7727 2.11675 19.1622 2.72727 18.4091 2.72727H6.81819C6.06507 2.72727 5.45455 2.11675 5.45455 1.36364ZM5.45456 7.50002C5.45456 6.7469 6.06508 6.13638 6.8182 6.13638H18.4091C19.1622 6.13638 19.7727 6.7469 19.7727 7.50002C19.7727 8.25313 19.1622 8.86365 18.4091 8.86365H6.8182C6.06508 8.86365 5.45456 8.25313 5.45456 7.50002ZM6.8182 12.2728C6.06508 12.2728 5.45456 12.8833 5.45456 13.6364C5.45456 14.3895 6.06508 15 6.8182 15H18.4091C19.1622 15 19.7727 14.3895 19.7727 13.6364C19.7727 12.8833 19.1622 12.2728 18.4091 12.2728H6.8182Z" fill="white"/>
</svg>
