<svg width="52" height="61" viewBox="0 0 52 61" fill="none" xmlns="http://www.w3.org/2000/svg">
<path fill-rule="evenodd" clip-rule="evenodd" d="M51.076 16.2469L51.0778 16.2936C51.2116 23.3474 51.3779 32.1262 48.4356 40.1032C46.8224 44.4777 44.3813 48.2804 41.1806 51.4064C37.5369 54.9649 32.7652 57.7918 26.9983 59.8086C26.8096 59.8746 26.613 59.9282 26.4142 59.968C26.1343 60.0239 25.8516 60.0519 25.5693 60.0519C25.2871 60.0519 25.0049 60.0239 24.7245 59.968C24.5257 59.9282 24.3305 59.875 24.1426 59.8095C18.3689 57.7963 13.5922 54.9709 9.94523 51.4119C6.74316 48.2868 4.30209 44.485 2.69029 40.1114C-0.241013 32.1583 -0.074243 23.396 0.0599974 16.3555L0.0627463 16.2469C0.0888613 15.6659 0.10673 15.0557 0.116809 14.3813C0.165832 11.0697 2.79841 8.33081 6.10952 8.14617C13.014 7.7604 18.3552 5.50901 22.9189 1.06075L22.9578 1.02364C24.4469 -0.341214 26.6923 -0.341214 28.1809 1.02364L28.2198 1.06075C32.7835 5.50901 38.1247 7.7604 45.0292 8.14571C48.3407 8.33081 50.9729 11.0697 51.0219 14.3808C51.0324 15.0598 51.0498 15.6701 51.076 16.2469ZM22.7548 41.0459L36.8674 26.9333C38.0522 25.7485 38.0522 23.8278 36.8674 22.6438C35.6826 21.459 33.7618 21.459 32.5778 22.6438L20.6092 34.6116L17.3609 31.3633C16.1761 30.1785 14.2554 30.1785 13.0714 31.3633C11.8866 32.548 11.8866 34.4688 13.0714 35.6528L18.4645 41.0459C19.0569 41.6391 19.8331 41.9349 20.6092 41.9349C21.3854 41.9349 22.1624 41.6383 22.7548 41.0459Z" fill="#FF7257"/>
</svg>
