<svg width="23" height="17" viewBox="0 0 23 17" fill="none" xmlns="http://www.w3.org/2000/svg">
<path d="M22.87 4.51821L20.3919 1.93302L21.4705 1.24514L21.5334 0.709031L21.0332 0.679199L19.7357 1.61241L18.1167 1.61381L17.1256 1.00866L16.7706 1.08113L16.7759 1.47456L17.4147 2.18212L17.3305 2.55379L9.81211 3.36235L2.02438 3.14487L1.18516 3.49666L0.567004 4.28216L0.248956 6.11947L0.192773 7.4402L0 8.67347L0.0529919 9.90181L0.269795 9.94615L0.584942 9.59919L0.84115 8.44666L0.633486 6.84782L0.705721 6.83694L1.19387 9.27098L0.861361 11.3834L1.16495 15.5994L1.19387 16.0662L1.48972 16.3186L2.79784 16.3206L3.21936 16.1931L2.04904 14.2873L2.62963 11.8671L2.9337 11.8676L3.99465 15.0855L4.54154 15.9116L4.81134 16.0777L6.25532 16.0787L6.4406 15.8469L5.1906 15.0791L4.34307 12.4689L4.55552 12.0452L5.05338 12.0914L5.36597 12.8568L5.81877 12.1107L6.2575 12.86L6.62912 12.0464L7.72295 11.2056L11.6045 10.8339L12.2559 11.6304L12.805 15.524L13.0938 16.0835L14.4164 16.083L14.559 15.8733L13.7551 14.7544L13.6585 12.6239L14.0926 12.8648L14.5499 14.2801L15.1314 16.1178L15.3921 16.3199L16.5755 16.3206L16.6737 16.0534L16.3278 15.7332L15.2119 13.5526L15.4691 11.2673L16.7195 10.3424L18.5408 6.95936L20.6372 5.99158L22.5649 5.77212L22.7302 5.59294L23 4.83258L22.87 4.51821Z" fill="black"/>
</svg>
