<svg width="48" height="55" viewBox="0 0 48 55" fill="none" xmlns="http://www.w3.org/2000/svg">
<path d="M43.9374 16.2649C44.4522 16.7796 45.2757 16.7796 45.7757 16.2649L47.614 14.4267C48.1287 13.9119 48.1287 13.0884 47.614 12.5884L43.4521 8.42658C42.9374 7.91187 42.1139 7.91187 41.6139 8.42658L39.7756 10.2648C39.2609 10.7796 39.2609 11.6031 39.7756 12.1031L39.9521 12.2796L38.658 13.5737C35.3932 10.9854 31.4373 9.26483 27.099 8.76482V6.41185H28.5255C29.2461 6.41185 29.8196 5.82361 29.8196 5.11771V1.29413C29.8196 0.573537 29.2314 0 28.5255 0H20.2607C19.5401 0 18.9665 0.588243 18.9665 1.29413V5.11771C18.9665 5.83831 19.5548 6.41185 20.2607 6.41185H21.6872V8.76482C17.3489 9.27953 13.3782 11.0001 10.1282 13.5737L8.83404 12.2796L9.01051 12.1031C9.52522 11.5884 9.52522 10.7648 9.01051 10.2648L7.17225 8.42658C6.65754 7.91187 5.834 7.91187 5.33399 8.42658L1.17217 12.5884C0.657455 13.1031 0.657455 13.9267 1.17217 14.4267L3.01043 16.2649C3.52514 16.7796 4.34868 16.7796 4.84869 16.2649L5.02516 16.0884L6.3193 17.3826C3.23102 21.2944 1.39276 26.2356 1.39276 31.5887C1.39276 44.2653 11.7164 54.589 24.3931 54.589C37.0697 54.589 47.3934 44.2653 47.3934 31.5887C47.3934 26.2356 45.5404 21.2944 42.4668 17.3826L43.761 16.0884L43.9374 16.2649ZM24.3931 49.2654C14.6576 49.2654 6.73107 41.3388 6.73107 31.6034C6.73107 21.8679 14.6576 13.9414 24.3931 13.9414C34.1285 13.9414 42.0551 21.8679 42.0551 31.6034C42.0551 41.3388 34.1285 49.2654 24.3931 49.2654Z" fill="#67BBC7"/>
<path d="M35.496 25.03C35.1137 24.3976 34.3195 24.1476 33.6578 24.4859L25.7018 28.383C24.7165 27.9859 23.5694 28.0301 22.5841 28.6036C20.9223 29.5889 20.3635 31.736 21.3488 33.3978C22.3341 35.0596 24.4812 35.6184 26.1429 34.6331C27.1283 34.0448 27.7165 33.0595 27.8341 32.0154L35.0842 26.9124C35.7019 26.4858 35.8784 25.6769 35.496 25.03ZM25.8635 31.9858C25.6429 32.8094 24.8047 33.2947 23.9959 33.0888C23.1723 32.8682 22.687 32.03 22.8929 31.2211C23.1135 30.3976 23.9517 29.9123 24.7606 30.1182C25.5841 30.3242 26.0694 31.177 25.8635 31.9858Z" fill="#67BBC7"/>
<path d="M24.305 21.515C25.0991 21.515 25.7315 20.868 25.7315 20.0738C25.7315 19.2797 25.0844 18.6473 24.2903 18.6473C23.4961 18.6473 22.8638 19.2944 22.8638 20.0885C22.8638 20.3532 22.9373 20.6032 23.0549 20.8091C23.305 21.2358 23.7755 21.5299 24.305 21.515Z" fill="#67BBC7"/>
<path d="M24.4958 41.7213C23.7017 41.736 23.0693 42.3831 23.0693 43.1772C23.0693 43.4419 23.1429 43.6772 23.2605 43.8831C23.5105 44.3096 23.9811 44.6037 24.5105 44.589C25.3047 44.5743 25.937 43.9272 25.9223 43.1331C25.937 42.3682 25.29 41.7213 24.4958 41.7213Z" fill="#67BBC7"/>
<path d="M14.2754 31.7358C14.2754 30.9417 13.6136 30.3093 12.8342 30.3093C12.0401 30.324 11.4077 30.9711 11.4077 31.7652C11.4077 32.0299 11.4812 32.2652 11.5989 32.4711C11.8489 32.8976 12.3195 33.1917 12.8489 33.177C13.6577 33.1769 14.2901 32.5299 14.2754 31.7358Z" fill="#67BBC7"/>
<path d="M34.4959 31.5298C34.4959 31.7945 34.5694 32.0298 34.7017 32.2504C34.9517 32.6769 35.4223 32.9563 35.9518 32.9563C36.7459 32.9563 37.3782 32.2945 37.3782 31.5151C37.3782 30.721 36.7312 30.0886 35.937 30.0886C35.1282 30.0886 34.4811 30.7504 34.4959 31.5298Z" fill="#67BBC7"/>
</svg>
