<svg width="14" height="14" viewBox="0 0 14 14" fill="none" xmlns="http://www.w3.org/2000/svg">
<path d="M12.8712 5.33628L13.063 3.49938L11.3753 2.74841C11.3202 2.72393 11.2761 2.67984 11.2516 2.62483L10.5009 0.937167L8.6636 1.12919C8.60395 1.13513 8.54418 1.11897 8.4957 1.08392L7.00006 0L5.50442 1.08392C5.45582 1.11897 5.39605 1.13513 5.33652 1.12919L3.49914 0.937167L2.74841 2.62483C2.72405 2.67984 2.67996 2.72393 2.62483 2.74817L0.937167 3.49938L1.12895 5.33628C1.13513 5.39593 1.11909 5.45582 1.08392 5.50442L0 7.00006L1.08392 8.4957C1.11909 8.5443 1.13513 8.60419 1.12895 8.66384L0.937167 10.5006L2.62483 11.2516C2.67984 11.2761 2.72393 11.3202 2.74841 11.3753L3.49914 13.063L5.33652 12.8709C5.34472 12.8709 5.35327 12.8696 5.36076 12.8696C5.41209 12.8696 5.462 12.8859 5.50347 12.9162L7.00006 14L8.4957 12.9162C8.54418 12.8809 8.60395 12.8648 8.6636 12.8709L10.5009 13.063L11.2516 11.3753C11.2761 11.3202 11.3202 11.2762 11.3753 11.2518L13.063 10.5006L12.8712 8.66384C12.8649 8.60419 12.8809 8.5443 12.9162 8.4957L14 7.00006L12.9162 5.50442C12.8809 5.45582 12.8649 5.39593 12.8712 5.33628ZM10.5303 5.2739L5.712 10.0923C5.61694 10.1873 5.46295 10.1873 5.36789 10.0923L3.30177 8.02623C3.25602 7.9806 3.23036 7.91857 3.23036 7.85393C3.23036 7.78929 3.25602 7.72726 3.30177 7.68164L3.99048 6.99543C4.08542 6.90072 4.23918 6.90072 4.33412 6.99543L5.53995 8.19876L9.49751 4.2412C9.59257 4.14614 9.74656 4.14614 9.84162 4.2412L10.5303 4.92978C10.6254 5.02484 10.6254 5.17896 10.5303 5.2739Z" fill="#9C5E5D"/>
</svg>
