<svg width="57" height="58" viewBox="0 0 57 58" fill="none" xmlns="http://www.w3.org/2000/svg">
<rect y="25.2833" width="16.625" height="32.0625" rx="2" fill="#FF7257"/>
<rect x="20.1875" y="14.5958" width="16.625" height="42.75" rx="2" fill="#FF7257"/>
<rect x="40.375" y="38.5833" width="16.625" height="18.7625" rx="2" fill="#FF7257"/>
<path d="M16.3247 13.9036L14.866 12.4402C14.666 12.2394 14.4227 12.139 14.1368 12.139C13.8506 12.139 13.6074 12.2394 13.4074 12.4402L6.37113 19.5097L3.21772 16.3354C3.01748 16.1345 2.77438 16.0342 2.48845 16.0342C2.20234 16.0342 1.95924 16.1345 1.759 16.3354L0.300317 17.7988C0.100081 17.9997 0 18.2436 0 18.5306C0 18.8174 0.100081 19.0616 0.300317 19.2624L4.18299 23.1575L5.64178 24.6208C5.84191 24.8218 6.08508 24.9221 6.37113 24.9221C6.65706 24.9221 6.90023 24.8215 7.10047 24.6208L8.55923 23.1575L16.3247 15.3671C16.5247 15.1662 16.625 14.9223 16.625 14.6353C16.6252 14.3484 16.5247 14.1045 16.3247 13.9036Z" fill="#FF7257"/>
<path d="M36.5122 2.0405L35.0535 0.577124C34.8535 0.376319 34.6102 0.275879 34.3243 0.275879C34.0381 0.275879 33.7949 0.376319 33.5949 0.577124L26.5586 7.64664L23.4052 4.47232C23.205 4.27144 22.9619 4.17111 22.676 4.17111C22.3898 4.17111 22.1467 4.27144 21.9465 4.47232L20.4878 5.93573C20.2876 6.13657 20.1875 6.38053 20.1875 6.66753C20.1875 6.9543 20.2876 7.19848 20.4878 7.39929L24.3705 11.2944L25.8293 12.7577C26.0294 12.9587 26.2726 13.059 26.5586 13.059C26.8446 13.059 27.0877 12.9584 27.288 12.7577L28.7467 11.2944L36.5122 3.50398C36.7122 3.3031 36.8125 3.05918 36.8125 2.77218C36.8127 2.48534 36.7122 2.24138 36.5122 2.0405Z" fill="#FF7257"/>
<path d="M56.6997 27.5347L55.241 26.0713C55.041 25.8705 54.7977 25.77 54.5118 25.77C54.2256 25.77 53.9824 25.8705 53.7824 26.0713L46.7461 33.1408L43.5927 29.9665C43.3925 29.7656 43.1494 29.6653 42.8635 29.6653C42.5773 29.6653 42.3342 29.7656 42.134 29.9665L40.6753 31.4299C40.4751 31.6308 40.375 31.8747 40.375 32.1617C40.375 32.4485 40.4751 32.6927 40.6753 32.8935L44.558 36.7886L46.0168 38.252C46.2169 38.453 46.4601 38.5533 46.7461 38.5533C47.0321 38.5533 47.2752 38.4527 47.4755 38.252L48.9342 36.7886L56.6997 28.9982C56.8997 28.7973 57 28.5533 57 28.2663C57.0002 27.9795 56.8997 27.7355 56.6997 27.5347Z" fill="#FF7257"/>
</svg>
