<svg width="52" height="53" viewBox="0 0 52 53" fill="none" xmlns="http://www.w3.org/2000/svg">
<path d="M47.0992 5.46292C40.5651 -1.0922 29.9338 -1.0921 23.3997 5.46302C18.9366 9.94052 17.3863 16.5389 19.3189 22.5254L0.446366 41.4587C0.160671 41.7453 0 42.1333 0 42.5393V51.1854C0 52.0302 0.681381 52.7137 1.52343 52.7137H10.1418C10.5464 52.7137 10.9333 52.5526 11.2189 52.2659L13.3731 50.1033C13.7019 49.7734 13.8625 49.3108 13.809 48.8466L13.5412 46.5242L16.7487 46.2212C17.4777 46.1525 18.0535 45.5749 18.122 44.8435L18.424 41.6257L20.7389 41.8958C21.1688 41.954 21.6018 41.8092 21.9276 41.5197C22.2519 41.2287 22.4378 40.8137 22.4378 40.378V37.5323H25.2229C25.6275 37.5323 26.0143 37.3711 26.2999 37.0845L30.2067 33.217C36.1725 35.1573 42.636 33.7192 47.0992 29.2387C53.6333 22.6837 53.6333 12.018 47.0992 5.46292ZM42.7894 16.2703C41.0071 18.0583 38.109 18.0583 36.3267 16.2703C34.5444 14.4822 34.5444 11.5748 36.3267 9.78677C38.109 7.99873 41.0071 7.99873 42.7894 9.78677C44.5717 11.5748 44.5716 14.4822 42.7894 16.2703Z" fill="#67BBC7"/>
</svg>
