<svg width="29" height="20" viewBox="0 0 59 42" fill="none" xmlns="http://www.w3.org/2000/svg">
<path d="M29.4051 12.6596V36.9723L48.7612 33.299V21.4531C48.7612 20.9572 49.1931 20.572 49.6857 20.6285L52.067 20.997C52.486 21.0451 52.8023 21.3997 52.8023 21.8215V35.5832C52.8023 35.9744 52.5292 36.3124 52.1467 36.3946L30.9581 40.9505C29.9342 41.1706 28.8754 41.173 27.8505 40.9575L6.8893 36.5484C6.51312 36.4693 6.24049 36.1421 6.23046 35.7578L5.86837 21.7815C5.85699 21.3432 6.18862 20.9717 6.62534 20.9333L24.4306 19.3688C24.7394 19.3417 25.0073 19.1446 25.1254 18.8581L27.8078 12.3437C28.1539 11.5031 29.4051 11.7506 29.4051 12.6596ZM5.66697 4.69947L0.0795191 16.6427C-0.193501 17.2264 0.273679 17.8849 0.914678 17.8201L21.8983 15.6999C22.1949 15.6699 22.4526 15.4833 22.5735 15.2108L29.3252 0L6.26883 4.23489C6.00497 4.28338 5.78073 4.45643 5.66697 4.69947ZM29.3253 0L36.4695 15.6863C36.5944 15.9605 36.8579 16.1454 37.1583 16.1696L58.1024 17.8539C58.7335 17.9046 59.1867 17.2583 58.9239 16.6822L53.4618 4.70747C53.3488 4.4598 53.1217 4.28338 52.8537 4.23508L29.3253 0Z" fill="white"/>
</svg>
