<svg width="25" height="22" viewBox="0 0 51 44" fill="none" xmlns="http://www.w3.org/2000/svg">
<path d="M50.5623 15.7261L31.5856 0.266743C31.2298 -0.0234168 30.7411 -0.0816866 30.3272 0.115717C29.9145 0.313121 29.6512 0.730523 29.6512 1.18955V8.32462H28.4651C13.681 8.32462 0 12.5022 0 42.8108C0 43.3638 0.380722 43.8442 0.916815 43.9691C1.00695 43.9905 1.09709 44 1.18605 44C1.63081 44 2.04712 43.7491 2.24993 43.3353C7.80893 31.9988 14.1329 24.9731 28.4651 24.9731H29.6512V32.1082C29.6512 32.5672 29.9145 32.9846 30.3272 33.182C30.74 33.3794 31.2298 33.32 31.5856 33.031L50.5623 17.5717C50.8387 17.3469 51 17.0068 51 16.6489C51 16.2909 50.8387 15.952 50.5623 15.7261Z" fill="white"/>
</svg>
