<svg width="65" height="53" viewBox="0 0 65 53" fill="none" xmlns="http://www.w3.org/2000/svg">
<path d="M43.7821 7.49281C43.629 7.3401 43.4386 7.22967 43.2331 7.16559L30.8526 3.32352C25.9018 1.78697 22.6808 4.46742 21.8131 5.32772C21.3069 5.82809 20.9192 6.35573 20.7206 6.8152L15.2056 19.6366C14.8897 20.3701 14.9973 21.3477 15.4925 22.3225C16.2015 23.7146 17.4789 24.718 19.0059 25.0793C20.7151 25.4842 22.4877 24.9348 23.8754 23.5646C24.2382 23.206 24.5472 22.8106 24.7292 22.4752L26.5832 19.0763C26.8881 18.5132 27.3309 17.9296 27.7971 17.4688C29.3876 15.8954 30.1436 16.6153 30.465 16.9207C33.239 19.5671 47.7825 34.0028 47.7825 34.0028C48.2998 34.5141 48.1922 35.4834 47.5452 36.1215C46.8996 36.7582 45.9175 36.8673 45.4016 36.3587L41.3157 32.3217C40.7887 31.7995 39.939 31.7995 39.412 32.3217C38.8851 32.8384 38.8851 33.6824 39.412 34.2018L43.4979 38.2416C44.0138 38.7501 43.9062 39.7195 43.2607 40.3562C42.6151 40.9957 41.6315 41.102 41.1184 40.5935L37.0311 36.5564C36.5042 36.0356 35.6517 36.0356 35.1275 36.5564C34.6005 37.0732 34.6005 37.9171 35.1275 38.4379L39.2134 42.4763C39.7293 42.9862 39.6176 43.9556 38.9734 44.5937C38.3292 45.2304 37.3484 45.3395 36.8311 44.8282L32.7452 40.7912C32.221 40.2717 31.3671 40.2717 30.8416 40.7912C30.3174 41.3106 30.3174 42.1546 30.8416 42.6713L34.9275 46.711C35.4448 47.2223 35.3344 48.1917 34.6902 48.8298C34.0419 49.4678 33.0611 49.5756 32.5465 49.0656L27.5723 44.1451C28.2827 43.0899 28.0896 41.5588 27.0357 40.513C25.8549 39.3473 24.0381 39.2396 22.987 40.2812C24.0381 39.241 23.9347 37.4481 22.7511 36.2797C21.5676 35.1126 19.755 35.0049 18.7038 36.0438C19.755 35.0049 19.6488 33.2134 18.4638 32.0463C17.283 30.8765 15.4704 30.7702 14.4165 31.8091C15.4704 30.7702 15.3615 28.9786 14.1793 27.8075C13.073 26.714 11.4245 26.5654 10.3527 27.3985L2.29815 19.4376C1.77258 18.9167 0.918708 18.9167 0.393141 19.4376C-0.131047 19.9557 -0.131047 20.7996 0.393141 21.3204L8.42701 29.2595L6.04471 31.6141C4.99358 32.6517 5.0998 34.4432 6.28474 35.6143C7.46554 36.7814 9.27812 36.8891 10.3306 35.8488C9.27812 36.8891 9.38572 38.6792 10.5693 39.849C11.7501 41.0148 13.5641 41.1252 14.6166 40.0849C13.5641 41.1252 13.6703 42.9153 14.8538 44.0838C16.0374 45.2536 17.85 45.3599 18.9011 44.321C17.85 45.3586 17.9562 47.1487 19.1398 48.3199C20.3219 49.4869 22.1331 49.5946 23.187 48.5544L25.7031 46.0689L30.6429 50.9499C32.2196 52.5082 34.8861 52.3992 36.5938 50.714C37.4256 49.8919 37.8698 48.842 37.9319 47.8031C38.983 47.7418 40.0466 47.3014 40.877 46.4779C41.7102 45.6558 42.1571 44.606 42.2206 43.567C43.2703 43.5057 44.3297 43.0667 45.1657 42.2432C45.9975 41.4197 46.443 40.3712 46.5037 39.331C47.5562 39.271 48.6184 38.832 49.4516 38.0057C51.1566 36.3206 51.2614 33.681 49.6889 32.1254L47.6059 30.0653L56.1584 21.6136C56.684 21.0955 56.684 20.2515 56.1584 19.7321L43.7821 7.49281Z" fill="#D7576C"/>
<path d="M63.7826 11.5525L52.8837 0.780237C51.8325 -0.260038 50.1262 -0.260038 49.0736 0.780237L45.2636 4.54323C44.2125 5.58214 44.2125 7.26867 45.2636 8.30758L56.164 19.0825C57.2165 20.1215 58.9229 20.1215 59.974 19.0825L63.7826 15.3182C64.8324 14.2779 64.8324 12.5914 63.7826 11.5525ZM58.0621 17.0388C56.8427 17.0388 55.8522 16.0612 55.8522 14.8546C55.8522 13.648 56.8427 12.6691 58.0621 12.6691C59.2829 12.6691 60.2733 13.6467 60.2733 14.8546C60.272 16.0599 59.2829 17.0388 58.0621 17.0388Z" fill="#D7576C"/>
</svg>
