<svg width="20" height="20" viewBox="0 0 20 20" fill="none" xmlns="http://www.w3.org/2000/svg">
<path d="M19.745 11.1114L19.4351 10.6983C19.1004 10.2448 19.0921 9.63322 19.4227 9.17964L19.7243 8.7625C20.1871 8.12261 19.9722 7.23163 19.2657 6.86309L18.8029 6.6201C18.2988 6.35686 18.0261 5.80607 18.1212 5.25528L18.2079 4.74905C18.3401 3.97551 17.7534 3.26273 16.9519 3.23033L16.4313 3.21008C15.8611 3.18578 15.3694 2.80914 15.2124 2.27051L15.0678 1.77642C14.8446 1.02314 14.0018 0.634348 13.2663 0.94214L12.787 1.14464C12.2623 1.36738 11.6549 1.23373 11.2706 0.816594L10.9236 0.435903C10.3864 -0.151332 9.45264 -0.143233 8.9279 0.448053L8.58496 0.832793C8.20897 1.25398 7.60159 1.39573 7.07685 1.18108L6.59343 0.986689C5.85384 0.686997 5.01508 1.09199 4.80436 1.84932L4.66801 2.34341C4.51927 2.88204 4.03172 3.26678 3.46153 3.29918L2.94092 3.32753C2.14348 3.37208 1.56503 4.09296 1.70964 4.86244L1.80467 5.36463C1.90797 5.91542 1.6394 6.4662 1.14359 6.73755L0.684957 6.98459C-0.0133179 7.36528 -0.215776 8.26031 0.255249 8.89209L0.565134 9.30518C0.89981 9.75877 0.908074 10.3703 0.57753 10.8239L0.275908 11.241C-0.186854 11.8809 0.0280001 12.7719 0.734538 13.1404L1.1973 13.3834C1.70138 13.6467 1.97408 14.1975 1.87905 14.7482L1.79228 15.2545C1.66006 16.028 2.24678 16.7408 3.04835 16.7732L3.56895 16.7934C4.13914 16.8177 4.63083 17.1944 4.78784 17.733L4.93245 18.2271C5.15557 18.9804 5.99845 19.3692 6.73391 19.0614L7.2132 18.8589C7.73794 18.6361 8.34532 18.7698 8.72957 19.1869L9.07664 19.5676C9.60965 20.1508 10.5434 20.1427 11.0682 19.5514L11.4111 19.1667C11.7871 18.7455 12.3945 18.6038 12.9192 18.8184L13.4026 19.0128C14.1422 19.3125 14.981 18.9075 15.1917 18.1502L15.3281 17.6561C15.4768 17.1174 15.9644 16.7327 16.5345 16.7003L17.0552 16.6719C17.8526 16.6274 18.431 15.9065 18.2864 15.137L18.1914 14.6348C18.0881 14.0841 18.3567 13.5333 18.8525 13.2619L19.3111 13.0149C20.0135 12.6382 20.216 11.7432 19.745 11.1114ZM12.4606 13.3227C12.0846 13.7682 11.597 14.0679 11.031 14.2218C10.7831 14.2866 10.6715 14.4162 10.6839 14.6672C10.6963 14.9143 10.6839 15.1654 10.6839 15.4124C10.6839 15.6352 10.5682 15.7526 10.3451 15.7567C10.0724 15.7648 9.79971 15.7648 9.52701 15.7567C9.28737 15.7526 9.17581 15.619 9.17168 15.3922C9.16754 15.2099 9.16754 15.0277 9.16754 14.8495C9.16341 14.4486 9.15102 14.4324 8.7585 14.3716C8.25442 14.2947 7.76273 14.1813 7.3041 13.9626C6.94464 13.7925 6.90745 13.7034 7.01074 13.3308C7.08925 13.0554 7.16362 12.7759 7.25452 12.5046C7.35782 12.1887 7.44458 12.1482 7.74207 12.2981C8.25029 12.5573 8.79155 12.703 9.35761 12.7719C9.72121 12.8164 10.0807 12.78 10.4195 12.6342C11.0516 12.3629 11.1508 11.646 10.6178 11.2167C10.436 11.0709 10.2294 10.9616 10.0146 10.8684C9.4609 10.6295 8.88245 10.4473 8.36184 10.1395C7.51482 9.64132 6.97769 8.96094 7.03967 7.94847C7.10991 6.80639 7.771 6.09361 8.837 5.71292C9.2791 5.55498 9.2791 5.56308 9.28324 5.10949C9.28324 4.95559 9.28324 4.80574 9.28324 4.65185C9.2915 4.31166 9.34934 4.25091 9.69642 4.24281C9.80384 4.23876 9.91127 4.24281 10.0187 4.24281C10.7542 4.24281 10.7542 4.24281 10.7583 4.96369C10.7624 5.47398 10.7583 5.47803 11.2789 5.55498C11.6755 5.61572 12.0557 5.73317 12.4234 5.89112C12.6259 5.98021 12.7044 6.11791 12.6424 6.32851C12.5515 6.64035 12.4647 6.95624 12.3614 7.26403C12.2664 7.55563 12.1714 7.60017 11.8821 7.46248C11.3078 7.19113 10.7046 7.07774 10.0683 7.11014C9.90301 7.11824 9.73773 7.14254 9.58486 7.20733C9.03533 7.44223 8.94443 8.03756 9.41545 8.40205C9.65097 8.58835 9.92366 8.722 10.2046 8.83539C10.6922 9.03384 11.1797 9.22013 11.6425 9.47123C13.101 10.2772 13.4977 12.0875 12.4606 13.3227Z" fill="#C5CBD4"/>
</svg>
