<svg width="40" height="31" viewBox="0 0 40 31" fill="none" xmlns="http://www.w3.org/2000/svg">
<path d="M10.6733 30.0579C11.8597 31.2443 13.7855 31.2443 14.9719 30.0579L29.6878 15.342C30.1103 14.9195 30.4354 14.4157 30.6466 13.8794C32.1256 14.2938 33.5638 14.5132 34.8315 14.5051C37.968 14.4888 39.0081 13.1155 39.3494 12.2948C39.6907 11.4822 39.9345 9.77582 37.7324 7.53309C37.708 7.50871 37.6836 7.48433 37.6593 7.45995C36.2941 6.09481 34.3114 4.8353 32.0605 3.90083C31.6461 3.73019 31.2317 3.5758 30.8254 3.42953V3.40515C30.801 1.60121 29.3465 0.146686 27.5426 0.122309L18.726 0.000420804C17.5559 -0.0158309 16.4345 0.439217 15.6138 1.26805L0.889781 15.984C-0.296594 17.1703 -0.296594 19.0962 0.889781 20.2825L10.6733 30.0579ZM22.017 5.26597C23.0002 4.28275 24.5929 4.28275 25.5761 5.26597C26.1612 5.85103 26.3968 6.65549 26.2831 7.4112C27.25 8.09377 28.4039 8.72759 29.639 9.23951C30.0778 9.41828 30.5004 9.5808 30.9067 9.71894L30.8579 6.17607C30.9311 6.20857 30.9961 6.23295 31.0692 6.26545C32.995 7.06991 34.7258 8.15878 35.8391 9.27202C35.8553 9.28827 35.8716 9.30452 35.8878 9.32077C36.9442 10.4015 37.0579 11.0922 36.9686 11.3035C36.6923 11.9617 33.7263 12.5467 29.2246 10.6697C27.9082 10.1171 26.6731 9.43454 25.6736 8.69508C25.6411 8.73571 25.6005 8.77634 25.568 8.81697C24.5848 9.8002 22.9921 9.8002 22.0089 8.81697C21.0338 7.84187 21.0338 6.2492 22.017 5.26597Z" fill="#CD1515"/>
</svg>
