<svg  viewBox="0 0 6 13" fill="none" xmlns="http://www.w3.org/2000/svg">
<path d="M5.57193 11.5971L5.39029 12.3396C4.84536 12.5547 4.41007 12.7184 4.08594 12.8309C3.76146 12.9438 3.38442 13 2.95485 13C2.29516 13 1.78204 12.8384 1.41608 12.5174C1.05012 12.1951 0.867078 11.7868 0.867078 11.2914C0.867078 11.0996 0.88036 10.9023 0.907974 10.7013C0.93582 10.5001 0.980094 10.2735 1.04068 10.0202L1.72169 7.60983C1.78228 7.37902 1.83377 7.16033 1.87502 6.95352C1.91685 6.74799 1.937 6.5589 1.937 6.38867C1.937 6.08085 1.87327 5.86554 1.74639 5.74448C1.61951 5.62378 1.3774 5.56249 1.01796 5.56249C0.841912 5.56249 0.660969 5.59069 0.476532 5.64521C0.291279 5.69997 0.13294 5.75287 0 5.80204L0.182107 5.05893C0.62823 4.87729 1.05466 4.72174 1.46257 4.59265C1.87047 4.4632 2.25589 4.39842 2.62046 4.39842C3.2756 4.39842 3.78115 4.55676 4.13616 4.87344C4.49117 5.19035 4.66861 5.60117 4.66861 6.10741C4.66861 6.21216 4.65696 6.39671 4.63191 6.66049C4.60744 6.92486 4.56189 7.16709 4.49548 7.38741L3.81738 9.78813C3.7618 9.98096 3.71182 10.2014 3.66836 10.4494C3.62351 10.6959 3.60207 10.8842 3.60207 11.0104C3.60207 11.3292 3.67314 11.5469 3.81563 11.6626C3.95918 11.7783 4.20641 11.8358 4.55758 11.8358C4.72244 11.8358 4.91003 11.8066 5.11846 11.7491C5.32632 11.6917 5.4779 11.6412 5.57193 11.5971ZM5.7439 1.51814C5.7439 1.93642 5.58626 2.29364 5.26946 2.58737C4.95348 2.88214 4.57272 3.02965 4.1273 3.02965C3.68048 3.02965 3.29879 2.88214 2.9792 2.58737C2.66019 2.29353 2.50034 1.93642 2.50034 1.51814C2.50034 1.10068 2.66019 0.742877 2.9792 0.445423C3.29821 0.148436 3.6806 0 4.1273 0C4.57261 0 4.95348 0.148785 5.26946 0.445423C5.58649 0.742877 5.7439 1.1008 5.7439 1.51814Z" fill="white"/>
</svg>
