<svg viewBox="0 0 16 16" xmlns="http://www.w3.org/2000/svg">
<path d="M5.87381 8.8271C5.87381 8.62667 5.71124 8.46429 5.51065 8.46429H4.24334C4.04298 8.46429 3.88037 8.62667 3.88037 8.8271V10.0942C3.88037 10.2949 4.04298 10.4574 4.24334 10.4574H5.51065C5.71124 10.4574 5.87381 10.2949 5.87381 10.0942V8.8271Z" fill="#CD1515"/>
<path d="M9.04085 8.8271C9.04085 8.62667 8.87825 8.46429 8.67805 8.46429H7.41058C7.21021 8.46429 7.04761 8.62667 7.04761 8.8271V10.0942C7.04761 10.2949 7.21021 10.4574 7.41058 10.4574H8.67805C8.87825 10.4574 9.04085 10.2949 9.04085 10.0942V8.8271Z" fill="#CD1515"/>
<path d="M12.2082 8.8271C12.2082 8.62667 12.0456 8.46429 11.8452 8.46429H10.5779C10.3773 8.46429 10.2147 8.62667 10.2147 8.8271V10.0942C10.2147 10.2949 10.3773 10.4574 10.5779 10.4574H11.8452C12.0456 10.4574 12.2082 10.2949 12.2082 10.0942V8.8271Z" fill="#CD1515"/>
<path d="M5.87381 11.9946C5.87381 11.7938 5.71124 11.6316 5.51065 11.6316H4.24334C4.04298 11.6316 3.88037 11.7938 3.88037 11.9946V13.2615C3.88037 13.4621 4.04298 13.6245 4.24334 13.6245H5.51065C5.71124 13.6245 5.87381 13.462 5.87381 13.2615V11.9946Z" fill="#CD1515"/>
<path d="M9.04085 11.9946C9.04085 11.7938 8.87825 11.6316 8.67805 11.6316H7.41058C7.21021 11.6316 7.04761 11.7938 7.04761 11.9946V13.2615C7.04761 13.4621 7.21021 13.6245 7.41058 13.6245H8.67805C8.87825 13.6245 9.04085 13.462 9.04085 13.2615V11.9946Z" fill="#CD1515"/>
<path d="M12.2082 11.9946C12.2082 11.7938 12.0456 11.6316 11.8454 11.6316H10.5779C10.3773 11.6316 10.2147 11.7938 10.2147 11.9946V13.2615C10.2147 13.4621 10.3773 13.6245 10.5779 13.6245H11.8454C12.0456 13.6245 12.2082 13.462 12.2082 13.2615V11.9946Z" fill="#CD1515"/>
<path d="M14.4743 1.78161V3.71706C14.4743 4.59187 13.7647 5.29683 12.89 5.29683H11.8905C11.0158 5.29683 10.2967 4.59187 10.2967 3.71706V1.77466H5.7919V3.71706C5.7919 4.59187 5.07284 5.29683 4.19823 5.29683H3.19858C2.32394 5.29683 1.61429 4.59187 1.61429 3.71706V1.78161C0.849843 1.80465 0.22168 2.4372 0.22168 3.2147V14.5574C0.22168 15.3495 0.863708 16.0001 1.65582 16.0001H14.4328C15.2237 16.0001 15.8669 15.3482 15.8669 14.5574V3.2147C15.8669 2.4372 15.2388 1.80465 14.4743 1.78161ZM14.0101 13.8511C14.0101 14.1934 13.7326 14.4711 13.3901 14.4711H2.67117C2.32872 14.4711 2.05117 14.1934 2.05117 13.8511V7.99215C2.05117 7.6497 2.32869 7.37198 2.67117 7.37198H13.3901C13.7326 7.37198 14.0101 7.6497 14.0101 7.99215L14.0101 13.8511Z" fill="#CD1515"/>
<path d="M3.19523 4.25915H4.18383C4.4839 4.25915 4.7272 4.01621 4.7272 3.71614V0.543206C4.7272 0.243104 4.4839 0 4.18383 0H3.19523C2.89512 0 2.65186 0.243104 2.65186 0.543206V3.71614C2.65186 4.01621 2.89512 4.25915 3.19523 4.25915Z" fill="#CD1515"/>
<path d="M11.8778 4.25915H12.8664C13.1663 4.25915 13.4096 4.01621 13.4096 3.71614V0.543206C13.4096 0.243104 13.1663 0 12.8664 0H11.8778C11.5778 0 11.3345 0.243104 11.3345 0.543206V3.71614C11.3345 4.01621 11.5778 4.25915 11.8778 4.25915Z" fill="#CD1515"/>
</svg>
