<svg width="23" height="27" viewBox="0 0 47 55" fill="none" xmlns="http://www.w3.org/2000/svg">
<path fill-rule="evenodd" clip-rule="evenodd" d="M46.67 14.8454L46.6717 14.8881C46.7939 21.3334 46.9459 29.3549 44.2574 36.6438C42.7834 40.6409 40.5529 44.1156 37.6283 46.972C34.2989 50.2235 29.9388 52.8065 24.6694 54.6493C24.4969 54.7096 24.3173 54.7586 24.1356 54.795C23.8798 54.8461 23.6215 54.8716 23.3637 54.8716C23.1058 54.8716 22.8479 54.8461 22.5917 54.795C22.41 54.7586 22.2317 54.71 22.06 54.6502C16.7844 52.8107 12.4197 50.2289 9.08732 46.977C6.16147 44.1215 3.93098 40.6476 2.45821 36.6513C-0.220222 29.3842 -0.0678386 21.3778 0.0548219 14.9446L0.0573336 14.8454C0.0811959 14.3145 0.0975227 13.7569 0.106733 13.1407C0.151527 10.1148 2.55701 7.61217 5.5825 7.44346C11.8913 7.09097 16.7718 5.03379 20.9419 0.969248L20.9774 0.935338C22.338 -0.311779 24.3897 -0.311779 25.7499 0.935338L25.7855 0.969248C29.9555 5.03379 34.836 7.09097 41.1448 7.44304C44.1707 7.61217 46.5758 10.1148 46.6206 13.1403C46.6302 13.7607 46.6461 14.3183 46.67 14.8454ZM20.7919 37.5051L33.6871 24.6099C34.7697 23.5273 34.7697 21.7722 33.6871 20.6904C32.6045 19.6078 30.8495 19.6078 29.7676 20.6904L18.8315 31.6258L15.8634 28.6577C14.7808 27.5751 13.0257 27.5751 11.9438 28.6577C10.8613 29.7403 10.8613 31.4953 11.9438 32.5772L16.8717 37.5051C17.413 38.0471 18.1222 38.3174 18.8315 38.3174C19.5407 38.3174 20.2506 38.0464 20.7919 37.5051Z" fill="white"/>
</svg>
