<svg width="25" height="21" viewBox="0 0 25 21" fill="none" xmlns="http://www.w3.org/2000/svg">
<path d="M12.0115 9.98671C14.2819 9.98671 16.1226 7.75108 16.1226 4.99339C16.1226 2.23563 15.5182 0 12.0115 0C8.5047 0 7.90039 2.23563 7.90039 4.99339C7.90045 7.75108 9.7411 9.98671 12.0115 9.98671Z" fill="black"/>
<path d="M19.7676 17.4094C19.6915 12.6053 19.0641 11.2364 14.2629 10.3699C14.2629 10.3699 13.5869 11.231 12.0116 11.231C10.4364 11.231 9.76055 10.3699 9.76055 10.3699C5.01171 11.2269 4.34602 12.5755 4.25852 17.2533C4.25141 17.6353 4.24813 17.6553 4.24683 17.6109C4.24707 17.6941 4.24745 17.8477 4.24745 18.1157C4.24745 18.1157 5.39054 20.42 12.0117 20.42C18.6329 20.42 19.7761 18.1157 19.7761 18.1157C19.7761 17.9435 19.7762 17.8238 19.7763 17.7424C19.775 17.7698 19.7724 17.7166 19.7676 17.4094Z" fill="black"/>
<path d="M17.7168 9.09517C19.5608 9.09517 21.0557 7.27945 21.0557 5.03968C21.0557 2.79985 20.5649 0.984131 17.7168 0.984131C17.2377 0.984131 16.8255 1.03568 16.4708 1.1319C17.1287 2.3446 17.2188 3.81757 17.2188 4.99333C17.2188 6.3246 16.8579 7.59559 16.1934 8.64797C16.6501 8.93323 17.1678 9.09517 17.7168 9.09517Z" fill="black"/>
<path d="M24.0159 15.1236C23.954 11.2218 23.4445 10.1101 19.545 9.40625C19.545 9.40625 18.9961 10.1057 17.7167 10.1057C17.6638 10.1057 17.6125 10.1041 17.562 10.1018C18.3749 10.4683 19.1144 10.9787 19.659 11.7254C20.6005 13.0164 20.817 14.7506 20.8616 17.2984C23.4851 16.7799 24.0228 15.6974 24.0228 15.6974C24.0228 15.5563 24.0228 15.4595 24.023 15.3934C24.022 15.4166 24.0198 15.3749 24.0159 15.1236Z" fill="black"/>
<path d="M6.30621 9.0951C6.85526 9.0951 7.37276 8.93317 7.82973 8.64797C7.16515 7.59559 6.80427 6.3246 6.80427 4.99333C6.80427 3.81751 6.89443 2.34454 7.55214 1.1319C7.19758 1.03568 6.7854 0.984131 6.30621 0.984131C3.45811 0.984131 2.96741 2.79985 2.96741 5.03968C2.96741 7.27939 4.46228 9.0951 6.30621 9.0951Z" fill="black"/>
<path d="M6.46091 10.1018C6.41054 10.1041 6.35924 10.1057 6.30621 10.1057C5.0268 10.1057 4.47787 9.40625 4.47787 9.40625C0.578506 10.1101 0.0688713 11.2218 0.00711608 15.1236C0.00309395 15.375 0.00105194 15.4166 0 15.3933C0.000123758 15.4594 0.000247516 15.5562 0.000247516 15.6973C0.000247516 15.6973 0.537976 16.7799 3.16127 17.2983C3.20614 14.7506 3.42246 13.0164 4.36408 11.7254C4.90861 10.9787 5.648 10.4683 6.46091 10.1018Z" fill="black"/>
</svg>
