<svg width="27" height="23" viewBox="0 0 56 46" fill="none" xmlns="http://www.w3.org/2000/svg">
<path d="M53.5306 19.7144H48.4925C47.5844 19.7144 46.8496 20.4492 46.8496 21.3572C46.8496 22.2653 47.5844 23.0001 48.4925 23.0001H53.5306C54.4386 23.0001 55.1734 22.2653 55.1734 21.3572C55.1734 20.4492 54.4386 19.7144 53.5306 19.7144Z" fill="white"/>
<path d="M51.2972 30.0526L48.0115 26.7669C47.3698 26.1252 46.33 26.1252 45.6883 26.7669C45.0466 27.4086 45.0465 28.4483 45.6883 29.09L48.9741 32.3757C49.6158 33.0174 50.6555 33.0174 51.2972 32.3757C51.9389 31.734 51.9389 30.6943 51.2972 30.0526Z" fill="white"/>
<path d="M51.2971 10.3385C50.6554 9.69675 49.6157 9.69675 48.974 10.3385L45.6883 13.6242C45.0466 14.2659 45.0466 15.3056 45.6883 15.9473C46.33 16.589 47.3697 16.5891 48.0114 15.9473L51.2971 12.6616C51.9388 12.0199 51.9388 10.9802 51.2971 10.3385Z" fill="white"/>
<path d="M11.6095 9.85718C9.47052 9.85718 7.66403 11.2348 6.98356 13.1429H6.68095C3.0567 13.1429 0 16.0901 0 19.7143C0 23.3386 3.0567 26.2857 6.68095 26.2857H6.98356C7.66403 28.1939 9.47052 29.5715 11.6095 29.5715H19.8238V9.85718H11.6095Z" fill="white"/>
<path d="M38.6881 0C36.8734 0 35.4023 1.47101 35.4023 3.28571V36.1428C35.4023 37.9573 36.8734 39.4286 38.6881 39.4286C40.5028 39.4286 41.9738 37.9573 41.9738 36.1428V3.28571C41.9738 1.47101 40.5028 0 38.6881 0Z" fill="white"/>
<path d="M11.6097 24.5786C11.0471 24.5786 10.4979 24.5207 9.9668 24.4124V41.0716C9.9668 43.7893 12.1776 46.0002 14.8954 46.0002C17.6131 46.0002 19.8239 43.7893 19.8239 41.0716V24.5786H11.6097Z" fill="white"/>
<path d="M29.9206 6.13511C26.0122 7.93171 21.1951 9.1299 15.9566 9.71005C13.8426 9.94417 12.1758 11.6845 12.1758 13.8113V25.6491C12.1758 27.776 13.8427 29.5163 15.9566 29.7504C21.1953 30.3305 26.0124 31.5288 29.9206 33.3254C31.3438 33.9796 32.9661 32.9398 32.9661 31.3734V8.08703C32.9661 6.52066 31.3438 5.48088 29.9206 6.13511Z" fill="white"/>
</svg>
