<svg width="53" height="56" viewBox="0 0 53 56" fill="none" xmlns="http://www.w3.org/2000/svg">
<rect y="26.3112" width="15.2214" height="29.3555" rx="2" fill="#ADCAFA"/>
<rect x="18.4829" y="16.526" width="15.2214" height="39.1406" rx="2" fill="#ADCAFA"/>
<rect x="36.9663" y="38.4883" width="15.2214" height="17.1784" rx="2" fill="#ADCAFA"/>
<path d="M25.1922 1.87626C25.5554 1.12031 26.6318 1.12031 26.995 1.87626L28.061 4.0952C28.2067 4.39864 28.4954 4.60837 28.8291 4.65324L31.2688 4.98138C32.1 5.09318 32.4326 6.11691 31.8259 6.69591L30.045 8.39543C29.8014 8.62784 29.6912 8.96719 29.7516 9.29836L30.1934 11.7201C30.344 12.5451 29.4731 13.1778 28.735 12.7797L26.5683 11.6112C26.272 11.4514 25.9152 11.4514 25.6189 11.6112L23.4522 12.7797C22.7141 13.1778 21.8432 12.5451 21.9938 11.7201L22.4356 9.29836C22.496 8.96719 22.3858 8.62784 22.1422 8.39543L20.3613 6.69591C19.7546 6.11691 20.0872 5.09318 20.9184 4.98138L23.3581 4.65324C23.6918 4.60837 23.9804 4.39864 24.1262 4.0952L25.1922 1.87626Z" fill="#ADCAFA"/>
</svg>
