<svg width="42" height="50" viewBox="0 0 42 50" fill="none" xmlns="http://www.w3.org/2000/svg">
<path d="M41.9511 13.3822L41.9496 13.3438C41.9281 12.8701 41.9138 12.3689 41.9052 11.8112C41.8649 9.09172 39.7031 6.84224 36.9832 6.69022C31.3125 6.37375 26.9257 4.52465 23.1774 0.871214L23.1454 0.840734C21.9228 -0.280245 20.0786 -0.280245 18.8557 0.840734L18.8237 0.871214C15.0754 4.52465 10.6886 6.37375 5.01786 6.69059C2.29838 6.84224 0.136201 9.09172 0.0959373 11.8116C0.0876588 12.3655 0.0729833 12.8667 0.0515346 13.3438L0.0492769 13.433C-0.060977 19.2155 -0.197948 26.4121 2.20958 32.9442C3.53338 36.5363 5.53827 39.6588 8.16818 42.2255C11.1635 45.1485 15.0867 47.4691 19.8288 49.1226C19.983 49.1764 20.1433 49.22 20.3067 49.2528C20.537 49.2987 20.7687 49.3216 21.0005 49.3216C21.2323 49.3216 21.4645 49.2987 21.6944 49.2528C21.8577 49.22 22.0192 49.176 22.1742 49.1218C26.9106 47.4654 30.8297 45.1437 33.8224 42.221C36.4512 39.6535 38.456 36.5303 39.781 32.9374C42.1975 26.3858 42.0609 19.1756 41.9511 13.3822ZM20.9998 36.9532C14.222 36.9532 8.70817 31.4394 8.70817 24.6616C8.70817 17.8838 14.222 12.37 20.9998 12.37C27.7772 12.37 33.2914 17.8838 33.2914 24.6616C33.2914 31.4394 27.7772 36.9532 20.9998 36.9532Z" fill="#FF7257"/>
<path d="M18.8537 23.1034H18.4591C18.0746 23.1034 17.7475 22.9719 17.4777 22.7091C17.2012 22.4396 17.0629 22.1175 17.0629 21.7429C17.0629 21.3683 17.2012 21.0495 17.4777 20.7866C17.7475 20.5237 18.0746 20.3923 18.4591 20.3923H18.8537V23.1034ZM22.4453 26.2088C22.8298 26.2088 23.1569 26.3436 23.4267 26.613C23.7032 26.8759 23.8415 27.1947 23.8415 27.5693C23.8415 27.9439 23.7032 28.266 23.4267 28.5354C23.1569 28.7983 22.8298 28.9298 22.4453 28.9298H22.0406V26.2088H22.4453ZM25.4299 20.3923C25.8683 20.3923 26.246 20.2378 26.563 19.9289C26.8733 19.6266 27.0284 19.2619 27.0284 18.8346C27.0284 18.4074 26.8733 18.0427 26.563 17.7404C26.246 17.4314 25.8683 17.277 25.4299 17.277H22.0406V16.8925C22.0406 16.4653 21.8855 16.1005 21.5752 15.7982C21.265 15.4959 20.8906 15.3447 20.4522 15.3447C20.0138 15.3447 19.6361 15.4959 19.3191 15.7982C19.0088 16.1005 18.8537 16.4653 18.8537 16.8925V17.277H18.4591C17.1978 17.277 16.1186 17.7141 15.2216 18.5882C14.3245 19.4623 13.876 20.5139 13.876 21.7429C13.876 22.9785 14.3245 24.0301 15.2216 24.8976C16.1186 25.7718 17.1978 26.2088 18.4591 26.2088H18.8537V28.9298H15.4745C15.0293 28.9298 14.6516 29.081 14.3414 29.3833C14.0311 29.6856 13.876 30.0537 13.876 30.4874C13.876 30.9146 14.0311 31.2794 14.3414 31.5817C14.6516 31.8841 15.0293 32.0352 15.4745 32.0352H18.8537V32.4197C18.8537 32.8535 19.0088 33.2215 19.3191 33.5239C19.6361 33.8262 20.0138 33.9774 20.4522 33.9774C20.8906 33.9774 21.265 33.8262 21.5752 33.5239C21.8855 33.2215 22.0406 32.8535 22.0406 32.4197V32.0352H22.4453C23.7066 32.0352 24.7858 31.5982 25.6828 30.724C26.5799 29.8499 27.0284 28.7983 27.0284 27.5693C27.0284 26.3403 26.5799 25.2887 25.6828 24.4146C24.7858 23.5405 23.7066 23.1034 22.4453 23.1034H22.0406V20.3923H25.4299Z" fill="#FF7257"/>
</svg>
