<svg width="17" height="21" viewBox="0 0 17 21" fill="none" xmlns="http://www.w3.org/2000/svg">
<path d="M6.01054 18.4937C6.0105 18.4991 6.01013 18.5046 6.01013 18.5101C6.01013 19.8852 7.12488 20.9999 8.5 20.9999C9.87511 20.9999 10.9899 19.8852 10.9899 18.5101C10.9899 18.5046 10.9895 18.4991 10.9895 18.4937H6.01054Z" fill="black"/>
<path d="M16.4495 15.3814L14.2086 12.0896C14.2086 11.0819 14.2086 8.61965 14.2086 7.9827C14.2086 5.21304 12.2362 2.90435 9.61939 2.38408V1.11941C9.61935 0.50121 9.11818 0 8.49993 0C7.88168 0 7.38052 0.50121 7.38052 1.11941V2.38412C4.76374 2.90444 2.79126 5.21313 2.79126 7.98275C2.79126 9.067 2.79126 11.4612 2.79126 12.0896L0.550378 15.3814C0.314334 15.7282 0.289372 16.177 0.485504 16.5478C0.681636 16.9185 1.06668 17.1504 1.48614 17.1504H15.5137C15.9332 17.1504 16.3182 16.9185 16.5144 16.5478C16.7105 16.1769 16.6855 15.7281 16.4495 15.3814Z" fill="black"/>
</svg>
