<svg width="17" height="19" viewBox="0 0 17 19" fill="none" xmlns="http://www.w3.org/2000/svg">
<path d="M16.0181 3.5389C16.0386 3.06028 15.8769 2.56567 15.6312 2.3134C15.8638 1.99677 15.9974 1.52538 15.8463 1.16112C15.7503 0.929694 15.5056 0.653233 14.8852 0.653233C14.8363 0.653233 14.785 0.654961 14.7328 0.658093C14.58 0.273855 14.2003 -0.00012207 13.7971 -0.00012207C13.5887 -0.00012207 13.2092 0.0749328 12.9 0.55334C12.8622 0.546536 12.8202 0.543621 12.7744 0.543621C12.4806 0.543621 11.9302 0.707337 11.7056 1.14557C11.5838 1.38369 11.5224 1.78003 11.8891 2.34062C11.6954 2.63695 11.1241 3.59841 10.5544 5.39799C10.3151 6.15265 9.5035 7.90904 7.13727 7.90904C5.36598 7.90904 3.15742 6.91518 0.573698 4.95512C0.544648 4.93276 0.509551 4.92099 0.473049 4.92099C0.45955 4.92099 0.446591 4.92294 0.43374 4.92607C0.384819 4.93741 0.344214 4.97078 0.322508 5.01549C0.298425 5.06527 -0.220263 6.21463 1.70578 8.17718C1.39271 8.24338 1.08861 8.40559 0.983746 8.71229C0.851671 9.09739 1.08418 9.55258 1.67425 10.0644C1.52932 10.1294 1.39865 10.2255 1.33677 10.3898C1.22263 10.6934 1.37511 11.1354 1.84715 11.867C2.58096 13.0064 4.26089 15.6077 8.2375 15.8218C8.23609 15.8375 8.23285 15.853 8.23285 15.8686V17.8306H7.54365C7.22129 17.8306 6.95941 18.0926 6.95941 18.4153C6.95941 18.7386 7.22129 19 7.54365 19H11.0926C11.4152 19 11.6768 18.7386 11.6768 18.4153C11.6768 18.0926 11.4152 17.8306 11.0926 17.8306H9.40198V15.8686C9.40198 15.8516 9.39831 15.8348 9.39637 15.8191C11.025 15.7212 12.4199 15.2441 13.4582 14.4225C14.6612 13.471 15.2972 12.1255 15.2972 10.5293C15.2788 9.62396 15.1569 9.03994 15.0391 8.47406C14.9172 7.88852 14.8016 7.33527 14.7924 6.43656C14.7836 6.04293 14.9098 5.50804 15.2108 5.20058C15.365 5.04259 15.5511 4.96311 15.7632 4.96311C15.9808 4.96311 16.2295 5.04497 16.5022 5.20588C16.528 5.22164 16.5577 5.22996 16.5873 5.22996C16.6121 5.22996 16.6371 5.22359 16.6603 5.2129C16.7105 5.18881 16.7456 5.14054 16.753 5.08503C16.7572 5.04983 16.8547 4.24831 16.0181 3.5389Z" fill="black"/>
</svg>
