<svg width="24" height="12" viewBox="0 0 24 12" fill="none" xmlns="http://www.w3.org/2000/svg">
<path d="M23.6416 3.57991C23.5172 3.61404 23.4259 3.75635 23.4688 3.88399C23.4828 3.92538 23.4934 3.96726 23.5009 4.01013C23.506 4.06715 23.5058 4.12416 23.5004 4.18101C23.489 4.24697 23.471 4.3112 23.4471 4.37378C23.4262 4.41905 23.4025 4.46312 23.3753 4.5048C23.3669 4.51774 23.3583 4.53056 23.3494 4.54313C23.3473 4.54581 23.3447 4.54952 23.3416 4.5534C23.3259 4.5724 23.3097 4.59108 23.2924 4.60872C23.271 4.63078 23.2488 4.6523 23.2254 4.67229C23.2206 4.67633 23.2157 4.68054 23.211 4.68458C23.2048 4.68911 23.1978 4.69414 23.1935 4.69719C23.1479 4.72815 23.1003 4.75487 23.0505 4.77791C22.982 4.80397 22.9114 4.82301 22.8391 4.8353C22.755 4.84387 22.6707 4.84354 22.5866 4.83497C22.4968 4.82017 22.409 4.79613 22.3242 4.76299C22.2568 4.73219 22.1917 4.69587 22.1311 4.65284C22.124 4.64776 22.1171 4.64274 22.1101 4.63771C22.0989 4.62859 22.0879 4.61936 22.0771 4.60996C22.1008 4.59669 22.1242 4.58288 22.1469 4.56808C22.3465 4.43822 22.5279 4.25489 22.6219 4.03301C22.6804 3.89491 22.7204 3.76002 22.7283 3.60897C22.7349 3.48402 22.7201 3.34794 22.6713 3.23156C22.6197 3.10862 22.5556 2.9927 22.4518 2.90522C22.3527 2.82161 22.2424 2.75335 22.1156 2.72004C21.8665 2.65461 21.5915 2.71616 21.4125 2.9079C21.2456 3.08669 21.1715 3.32184 21.1541 3.56185C21.1382 3.78237 21.1756 4.01632 21.2492 4.22438C21.252 4.2323 21.2549 4.24021 21.2579 4.24809C21.2244 4.23885 21.1913 4.22793 21.1589 4.21544C21.1123 4.19408 21.067 4.16988 21.024 4.14177C21.0094 4.13216 20.9949 4.12243 20.9806 4.11233C20.9717 4.10458 20.939 4.0782 20.9293 4.06913C20.9054 4.04707 20.8822 4.0244 20.8605 4.00016C20.8511 3.98973 20.8232 3.95407 20.8173 3.94735C20.8147 3.94364 20.8121 3.93976 20.8095 3.93609C20.7618 3.83415 20.7355 3.72482 20.7241 3.6098C20.7198 3.56775 20.7288 3.55159 20.772 3.53984C21.031 3.46951 21.1856 3.23708 21.1557 2.97724C21.1158 2.63107 20.8358 2.38838 20.4863 2.39225C20.3853 2.39341 20.2846 2.40957 20.1835 2.41715C20.1694 2.41814 20.1518 2.41328 20.1401 2.40503C20.0607 2.34901 19.9859 2.2856 19.9031 2.23531C19.6081 2.05652 19.3077 1.88646 19.0146 1.70449C18.7402 1.53395 18.4746 1.34926 18.2013 1.17669C17.7534 0.894132 17.2829 0.656799 16.7806 0.48423C16.3254 0.327822 15.8577 0.233788 15.3779 0.199983C15.1138 0.181308 14.8496 0.165848 14.5855 0.148657C14.3007 0.130147 14.0163 0.107968 13.7314 0.0934982C13.4327 0.0783686 13.1334 0.0659185 12.8344 0.060518C12.4307 0.0530975 12.027 0.0527679 11.6232 0.050954C11.2222 0.0492637 10.8212 0.0546231 10.4204 0.0474087C10.028 0.0403592 9.63569 0.0215196 9.24331 0.00737934C9.21606 0.00638993 9.18881 0.00251473 9.16173 0H8.87294C8.8541 0.00251473 8.83543 0.00606013 8.81659 0.00737934C8.67832 0.016284 8.54005 0.0227146 8.40199 0.0339691C8.15472 0.0541694 7.91202 0.101908 7.67184 0.162798C7.32687 0.250277 6.99233 0.369171 6.66265 0.501916C6.17269 0.699219 5.69584 0.925257 5.22335 1.16073C5.0249 1.25963 4.82924 1.36443 4.62926 1.46032C4.36789 1.58564 4.10145 1.7005 3.84091 1.82768C3.35428 2.06517 2.88786 2.33751 2.44654 2.65201C2.21964 2.81366 2.00181 2.98623 1.79795 3.17611C1.71286 3.25534 1.63243 3.33961 1.54969 3.42152C1.52735 3.44358 1.50649 3.46291 1.46827 3.4545C1.2424 3.40487 1.01801 3.35004 0.806563 3.25402C0.764514 3.23485 0.726999 3.20204 0.692534 3.17026C0.658565 3.1388 0.634654 3.09609 0.599695 3.06612C0.54301 3.01752 0.485336 2.96656 0.419912 2.93243C0.332597 2.88716 0.240623 2.92954 0.207148 3.02189C0.192513 3.06241 0.184804 3.10664 0.181589 3.14973C0.177384 3.20777 0.180599 3.26647 0.180599 3.32617C0.170169 3.32547 0.159409 3.32415 0.14865 3.32398C0.0622003 3.32312 0.01071 3.37325 0.0171411 3.4597C0.0201505 3.50125 0.031941 3.5433 0.0469057 3.58251C0.0903159 3.69687 0.157925 3.79811 0.243179 3.88341C0.376749 4.01714 0.487562 4.16733 0.595366 4.32126C0.628841 4.36921 0.670231 4.41257 0.712776 4.45314C0.835545 4.57018 0.986924 4.63057 1.15075 4.66269C1.22121 4.67646 1.29253 4.68808 1.33326 4.75722C1.34101 4.77033 1.34385 4.78814 1.34352 4.8038C1.34253 4.85443 1.3314 4.90592 1.33796 4.95534C1.35358 5.07172 1.37444 5.18765 1.39819 5.30267C1.43954 5.50335 1.49622 5.70144 1.50212 5.90818C1.50599 6.04645 1.48983 6.18019 1.3958 6.29067C1.35692 6.33639 1.31372 6.37868 1.24743 6.38425C1.13558 6.39344 1.06966 6.45318 1.05297 6.56535C1.04893 6.59231 1.03396 6.60406 1.00469 6.60254C0.932878 6.59899 0.874874 6.62542 0.831463 6.68499C0.802194 6.72502 0.759649 6.74588 0.709849 6.74126C0.650114 6.73594 0.590749 6.72564 0.53122 6.7171C0.393816 6.69723 0.38252 6.75511 0.40977 6.85888C0.437845 6.96581 0.474535 7.0704 0.50463 7.17676C0.51407 7.21003 0.51877 7.24586 0.5191 7.28069C0.52046 7.39286 0.51003 7.5059 0.520295 7.61725C0.539795 7.82919 0.66108 7.97195 0.893013 7.95922C0.948007 7.95617 0.993602 7.96911 1.0385 7.99958C1.11048 8.04822 1.17858 8.09934 1.21799 8.18373C1.1879 8.20797 1.15743 8.23097 1.12833 8.25587C1.08393 8.29372 1.0777 8.33882 1.1174 8.3805C1.22372 8.49218 1.35255 8.56255 1.50813 8.57726C1.6227 8.58823 1.73487 8.56753 1.84705 8.54836C2.03714 8.51608 2.22752 8.50941 2.41204 8.57211C2.74943 8.68692 3.09374 8.76195 3.45034 8.7796C3.62526 8.78838 3.79902 8.77943 3.97176 8.7561C4.2116 8.72365 4.44238 8.65819 4.66038 8.55142C4.7726 8.49642 4.88964 8.489 5.00284 8.5346C5.10611 8.57615 5.20369 8.633 5.30205 8.68614C5.42132 8.75053 5.54157 8.79918 5.68149 8.75915C5.76056 8.73643 5.79119 8.75272 5.84029 8.82354C5.94339 8.97171 5.96879 9.14126 5.97316 9.31552C5.97654 9.44452 5.96949 9.57392 5.97501 9.70275C5.98021 9.82152 5.99571 9.93988 6.00696 10.0585C6.00948 10.0851 6.02143 10.1136 6.01488 10.1376C5.96141 10.3336 5.90773 10.5299 5.8475 10.7241C5.79939 10.8792 5.72354 11.0172 5.59014 11.1207C5.54021 11.1594 5.50134 11.2171 5.46955 11.2729C5.44449 11.3169 5.42247 11.3635 5.39922 11.4091C5.32926 11.5467 5.24887 11.6759 5.13381 11.7955C5.18225 11.8176 5.22327 11.8442 5.26821 11.8558C5.54306 11.9267 5.80999 11.8941 6.06311 11.7725C6.13864 11.7364 6.20254 11.7171 6.28379 11.7452C6.34266 11.7655 6.39749 11.743 6.43266 11.687C6.44779 11.6627 6.46597 11.6389 6.47487 11.6123C6.49878 11.5403 6.52228 11.4678 6.53898 11.3939C6.57191 11.2488 6.60168 11.1029 6.62979 10.9568C6.67267 10.7341 6.73203 10.5181 6.8513 10.3217C6.91639 10.2143 6.97761 10.1039 7.00606 9.97937C7.01715 9.93056 7.02407 9.8808 7.03298 9.83121C7.03986 9.83047 7.04526 9.82919 7.05062 9.82985C7.15171 9.83974 7.21647 9.89812 7.24962 9.98984C7.27637 10.0642 7.29517 10.1414 7.3169 10.2174C7.35239 10.342 7.40384 10.4557 7.51115 10.5378C7.56062 10.5756 7.6119 10.6163 7.64707 10.6664C7.78266 10.8604 7.96141 10.979 8.19759 11.0087C8.20856 11.0101 8.21878 11.0199 8.22872 11.0268C8.25898 11.0478 8.28693 11.073 8.31921 11.09C8.45224 11.1599 8.5863 11.2281 8.72086 11.2952C8.7301 11.2997 8.75166 11.2954 8.75768 11.2877C8.78105 11.2577 8.80781 11.2271 8.82042 11.1923C8.89747 10.9773 8.85542 10.7797 8.72 10.6014C8.68483 10.555 8.63322 10.5212 8.58626 10.4789C8.60106 10.4723 8.61739 10.4623 8.63503 10.4571C8.67828 10.4443 8.72301 10.4364 8.76539 10.4218C8.82409 10.4018 8.84108 10.3625 8.81552 10.3064C8.77413 10.2158 8.70182 10.1564 8.61083 10.1211C8.55114 10.0979 8.48819 10.0827 8.428 10.061C8.41254 10.0554 8.39889 10.0398 8.38846 10.0257C8.35367 9.97913 8.32658 9.92479 8.28519 9.88525C8.23725 9.83937 8.17739 9.80602 8.12289 9.76706C8.09226 9.74501 8.0679 9.71994 8.06386 9.67826C8.05223 9.55731 8.097 9.46393 8.19776 9.39764C8.25613 9.3593 8.31516 9.32195 8.37519 9.28629C8.5264 9.19667 8.65354 9.0833 8.74135 8.92854C8.77668 8.86629 8.82681 8.81839 8.89273 8.78875C9.12046 8.68663 9.31595 8.5376 9.5001 8.37229C9.52785 8.34739 9.55341 8.3222 9.59245 8.31561C9.65585 8.30497 9.71843 8.28889 9.78217 8.28197C10.0262 8.25587 10.2703 8.26836 10.5135 8.29153C10.692 8.30868 10.8699 8.33276 11.0481 8.35411C11.2805 8.38206 11.5125 8.41306 11.7452 8.43792C11.9509 8.4599 12.157 8.48042 12.3635 8.49308C12.613 8.50821 12.8627 8.50854 13.1123 8.48768C13.3159 8.47053 13.5175 8.44308 13.715 8.39051C14.0953 8.28906 14.4798 8.21642 14.8741 8.19605C15.1645 8.18092 15.4523 8.19486 15.7369 8.25628C15.8668 8.2844 15.9943 8.32039 16.1081 8.39282C16.1305 8.40709 16.1411 8.42341 16.144 8.45186C16.1618 8.62611 16.1791 8.80074 16.2033 8.9741C16.2338 9.1928 16.2699 9.41075 16.2572 9.6325C16.2506 9.7453 16.2248 9.85368 16.1677 9.95352C16.0017 10.2432 15.8351 10.5327 15.6733 10.8247C15.5965 10.9632 15.5243 11.105 15.4954 11.2636C15.4914 11.2862 15.4961 11.3123 15.4865 11.3314C15.4345 11.4352 15.3813 11.5387 15.3245 11.6398C15.2961 11.6903 15.2587 11.7356 15.2215 11.7886C15.3474 11.8083 15.4654 11.8293 15.5844 11.8446C15.7452 11.8653 15.9068 11.8757 16.0671 11.8396C16.2103 11.8075 16.327 11.7392 16.3822 11.5932C16.3833 11.5901 16.3882 11.5884 16.3892 11.5879C16.4163 11.6068 16.4403 11.6275 16.4676 11.642C16.5421 11.6817 16.6679 11.6439 16.6605 11.5263C16.6558 11.4504 16.6679 11.3732 16.6751 11.2969C16.6943 11.0954 16.7436 10.9013 16.8211 10.7145C16.9589 10.3822 17.1819 10.1121 17.4414 9.86959C17.4694 9.84349 17.5082 9.82618 17.5451 9.8134C17.612 9.79035 17.6813 9.77403 17.7496 9.75469C17.8271 9.73272 17.8897 9.68948 17.922 9.61412C17.9573 9.5315 17.9933 9.4481 18.0166 9.36178C18.0381 9.28221 18.0433 9.19815 18.0556 9.1157C18.1479 9.10548 18.2711 9.15796 18.324 9.23551C18.3572 9.2839 18.3814 9.33857 18.416 9.38569C18.4577 9.44254 18.5063 9.4944 18.5518 9.54849C18.5812 9.58353 18.6182 9.61474 18.6381 9.6546C18.7323 9.84399 18.7469 10.0517 18.761 10.2576C18.7696 10.3847 18.7614 10.5129 18.7627 10.6406C18.7642 10.7901 18.764 10.9398 18.7726 11.089C18.7759 11.1467 18.7668 11.1978 18.7408 11.2458C18.6831 11.3514 18.6224 11.4554 18.562 11.5595C18.5142 11.6417 18.5213 11.6593 18.6163 11.6749C18.8495 11.7135 19.0812 11.7036 19.3085 11.6402C19.4593 11.5981 19.5969 11.532 19.6545 11.3691C19.6832 11.3807 19.7103 11.3941 19.7389 11.4024C19.806 11.4218 19.8479 11.3929 19.857 11.3237C19.8684 11.2353 19.8482 11.1516 19.8146 11.0716C19.7009 10.8013 19.598 10.5279 19.5638 10.234C19.547 10.0885 19.5512 9.94429 19.5892 9.80169C19.6233 9.67369 19.692 9.56382 19.7635 9.45491C19.7968 9.40412 19.8301 9.35073 19.8134 9.28687C19.8057 9.25707 19.8136 9.23905 19.8296 9.21675C19.9009 9.11649 19.9413 9.00481 19.9035 8.88406C19.8753 8.79374 19.8318 8.70708 19.7867 8.62352C19.7105 8.48236 19.6322 8.34273 19.6059 8.18179C19.602 8.1578 19.601 8.12696 19.6124 8.10746C19.7721 7.83612 19.9344 7.56638 20.0955 7.2959C20.2321 7.06644 20.3688 6.836 20.4475 6.57937C20.5253 6.32621 20.5875 6.06834 20.6623 5.81423C20.7784 5.42028 20.8342 5.01846 20.844 4.60975C20.9322 4.65836 21.0253 4.6967 21.1214 4.72329C21.2588 4.7613 21.4022 4.77511 21.5444 4.76567C21.5692 4.79659 21.5949 4.82672 21.6221 4.85599C21.7908 5.03784 22.0017 5.17404 22.2359 5.2553C22.6957 5.41492 23.2406 5.33672 23.601 4.99793C23.9293 4.68961 24.0925 4.18654 23.9458 3.75174C23.9026 3.62501 23.7769 3.5426 23.6416 3.57991ZM22.0115 4.05021C21.992 4.06872 21.9722 4.08669 21.9513 4.10367C21.9463 4.10739 21.9414 4.11105 21.9382 4.1134C21.9248 4.12284 21.9113 4.13224 21.8974 4.14098C21.8577 4.16621 21.8166 4.18876 21.7742 4.20892C21.7666 4.19359 21.7595 4.17813 21.7524 4.16267C21.7065 4.04711 21.6737 3.92719 21.6545 3.80442C21.6446 3.71377 21.6425 3.62311 21.6514 3.53242C21.6614 3.47421 21.676 3.41719 21.6966 3.36187C21.7065 3.34101 21.7171 3.32064 21.7294 3.30114C21.7348 3.29257 21.7403 3.284 21.746 3.27542C21.7492 3.27155 21.7524 3.26783 21.7549 3.26516C21.7667 3.25254 21.7786 3.24026 21.7916 3.229C21.8072 3.21857 21.8234 3.20934 21.8401 3.20076C21.8557 3.19569 21.8715 3.19132 21.8875 3.18798C21.9076 3.18695 21.9278 3.18695 21.948 3.18831C21.9746 3.19388 22.0005 3.20109 22.0261 3.21016C22.0478 3.22076 22.0688 3.23238 22.089 3.24566C22.0933 3.2485 22.0977 3.25155 22.1021 3.25456C22.1108 3.26198 22.1194 3.26953 22.1275 3.27761C22.1398 3.28956 22.1516 3.30201 22.1626 3.31496C22.1776 3.33734 22.1908 3.36039 22.2025 3.38442C22.2155 3.42041 22.2252 3.4571 22.2323 3.49457C22.2362 3.54268 22.2357 3.59079 22.2313 3.63874C22.2211 3.69526 22.2058 3.75025 22.1856 3.80409C22.1617 3.85538 22.1338 3.90485 22.101 3.9511C22.0976 3.95564 22.0917 3.96339 22.0865 3.97011C22.0814 3.97617 22.0762 3.98223 22.071 3.98812C22.0519 4.00952 22.0324 4.03054 22.0115 4.05021Z" fill="black"/>
</svg>
