<svg width="41" height="41" viewBox="0 0 41 41" fill="none" xmlns="http://www.w3.org/2000/svg">
<path d="M20.4999 10.2498C23.3303 10.2498 25.6248 7.95527 25.6248 5.12488C25.6248 2.29449 23.3303 0 20.4999 0C17.6695 0 15.375 2.29449 15.375 5.12488C15.375 7.95527 17.6695 10.2498 20.4999 10.2498Z" fill="#EB8E8E"/>
<path d="M28.1768 24.1791L27.0134 15.1183C26.8827 13.8038 25.786 12.8121 24.4664 12.8121H23.0621C22.7213 12.8121 22.3959 12.9479 22.155 13.1862L20.4997 14.8416L18.8444 13.1862C18.6035 12.9479 18.2781 12.8121 17.9373 12.8121H16.5356C15.2134 12.8121 14.1167 13.8038 13.9885 15.085L12.8226 24.1817C12.7765 24.5455 12.8893 24.9145 13.1327 25.1887C13.3761 25.4655 13.7246 25.6243 14.0936 25.6243H15.4773L16.5484 38.6928C16.6765 40.0047 17.7758 40.999 19.098 40.999H21.9039C23.2261 40.999 24.3229 40.0047 24.4561 38.6697L25.5246 25.6243H26.9058C27.2748 25.6243 27.6233 25.4655 27.8667 25.1887C28.1127 24.9145 28.2255 24.5455 28.1768 24.1791Z" fill="#EB8E8E"/>
<path d="M33.3114 10.2498C36.1418 10.2498 38.4363 7.95527 38.4363 5.12488C38.4363 2.29449 36.1418 0 33.3114 0C30.481 0 28.1865 2.29449 28.1865 5.12488C28.1865 7.95527 30.481 10.2498 33.3114 10.2498Z" fill="#EB8E8E"/>
<path d="M7.68738 0C4.86101 0 2.5625 2.29851 2.5625 5.12488C2.5625 7.95125 4.86101 10.2498 7.68738 10.2498C10.5112 10.2498 12.8123 7.95125 12.8123 5.12488C12.8123 2.29851 10.5112 0 7.68738 0Z" fill="#EB8E8E"/>
<path d="M40.9892 24.1791L39.8259 15.1209C39.6952 13.8038 38.601 12.8121 37.2788 12.8121H35.8746C35.5338 12.8121 35.2084 12.9479 34.9675 13.1862L33.3121 14.8416L31.6568 13.1862C31.4159 12.9479 31.0905 12.8121 30.7523 12.8121H29.3481C29.1892 12.8121 29.0457 12.8685 28.8945 12.8967C29.2251 13.4809 29.4839 14.1139 29.5607 14.8236L30.7215 23.8537C30.865 24.953 30.5216 26.0599 29.7837 26.8927C29.4352 27.2925 28.9893 27.5744 28.5127 27.7947L29.3634 36.1303C29.4941 37.4449 30.5908 38.4365 31.9131 38.4365H34.7189C36.0411 38.4365 37.1379 37.4423 37.2711 36.1073L38.3371 25.6243H39.7182C40.0872 25.6243 40.4357 25.4655 40.6792 25.1887C40.9252 24.9145 41.0379 24.5455 40.9892 24.1791Z" fill="#EB8E8E"/>
<path d="M11.2081 26.8799C10.4803 26.0574 10.1421 24.953 10.2805 23.8588L11.4464 14.7596C11.513 14.078 11.7641 13.463 12.0844 12.8941C11.9409 12.8685 11.8051 12.8121 11.6539 12.8121H10.2497C9.90892 12.8121 9.58349 12.9479 9.34262 13.1862L7.68728 14.8416L6.03195 13.1862C5.79108 12.9479 5.46565 12.8121 5.1274 12.8121H3.72311C2.40089 12.8121 1.30416 13.8038 1.17604 15.085L0.010131 24.1817C-0.0359929 24.5455 0.0767545 24.9145 0.320186 25.1887C0.563618 25.4655 0.914672 25.6243 1.2811 25.6243H2.66482L3.73592 36.1303C3.86404 37.4423 4.96333 38.4365 6.28555 38.4365H9.09142C10.4136 38.4365 11.5104 37.4423 11.6436 36.1073L12.4943 27.7922C12.0152 27.5692 11.5668 27.2848 11.2081 26.8799Z" fill="#EB8E8E"/>
</svg>
