<svg width="450" height="332" viewBox="0 0 450 332" fill="none" xmlns="http://www.w3.org/2000/svg">
<path opacity="0.25" d="M47 4.99988C47 2.23846 49.2386 -0.00012207 52 -0.00012207H379V332H52C49.2386 332 47 329.761 47 327V4.99988Z" fill="url(#paint0_linear)"/>
<mask id="mask0" mask-type="alpha" maskUnits="userSpaceOnUse" x="0" y="25" width="451" height="302">
<g opacity="0.14">
<path d="M326.469 91.2877C333.094 86.7185 342.233 84.3196 353.999 84.3196C360.395 84.3196 366.792 85.4619 372.961 87.6323C379.129 89.9169 384.612 92.2015 389.296 94.8288C394.893 97.913 400.376 101.226 405.63 104.881L441.727 59.5317C436.929 55.3052 430.989 51.1929 423.907 47.0807C416.711 42.9684 409.172 39.4273 401.061 36.3431C392.951 33.2589 384.612 30.7458 376.045 28.8039C367.478 26.862 359.482 25.8339 351.828 25.8339C337.778 25.8339 324.984 28.0043 313.333 32.345C301.681 36.6858 291.743 42.7399 283.519 50.3934C275.294 58.161 268.897 67.1851 264.442 77.6943C259.987 88.2034 257.703 99.5122 257.703 111.506C257.703 123.272 259.759 133.667 263.757 142.577C264.785 144.861 265.927 147.032 267.184 149.088H372.732C368.848 147.489 364.85 145.775 360.624 144.176C354.798 142.234 349.087 140.064 343.832 137.893C338.463 135.609 333.78 133.21 329.782 130.583C325.67 127.955 322.471 124.985 320.072 121.787C317.673 118.589 316.531 115.047 316.531 111.049C316.645 102.596 319.958 95.9711 326.469 91.2877Z" fill="white"/>
<path d="M445.839 209.059C442.869 200.492 437.957 192.495 430.875 185.071C423.907 177.646 414.655 170.678 403.117 164.052C401.29 163.024 399.234 161.882 397.292 160.854L351.028 204.033C356.397 206.317 361.195 208.602 365.307 210.658C372.047 214.199 377.301 217.398 381.071 220.482C384.841 223.566 387.468 226.422 389.067 229.049C390.552 231.676 391.352 234.189 391.352 236.36C391.352 242.3 390.095 247.097 387.582 251.095C385.069 254.979 381.871 258.178 377.873 260.576C373.989 262.975 369.648 264.689 364.85 265.831C360.053 266.973 355.369 267.544 350.572 267.544C344.974 267.544 339.034 266.402 332.866 264.232C326.698 261.947 320.758 259.206 315.16 256.007C310.82 253.494 306.936 250.981 303.395 248.354L259.302 289.477C265.128 295.074 271.867 300.214 279.406 305.012H278.949C289.573 311.751 300.996 316.892 312.99 320.547C324.984 324.203 337.549 326.03 350.343 326.03C364.622 326.03 377.873 323.746 390.095 319.062C402.318 314.493 412.827 308.096 421.623 300.1C430.418 292.104 437.386 282.623 442.412 271.771C447.439 260.805 449.952 249.268 449.952 236.931C450.294 226.879 448.809 217.512 445.839 209.059Z" fill="white"/>
<path d="M141.188 156.741L156.838 215.113H199.56V232.247C199.56 246.755 188.936 260.005 175 264.003C174.886 264.003 174.886 264.003 174.772 264.117C166.319 266.516 157.98 267.659 149.527 267.659C136.962 267.659 125.082 265.26 114.001 260.462C102.921 255.665 93.2116 249.153 84.987 240.929C76.7625 232.704 70.2514 222.995 65.4537 211.914C60.6561 200.834 58.2573 188.954 58.2573 176.389C58.2573 163.824 60.6561 151.829 65.4537 140.635C70.2514 129.44 76.7625 119.617 84.987 111.164C93.2116 102.711 102.921 96.1995 114.001 91.4019C125.082 86.6042 136.962 84.2054 149.527 84.2054C161.521 84.2054 173.515 86.9469 185.509 92.43C197.389 97.913 208.584 105.566 218.979 115.39L258.959 73.3536C243.538 57.9325 226.404 46.1668 207.67 38.0565C188.936 29.9462 169.517 25.8339 149.641 25.8339C130.565 25.8339 112.06 29.375 94.1254 36.5715C76.1913 43.768 60.3134 53.8202 46.3773 66.8425C32.5555 79.8647 21.2468 95.7426 12.7938 114.362C4.22652 132.982 0 153.657 0 176.389C0 195.465 3.54114 213.971 10.5092 231.905C17.4772 249.839 27.5294 265.717 40.5516 279.653C53.5738 293.475 69.3375 304.783 87.8428 313.236C106.348 321.804 126.909 326.03 149.641 326.03C170.317 326.03 189.393 322.261 206.528 314.721C222.863 307.525 238.626 297.244 253.933 284.108C254.733 283.422 389.296 156.741 389.296 156.741C389.296 156.741 389.296 156.741 389.181 156.741H141.188Z" fill="white"/>
</g>
</mask>
<g mask="url(#mask0)">
<path d="M50 5.9999C50 3.23848 52.2386 0.999908 55 0.999908H379V332H55C52.2386 332 50 329.761 50 327V5.9999Z" fill="white"/>
</g>
<defs>
<linearGradient id="paint0_linear" x1="47" y1="166" x2="379" y2="166" gradientUnits="userSpaceOnUse">
<stop stop-color="#CD1515"/>
<stop offset="1" stop-color="#E6145F"/>
</linearGradient>
</defs>
</svg>
