<svg width="1920" height="1030" viewBox="0 0 1920 1030" fill="none" xmlns="http://www.w3.org/2000/svg">
<path opacity="0.5" d="M309.399 642.839C157.247 705.841 -24.9777 618.866 -55.8401 457.103L-226.114 -435.373C-253.183 -577.255 -150.223 -710.919 -6.13037 -720.955L1594.55 -832.453C1716.29 -840.933 1825.16 -757.074 1848.03 -637.201L2015.98 243.114C2050.23 422.588 1878.81 577.582 1700.3 538.635C1459.18 486.028 1152.57 438.684 918.829 468.861C700.132 497.096 479.082 572.579 309.399 642.839Z" fill="url(#paint0_linear)"/>
<path d="M255.33 544.723C108.367 571.777 -31.4569 464.143 -38.3915 314.871L-70.5197 -376.709C-76.6964 -509.666 26.0795 -622.457 159.037 -628.633L1643.88 -697.614C1776.84 -703.79 1889.63 -601.014 1895.8 -468.057L1927.91 223.078C1934.85 372.499 1805.48 492.674 1656.52 479.093C1453.69 460.601 1181.2 442.009 972.775 450.831C751.922 460.178 464.843 506.154 255.33 544.723Z" fill="url(#paint1_linear)"/>
<mask id="mask0" mask-type="alpha" maskUnits="userSpaceOnUse" x="-71" y="-698" width="2000" height="1247">
<path d="M255.33 544.723C108.367 571.777 -31.4569 464.143 -38.3915 314.871L-70.5197 -376.709C-76.6964 -509.666 26.0795 -622.457 159.037 -628.633L1643.88 -697.614C1776.84 -703.79 1889.63 -601.014 1895.8 -468.057L1927.91 223.078C1934.85 372.499 1805.48 492.674 1656.52 479.093C1453.69 460.601 1181.2 442.009 972.775 450.831C751.922 460.178 464.843 506.154 255.33 544.723Z" fill="url(#paint2_linear)"/>
</mask>
<g mask="url(#mask0)">
<rect y="-733" width="1920" height="1280"/>
</g>
<defs>
<linearGradient id="paint0_linear" x1="1072.66" y1="835.404" x2="742.225" y2="-896.544" gradientUnits="userSpaceOnUse">
<stop stop-color="#CD1515"/>
<stop offset="1" stop-color="#E6145F"/>
</linearGradient>
<linearGradient id="paint1_linear" x1="-70.7842" y1="-74.4902" x2="1928.18" y2="-74.4902" gradientUnits="userSpaceOnUse">
<stop stop-color="#CD1515"/>
<stop offset="1" stop-color="#E6145F"/>
</linearGradient>
<linearGradient id="paint2_linear" x1="-70.7842" y1="-74.4902" x2="1928.18" y2="-74.4902" gradientUnits="userSpaceOnUse">
<stop stop-color="#CD1515"/>
<stop offset="1" stop-color="#E6145F"/>
</linearGradient>
</defs>
</svg>
