<svg width="25" height="34" viewBox="0 0 25 34" fill="none" xmlns="http://www.w3.org/2000/svg">
<path d="M16.8715 19.6917C16.406 19.4587 16.1167 18.9906 16.1167 18.4698V16.7229C16.235 16.5783 16.3595 16.4135 16.4882 16.2316C17.1283 15.3274 17.6414 14.321 18.0144 13.2354C18.7434 12.9012 19.2167 12.1804 19.2167 11.3667V9.3C19.2167 8.80245 19.0307 8.3204 18.7 7.94375L16.8715 19.6917ZM16.8715 19.6917L21.8073 22.1593L16.8715 19.6917ZM16.6477 20.1388L16.648 20.1389L21.5836 22.6065C21.5836 22.6065 21.5837 22.6065 21.5837 22.6065C23.0031 23.3165 23.8834 24.7409 23.8834 26.3278V27.9C23.8834 28.3169 23.6255 28.8522 23.0183 29.4545C22.4225 30.0453 21.5492 30.64 20.4708 31.171C18.3151 32.2324 15.4195 33 12.5 33C9.83473 33 6.93735 32.2344 4.71181 31.1686C3.5993 30.6358 2.67714 30.0386 2.04153 29.4443C1.3897 28.8348 1.1167 28.3026 1.1167 27.9V26.227C1.1167 24.703 1.94726 23.3037 3.28557 22.5734L7.89467 20.0594L7.89504 20.0592C8.49374 19.732 8.8667 19.1051 8.8667 18.4217V16.7121V16.543L8.76402 16.4086C8.4368 15.9802 7.49121 14.6308 7.04159 12.8506L7.00051 12.6879L6.86962 12.5829C6.49875 12.2855 6.28337 11.8419 6.28337 11.3667V9.3C6.28337 8.92729 6.4229 8.56166 6.67578 8.27362L6.80003 8.13209V7.94375V5.1956V5.17021L6.79746 5.14495C6.77252 4.89996 6.67454 3.38803 7.75681 2.15352C8.68672 1.09322 10.2418 0.5 12.5 0.5C14.7582 0.5 16.3133 1.09322 17.2432 2.15395L17.2432 2.15397C18.3255 3.38851 18.2275 4.89999 18.2026 5.14495L18.2 5.17021V5.1956V7.94375V8.13209L18.3243 8.27362C18.5772 8.56166 18.7167 8.92729 18.7167 9.3V11.3667C18.7167 11.9819 18.3601 12.5269 17.806 12.781L17.6112 12.8703L17.5416 13.073C17.1835 14.115 16.6919 15.0786 16.0801 15.9427L16.08 15.9429C15.9567 16.1171 15.8393 16.2724 15.7297 16.4064L15.6167 16.5445V16.7229V18.4698C15.6167 19.18 16.013 19.8211 16.6477 20.1388Z" fill="white" stroke="white"/>
</svg>
