<svg width="89" height="77" viewBox="0 0 89 77" fill="none" xmlns="http://www.w3.org/2000/svg">
<path d="M86.0334 46.9564L49.4287 33.5643C49.0793 33.4367 48.7164 33.3747 48.3568 33.3747C47.5459 33.3747 46.7506 33.6901 46.1554 34.2817C45.296 35.1353 45.0078 36.409 45.4164 37.5498L58.6667 74.5454C59.104 75.7665 60.2504 76.5898 61.5473 76.6145C61.5669 76.6148 61.587 76.6151 61.6066 76.6151C62.8797 76.6151 64.0283 75.8411 64.5037 74.6559L69.4747 62.2806L79.9254 72.8444C80.5359 73.4619 81.3405 73.7709 82.1452 73.7709C82.9389 73.7709 83.7327 73.4703 84.3415 72.8685C85.5673 71.6552 85.5779 69.6783 84.3652 68.4521L73.8492 57.8223L86.1454 52.7774C87.3379 52.2884 88.1073 51.1167 88.0823 49.8282C88.0576 48.5403 87.2434 47.3996 86.0334 46.9564Z" fill="white"/>
<path d="M43.9201 32.047C45.4508 30.5256 47.4834 29.6879 49.6427 29.6879C50.5957 29.6879 51.5324 29.854 52.4312 30.1817L68.9966 36.2425V5.30856C68.9966 2.38919 66.6077 0 63.688 0H5.30856C2.38888 0.000300905 0 2.38919 0 5.30856V52.2323C0 55.1517 2.38888 57.5408 5.30856 57.5408H48.0864L41.9991 40.5445C40.9414 37.5917 41.6955 34.2562 43.9201 32.047Z" fill="white"/>
</svg>
