<svg width="11" height="16" viewBox="0 0 11 16" fill="none" xmlns="http://www.w3.org/2000/svg">
<path fill-rule="evenodd" clip-rule="evenodd" d="M9.06536 1.13111C9.27918 0.956357 9.62583 0.956357 9.83964 1.13111C10.0535 1.30587 10.0535 1.5892 9.83964 1.76396L2.2727 7.9487L9.61284 13.9481C9.82665 14.1228 9.82665 14.4062 9.61284 14.5809C9.39902 14.7557 9.05237 14.7557 8.83856 14.5809L1.08252 8.24162C0.868712 8.06686 0.868712 7.78353 1.08252 7.60877C1.13682 7.56439 1.19969 7.53128 1.26678 7.50944C1.27987 7.49593 1.29405 7.48289 1.30933 7.4704L9.06536 1.13111Z" fill="white"/>
<path d="M9.83964 1.13111L10.1561 0.743973L10.1561 0.743974L9.83964 1.13111ZM9.06536 1.13111L8.74894 0.743973L8.74894 0.743973L9.06536 1.13111ZM9.83964 1.76396L9.52322 1.37682L9.52322 1.37682L9.83964 1.76396ZM2.2727 7.9487L1.95627 8.33584L1.48261 7.9487L1.95627 7.56156L2.2727 7.9487ZM9.61284 13.9481L9.29641 14.3352L9.61284 13.9481ZM9.61284 14.5809L9.92926 14.968H9.92926L9.61284 14.5809ZM8.83856 14.5809L8.52213 14.968L8.52213 14.968L8.83856 14.5809ZM1.08252 8.24162L0.766099 8.62876L0.766099 8.62876L1.08252 8.24162ZM1.08252 7.60877L0.766099 7.22163L1.08252 7.60877ZM1.26678 7.50944L1.62589 7.85735L1.53955 7.94647L1.42155 7.98488L1.26678 7.50944ZM1.30933 7.4704L1.62575 7.85754L1.62575 7.85754L1.30933 7.4704ZM9.52322 1.51825C9.51759 1.51365 9.49376 1.50005 9.4525 1.50005C9.41125 1.50005 9.38742 1.51365 9.38179 1.51825L8.74894 0.743973C9.14686 0.418736 9.75814 0.418736 10.1561 0.743973L9.52322 1.51825ZM9.52322 1.37682C9.52506 1.37531 9.5188 1.38001 9.51201 1.3937C9.50518 1.40747 9.5 1.42612 9.5 1.44754C9.5 1.46895 9.50518 1.4876 9.51201 1.50137C9.5188 1.51506 9.52506 1.51976 9.52322 1.51825L10.1561 0.743974C10.3688 0.91786 10.5 1.17009 10.5 1.44754C10.5 1.72498 10.3688 1.97721 10.1561 2.1511L9.52322 1.37682ZM1.95627 7.56156L9.52322 1.37682L10.1561 2.1511L2.58912 8.33584L1.95627 7.56156ZM2.58912 7.56156L9.92926 13.5609L9.29641 14.3352L1.95627 8.33584L2.58912 7.56156ZM9.92926 13.5609C10.142 13.7348 10.2732 13.987 10.2732 14.2645C10.2732 14.5419 10.142 14.7942 9.92926 14.968L9.29641 14.1938C9.29825 14.1923 9.292 14.197 9.2852 14.2107C9.27837 14.2244 9.27319 14.2431 9.27319 14.2645C9.27319 14.2859 9.27837 14.3045 9.2852 14.3183C9.292 14.332 9.29825 14.3367 9.29641 14.3352L9.92926 13.5609ZM9.92926 14.968C9.53134 15.2933 8.92006 15.2933 8.52213 14.968L9.15498 14.1938C9.16061 14.1984 9.18444 14.212 9.2257 14.212C9.26695 14.212 9.29078 14.1984 9.29641 14.1938L9.92926 14.968ZM8.52213 14.968L0.766099 8.62876L1.39895 7.85448L9.15498 14.1938L8.52213 14.968ZM0.766099 8.62876C0.553352 8.45487 0.422164 8.20264 0.422164 7.9252C0.422164 7.64775 0.553352 7.39552 0.766099 7.22163L1.39895 7.99591C1.3971 7.99742 1.40336 7.99272 1.41016 7.97903C1.41699 7.96526 1.42216 7.94661 1.42216 7.9252C1.42216 7.90378 1.41699 7.88514 1.41016 7.87136C1.40336 7.85767 1.3971 7.85297 1.39895 7.85448L0.766099 8.62876ZM0.766099 7.22163C0.872458 7.1347 0.991296 7.0733 1.112 7.034L1.42155 7.98488C1.40809 7.98927 1.40119 7.99408 1.39895 7.99591L0.766099 7.22163ZM1.62575 7.85754L1.62589 7.85735L0.907661 7.16154C0.934501 7.13384 0.962977 7.10773 0.992909 7.08326L1.62575 7.85754ZM9.38179 1.51825L1.62575 7.85754L0.992907 7.08326L8.74894 0.743973L9.38179 1.51825Z" fill="white"/>
</svg>
