<svg width="444" height="297" viewBox="0 0 444 297" fill="none" xmlns="http://www.w3.org/2000/svg">
<path d="M322.116 64.5835C328.653 60.0752 337.67 57.7083 349.278 57.7083C355.59 57.7083 361.902 58.8354 367.988 60.9768C374.074 63.231 379.484 65.4851 384.105 68.0774C389.627 71.1204 395.037 74.3889 400.222 77.9956L435.837 33.251C431.104 29.0808 425.243 25.0233 418.255 20.9659C411.154 16.9085 403.716 13.4146 395.714 10.3715C387.711 7.32838 379.484 4.84882 371.031 2.93281C362.578 1.01679 354.688 0.00244141 347.137 0.00244141C333.274 0.00244141 320.651 2.14387 309.155 6.42673C297.659 10.7096 287.853 16.6831 279.738 24.2344C271.623 31.8985 265.312 40.8023 260.916 51.1713C256.521 61.5404 254.267 72.6983 254.267 84.5326C254.267 96.1414 256.295 106.398 260.24 115.189C261.254 117.443 262.381 119.584 263.621 121.613H367.762C363.93 120.035 359.986 118.345 355.815 116.767C350.067 114.851 344.432 112.709 339.248 110.568C333.95 108.314 329.329 105.947 325.385 103.355C321.327 100.762 318.171 97.832 315.805 94.6762C313.438 91.5204 312.311 88.0265 312.311 84.0817C312.423 75.7414 315.692 69.2044 322.116 64.5835Z" fill="#F6F7F9"/>
<path d="M439.895 180.784C436.964 172.331 432.118 164.442 425.13 157.116C418.255 149.79 409.126 142.915 397.742 136.378C395.939 135.363 393.91 134.236 391.994 133.222L346.348 175.825C351.645 178.079 356.379 180.333 360.436 182.362C367.086 185.856 372.271 189.012 375.99 192.055C379.709 195.098 382.302 197.916 383.879 200.508C385.345 203.1 386.134 205.58 386.134 207.721C386.134 213.582 384.894 218.316 382.414 222.26C379.935 226.092 376.779 229.248 372.834 231.615C369.002 233.982 364.719 235.672 359.986 236.799C355.252 237.927 350.631 238.49 345.897 238.49C340.375 238.49 334.514 237.363 328.428 235.222C322.342 232.967 316.481 230.262 310.958 227.107C306.675 224.627 302.843 222.148 299.349 219.555L255.844 260.13C261.593 265.652 268.242 270.724 275.681 275.458H275.23C285.712 282.108 296.982 287.179 308.817 290.786C320.651 294.393 333.049 296.196 345.672 296.196C359.76 296.196 372.834 293.942 384.894 289.321C396.953 284.813 407.322 278.501 416.001 270.612C424.679 262.722 431.554 253.367 436.513 242.66C441.473 231.84 443.952 220.457 443.952 208.285C444.29 198.366 442.825 189.125 439.895 180.784Z" fill="#F6F7F9"/>
<path d="M139.306 129.164L154.746 186.758H196.899V203.664C196.899 217.977 186.417 231.051 172.667 234.996C172.554 234.996 172.554 234.996 172.441 235.109C164.101 237.476 155.874 238.603 147.533 238.603C135.135 238.603 123.414 236.236 112.481 231.502C101.549 226.769 91.9688 220.344 83.8539 212.229C75.739 204.115 69.3147 194.534 64.581 183.602C59.8473 172.669 57.4805 160.948 57.4805 148.55C57.4805 136.152 59.8473 124.318 64.581 113.273C69.3147 102.228 75.739 92.5347 83.8539 84.1944C91.9688 75.8541 101.549 69.4298 112.481 64.6962C123.414 59.9625 135.135 57.5956 147.533 57.5956C159.367 57.5956 171.202 60.3006 183.036 65.7105C194.757 71.1205 205.803 78.6718 216.059 88.3646L255.506 46.8885C240.291 31.673 223.385 20.0643 204.901 12.0621C186.417 4.05988 167.257 0.00244141 147.646 0.00244141C128.824 0.00244141 110.565 3.49635 92.8704 10.5969C75.1754 17.6974 59.5092 27.6156 45.759 40.4642C32.1215 53.3128 20.9635 68.979 12.6232 87.3502C4.17017 105.721 0 126.121 0 148.55C0 167.372 3.49393 185.631 10.369 203.326C17.2442 221.021 27.1623 236.687 40.0109 250.437C52.8595 264.075 68.413 275.232 86.6715 283.573C104.93 292.026 125.217 296.196 147.646 296.196C168.046 296.196 186.868 292.477 203.774 285.038C219.891 277.937 235.445 267.794 250.547 254.833C251.336 254.156 384.105 129.164 384.105 129.164C384.105 129.164 384.105 129.164 383.992 129.164H139.306Z" fill="#F6F7F9"/>
</svg>
