<svg width="20" height="20" viewBox="0 0 12 11" fill="none" xmlns="http://www.w3.org/2000/svg">
<path d="M11.4304 8.4171L7.30694 0.83706C6.64443 -0.278279 5.02943 -0.279761 4.36603 0.83706L0.242736 8.4171C-0.434524 9.55679 0.385433 11 1.71285 11H9.95998C11.2863 11 12.1077 9.55796 11.4304 8.4171ZM5.83648 9.63207C5.45944 9.63207 5.15252 9.32516 5.15252 8.94811C5.15252 8.57106 5.45944 8.26415 5.83648 8.26415C6.21353 8.26415 6.52045 8.57106 6.52045 8.94811C6.52045 9.32516 6.21353 9.63207 5.83648 9.63207ZM6.52045 6.89622C6.52045 7.27327 6.21353 7.58018 5.83648 7.58018C5.45944 7.58018 5.15252 7.27327 5.15252 6.89622V3.47641C5.15252 3.09936 5.45944 2.79244 5.83648 2.79244C6.21353 2.79244 6.52045 3.09936 6.52045 3.47641V6.89622Z" fill="#FF7257"/>
</svg>
