<svg width="13" height="11" viewBox="0 0 13 11" fill="none" xmlns="http://www.w3.org/2000/svg">
<path d="M12.7652 1.89354L11.6245 0.752912C11.4681 0.596394 11.2779 0.518106 11.0543 0.518106C10.8306 0.518106 10.6403 0.596394 10.4839 0.752912L4.98193 6.26324L2.51611 3.78902C2.35954 3.63244 2.16944 3.55424 1.94586 3.55424C1.72213 3.55424 1.53203 3.63244 1.37546 3.78902L0.234834 4.92967C0.0782586 5.08622 0 5.27637 0 5.50007C0 5.72359 0.0782586 5.91392 0.234834 6.07044L3.27091 9.10646L4.41162 10.2471C4.56811 10.4037 4.75826 10.4819 4.98193 10.4819C5.20552 10.4819 5.39567 10.4035 5.55225 10.2471L6.69293 9.10646L12.7652 3.03425C12.9216 2.87767 13 2.68755 13 2.46385C13.0001 2.24027 12.9216 2.05011 12.7652 1.89354Z" fill="white"/>
</svg>
