<svg width="61" height="72" viewBox="0 0 61 72" fill="none" xmlns="http://www.w3.org/2000/svg">
<g filter="url(#filter0_d)">
<path fill-rule="evenodd" clip-rule="evenodd" d="M15 26.0716C15 17.7611 21.7611 11 30.0716 11C30.0806 11 30.0896 11 30.0986 11C30.1076 11 30.1166 11 30.1256 11C38.4198 11 45.1435 17.7237 45.1435 26.0178C45.1435 26.0499 45.1434 26.0819 45.1432 26.1139C45.1428 26.2172 45.1411 26.321 45.1381 26.4253C45.0996 27.8684 44.8576 29.2608 44.4397 30.5748C41.6608 40.2944 31.5762 51.6144 31.0814 52.1655C30.543 52.7652 29.6013 52.7662 29.0619 52.1655C28.4876 51.526 15 36.3851 15 26.0716Z" fill="white"/>
<path d="M37.5486 25.055L37.7952 22.6933L35.6254 21.7278C35.5545 21.6963 35.4978 21.6396 35.4663 21.5689L34.5011 19.399L32.1389 19.6459C32.0622 19.6535 31.9854 19.6328 31.923 19.5877L30.0001 18.1941L28.0771 19.5877C28.0146 19.6328 27.9378 19.6535 27.8612 19.6459L25.4989 19.399L24.5337 21.5689C24.5023 21.6396 24.4457 21.6963 24.3748 21.7275L22.2049 22.6933L22.4515 25.055C22.4595 25.1317 22.4388 25.2087 22.3936 25.2712L21 27.1942L22.3936 29.1171C22.4388 29.1796 22.4595 29.2566 22.4515 29.3333L22.2049 31.6949L24.3748 32.6604C24.4455 32.6919 24.5022 32.7486 24.5337 32.8195L25.4989 34.9893L27.8612 34.7424C27.8718 34.7424 27.8828 34.7408 27.8924 34.7408C27.9584 34.7408 28.0226 34.7617 28.0759 34.8006L30.0001 36.1941L31.923 34.8006C31.9854 34.7553 32.0622 34.7345 32.1389 34.7424L34.5011 34.9893L35.4663 32.8195C35.4978 32.7486 35.5545 32.6921 35.6254 32.6607L37.7952 31.6949L37.5486 29.3333C37.5405 29.2566 37.5612 29.1796 37.6065 29.1171L39 27.1942L37.6065 25.2712C37.5612 25.2087 37.5405 25.1317 37.5486 25.055ZM34.539 24.9748L28.344 31.17C28.2218 31.292 28.0238 31.292 27.9016 31.17L25.2451 28.5135C25.1863 28.4549 25.1533 28.3751 25.1533 28.292C25.1533 28.2089 25.1863 28.1291 25.2451 28.0705L26.1306 27.1882C26.2527 27.0664 26.4504 27.0664 26.5724 27.1882L28.1228 28.7354L33.2111 23.6471C33.3333 23.5248 33.5313 23.5248 33.6535 23.6471L34.539 24.5324C34.6612 24.6546 34.6612 24.8528 34.539 24.9748Z" fill="#969BA2"/>
</g>
<defs>
<filter id="filter0_d" x="0" y="0" width="60.1435" height="71.6157" filterUnits="userSpaceOnUse" color-interpolation-filters="sRGB">
<feFlood flood-opacity="0" result="BackgroundImageFix"/>
<feColorMatrix in="SourceAlpha" type="matrix" values="0 0 0 0 0 0 0 0 0 0 0 0 0 0 0 0 0 0 127 0"/>
<feOffset dy="4"/>
<feGaussianBlur stdDeviation="7.5"/>
<feColorMatrix type="matrix" values="0 0 0 0 0.311545 0 0 0 0 0.331922 0 0 0 0 0.404167 0 0 0 0.1 0"/>
<feBlend mode="normal" in2="BackgroundImageFix" result="effect1_dropShadow"/>
<feBlend mode="normal" in="SourceGraphic" in2="effect1_dropShadow" result="shape"/>
</filter>
</defs>
</svg>
