<svg width="42" height="35" viewBox="0 0 42 35" fill="none" xmlns="http://www.w3.org/2000/svg">
<path d="M28 5.55024C27.9021 5.45144 27.7803 5.37998 27.6489 5.33852L19.7312 2.85249C16.565 1.85826 14.505 3.59265 13.9501 4.14932C13.6264 4.47308 13.3785 4.81449 13.2514 5.11179L9.72443 13.408C9.52241 13.8826 9.59122 14.5151 9.90793 15.1459C10.3614 16.0466 11.1783 16.6959 12.1549 16.9297C13.2479 17.1917 14.3815 16.8362 15.269 15.9496C15.501 15.7175 15.6987 15.4617 15.8151 15.2447L17.0008 13.0454C17.1957 12.681 17.4789 12.3034 17.7771 12.0053C18.7943 10.9872 19.2777 11.453 19.4833 11.6506C21.2574 13.363 30.5583 22.7036 30.5583 22.7036C30.8892 23.0345 30.8204 23.6617 30.4066 24.0746C29.9937 24.4866 29.3656 24.5571 29.0357 24.2281L26.4226 21.6159C26.0856 21.278 25.5422 21.278 25.2052 21.6159C24.8682 21.9502 24.8682 22.4963 25.2052 22.8324L27.8182 25.4464C28.1482 25.7754 28.0794 26.4027 27.6665 26.8147C27.2536 27.2284 26.6246 27.2972 26.2965 26.9682L23.6825 24.356C23.3455 24.019 22.8003 24.019 22.4651 24.356C22.1281 24.6903 22.1281 25.2364 22.4651 25.5734L25.0781 28.1865C25.4081 28.5164 25.3366 29.1437 24.9246 29.5565C24.5127 29.9685 23.8854 30.0391 23.5546 29.7083L20.9415 27.0961C20.6063 26.76 20.0602 26.76 19.7241 27.0961C19.3889 27.4322 19.3889 27.9783 19.7241 28.3126L22.3372 30.9266C22.668 31.2574 22.5974 31.8846 22.1854 32.2975C21.7708 32.7104 21.1436 32.7801 20.8145 32.4501L17.6333 29.2663C18.0876 28.5835 17.9641 27.5928 17.2901 26.9161C16.535 26.1618 15.3731 26.0921 14.7009 26.7661C15.3731 26.093 15.307 24.9329 14.55 24.1769C13.7931 23.4217 12.6339 23.352 11.9617 24.0243C12.6339 23.352 12.566 22.1928 11.8082 21.4377C11.053 20.6808 9.89381 20.612 9.21982 21.2842C9.89381 20.612 9.82412 19.4528 9.06808 18.6949C8.36056 17.9874 7.30634 17.8913 6.62087 18.4303L1.46974 13.2792C1.13362 12.9422 0.587542 12.9422 0.251425 13.2792C-0.0838085 13.6144 -0.0838085 14.1605 0.251425 14.4975L5.38933 19.6345L3.86578 21.158C3.19354 21.8294 3.26147 22.9886 4.01928 23.7464C4.77444 24.5016 5.93364 24.5712 6.60676 23.8981C5.93364 24.5712 6.00245 25.7296 6.75938 26.4865C7.51453 27.2408 8.67462 27.3122 9.34774 26.6391C8.67462 27.3122 8.74255 28.4705 9.49947 29.2266C10.2564 29.9835 11.4156 30.0523 12.0878 29.3801C11.4156 30.0514 11.4835 31.2098 12.2405 31.9676C12.9965 32.7227 14.1548 32.7924 14.8288 32.1193L16.4379 30.5111L19.5971 33.6693C20.6054 34.6777 22.3107 34.6071 23.4029 33.5167C23.9348 32.9847 24.2189 32.3054 24.2586 31.6332C24.9308 31.5935 25.611 31.3086 26.1421 30.7757C26.6749 30.2438 26.9608 29.5645 27.0013 28.8922C27.6727 28.8525 28.3502 28.5685 28.8848 28.0356C29.4168 27.5028 29.7017 26.8244 29.7405 26.1513C30.4137 26.1124 31.093 25.8284 31.6258 25.2938C32.7162 24.2034 32.7832 22.4954 31.7775 21.4889L30.4454 20.1559L35.915 14.6871C36.2511 14.3519 36.2511 13.8058 35.915 13.4697L28 5.55024Z" fill="white"/>
<path d="M40.9629 7.47506L33.9927 0.504836C33.3204 -0.168279 32.2291 -0.168279 31.556 0.504836L29.1194 2.93969C28.4472 3.61193 28.4472 4.7032 29.1194 5.37543L36.0905 12.3474C36.7636 13.0196 37.8549 13.0196 38.5271 12.3474L40.9629 9.91168C41.6342 9.23856 41.6342 8.14729 40.9629 7.47506ZM37.3044 11.025C36.5246 11.025 35.8911 10.3925 35.8911 9.61173C35.8911 8.83099 36.5246 8.19757 37.3044 8.19757C38.0852 8.19757 38.7186 8.83011 38.7186 9.61173C38.7177 10.3916 38.0852 11.025 37.3044 11.025Z" fill="white"/>
</svg>
