<svg width="21" height="27" viewBox="0 0 21 27" fill="none" xmlns="http://www.w3.org/2000/svg">
<path d="M20.6489 1.24911C14.692 -3.02896 8.73613 5.29109 2.77932 2.39752V1.78199C2.77932 1.01753 2.15683 0.397329 1.3896 0.397329C0.622382 0.397329 0 1.01753 0 1.78199V25.6154C0 26.3798 0.622382 27 1.3896 27C2.15683 27 2.77932 26.3798 2.77932 25.6154V15.5186C8.44116 18.2679 14.1031 10.888 19.7659 13.8249C20.0273 13.961 20.3414 13.952 20.5937 13.7987C20.8462 13.6464 21 13.3741 21 13.0793C21 9.3638 21 5.64807 21 1.93152C20.9999 1.66208 20.8686 1.40682 20.6489 1.24911Z" fill="url(#paint0_linear)"/>
<defs>
<linearGradient id="paint0_linear" x1="3.91156e-08" y1="13.5" x2="21" y2="13.5" gradientUnits="userSpaceOnUse">
<stop stop-color="#CD1515"/>
<stop offset="1" stop-color="#E6145F"/>
</linearGradient>
</defs>
</svg>
