<svg width="19" height="15" viewBox="0 0 19 15" fill="none" xmlns="http://www.w3.org/2000/svg">
<path d="M11.2125 10.1309C12.361 9.64669 13.2676 8.98763 13.932 8.15343C14.5963 7.31942 14.9285 6.41117 14.9285 5.42865C14.9285 4.44609 14.5963 3.53777 13.9318 2.70372C13.2675 1.86967 12.361 1.21054 11.2123 0.726241C10.0637 0.242019 8.81439 0 7.46421 0C6.11415 0 4.86484 0.242167 3.71614 0.726241C2.56754 1.2105 1.661 1.86964 0.996669 2.70372C0.33226 3.53792 0 4.44609 0 5.42869C0 6.26976 0.251303 7.06177 0.753128 7.80394C1.25492 8.54596 1.94413 9.17164 2.82055 9.68048C2.74992 9.85027 2.67747 10.0056 2.60323 10.1471C2.52896 10.2885 2.44069 10.4244 2.33811 10.5553C2.23562 10.6862 2.15618 10.7886 2.09959 10.8626C2.04303 10.9368 1.95115 11.0413 1.82385 11.1754C1.69658 11.3097 1.61525 11.398 1.57997 11.4403C1.57997 11.4333 1.56582 11.4493 1.53753 11.4881C1.50919 11.527 1.4933 11.5446 1.48981 11.5413C1.48624 11.5375 1.47209 11.5551 1.44736 11.594C1.42263 11.6329 1.41022 11.6524 1.41022 11.6524L1.38367 11.7052C1.3732 11.7266 1.36599 11.7474 1.3625 11.7688C1.35894 11.7898 1.35715 11.813 1.35715 11.8376C1.35715 11.8623 1.36064 11.8852 1.36785 11.9065C1.382 11.9982 1.42263 12.0723 1.48977 12.1292C1.55687 12.1856 1.62925 12.2138 1.70709 12.2138H1.73892C2.09227 12.1643 2.39627 12.1078 2.65069 12.0441C3.73924 11.7615 4.72183 11.3089 5.59829 10.687C6.2344 10.8001 6.85644 10.8566 7.46429 10.8566C8.81446 10.8571 10.0639 10.6151 11.2125 10.1309Z" fill="black"/>
<path d="M18.2471 10.523C18.7491 9.78442 19 8.99126 19 8.14295C19 7.27344 18.7346 6.46008 18.2046 5.70383C17.6744 4.94766 16.9534 4.31845 16.0416 3.81659C16.2041 4.34668 16.2854 4.88386 16.2854 5.42824C16.2854 6.37533 16.0489 7.27303 15.575 8.12134C15.1014 8.96939 14.4228 9.71858 13.5393 10.369C12.7193 10.9627 11.7863 11.4185 10.7401 11.7367C9.69414 12.0547 8.602 12.2138 7.46395 12.2138C7.25197 12.2138 6.94092 12.1998 6.53101 12.1716C7.9517 13.1044 9.61991 13.5711 11.5354 13.5711C12.1433 13.5711 12.7653 13.5144 13.4015 13.4013C14.2779 14.0236 15.2606 14.4757 16.349 14.7586C16.6035 14.8224 16.9075 14.8788 17.2609 14.9283C17.3457 14.9354 17.4236 14.9106 17.4942 14.854C17.5649 14.7975 17.6109 14.72 17.632 14.6211C17.6287 14.5787 17.632 14.5554 17.6427 14.552C17.6531 14.5487 17.6513 14.5256 17.6373 14.4832C17.6233 14.4407 17.6162 14.4195 17.6162 14.4195L17.5898 14.3667C17.5824 14.3527 17.5705 14.3331 17.5527 14.3085C17.535 14.284 17.5209 14.266 17.5102 14.2555C17.4998 14.2449 17.484 14.2271 17.4627 14.2026C17.4416 14.1781 17.4274 14.162 17.4202 14.1549C17.3849 14.1125 17.3037 14.0242 17.1765 13.8898C17.0491 13.7557 16.9574 13.6514 16.9009 13.5772C16.8443 13.503 16.7647 13.4006 16.6623 13.2696C16.5599 13.139 16.4714 13.0029 16.3972 12.8615C16.323 12.7201 16.2505 12.5646 16.1798 12.395C17.0563 11.8857 17.7454 11.2619 18.2471 10.523Z" fill="black"/>
</svg>
