<svg width="19" height="21" viewBox="0 0 19 21" fill="none" xmlns="http://www.w3.org/2000/svg">
<path d="M17.9804 8.49615C17.7531 7.95023 17.5532 7.39458 17.3049 6.85525C17.0899 6.38812 16.729 6.10988 16.322 5.87218C16.0895 5.7365 15.8291 5.64863 15.5812 5.55279C15.5055 5.52354 15.457 5.43358 15.4729 5.35403C15.5134 5.15073 15.5586 4.93586 15.5877 4.71891C15.6053 4.5869 15.5724 4.44888 15.5707 4.31349C15.5686 4.12972 15.5703 3.94587 15.5778 3.76228C15.5909 3.44419 15.5087 3.14416 15.4323 2.83948C15.3833 2.6441 15.4191 2.42596 15.3617 2.23462C15.3022 2.03571 15.3733 1.79465 15.183 1.63606C15.1787 1.63253 15.1764 1.6237 15.177 1.61769C15.2074 1.30872 14.9794 1.09263 14.8753 0.835391C14.7696 0.574338 14.596 0.325354 14.3032 0.2007C14.1994 0.156567 14.1045 0.0917898 13.9977 0.0215007C13.9299 -0.0231731 13.8533 0.00471199 13.8267 0.08145C13.735 0.346754 13.6424 0.587092 13.5881 0.83568C13.5345 1.08236 13.404 1.30576 13.4441 1.58858C13.4729 1.79098 13.3474 2.01265 13.3043 2.22856C13.2815 2.34277 13.2696 2.45903 13.2574 2.57619C13.249 2.65689 13.1977 2.67292 13.1472 2.60926C13.0259 2.4564 12.9192 2.30278 12.7732 2.21282C12.5218 2.05805 12.335 1.82772 12.0888 1.6816C11.7043 1.45347 11.3135 1.21624 10.8949 1.07072C10.48 0.92636 10.0293 0.873905 9.58968 0.816837C9.47396 0.80185 9.35035 0.84728 9.21114 0.890657C9.13369 0.914759 9.10032 0.988399 9.13779 1.06042C9.26727 1.30929 9.38339 1.54167 9.51453 1.76522C9.73167 2.13551 9.95716 2.50136 10.1923 2.86045C10.3256 3.06403 10.4874 3.24878 10.633 3.44459C10.7826 3.64613 10.9208 3.85663 11.0776 4.05226C11.1863 4.18765 11.3206 4.30215 11.4385 4.43044C11.5684 4.57188 11.7015 4.71152 11.8178 4.86377C12.1363 5.28093 12.26 5.77101 12.3263 6.28033C12.3288 6.29971 12.3318 6.32057 12.3406 6.33765C12.5076 6.65811 12.3321 6.863 12.1054 7.05585C12.0735 7.08305 12.0709 7.1439 12.0531 7.18861C12.0227 7.26474 12.0058 7.35192 11.9572 7.4141C11.8069 7.6062 11.7788 7.82817 11.7601 8.05939C11.7485 8.2027 11.706 8.34307 11.6856 8.48609C11.6824 8.50904 11.6842 8.53271 11.6875 8.55458C11.6933 8.59209 11.6683 8.67985 11.6346 8.75374C11.5095 9.02877 11.4221 9.33111 11.164 9.51651C11.098 9.56381 11.0793 9.58572 11.1312 9.57956C11.1831 9.5734 11.2263 9.57307 11.228 9.5788C11.2296 9.58453 11.169 9.61216 11.093 9.64055C11.0815 9.6448 11.0699 9.64905 11.0583 9.65345C10.9822 9.68184 10.9557 9.7143 10.9991 9.72608C11.0424 9.73786 11.0157 9.76931 10.9391 9.79651C10.871 9.82061 10.8055 9.84381 10.7384 9.86767C10.6619 9.89469 10.6291 9.93133 10.6651 9.94923C10.7011 9.96717 10.6739 9.99585 10.6045 10.0133C10.5351 10.0308 10.4867 10.0629 10.4963 10.0846C10.5061 10.1064 10.4493 10.1366 10.3699 10.1534C10.227 10.1836 10.0839 10.2147 9.93893 10.2279C9.89206 10.2322 9.84166 10.2248 9.79194 10.2107C9.7139 10.1885 9.59001 10.1522 9.50884 10.154C9.03436 10.1641 8.22367 10.3122 7.89561 10.3755C7.81595 10.3909 7.686 10.4107 7.60516 10.4191C7.4952 10.4304 7.3779 10.4425 7.25692 10.455C7.17622 10.4634 7.12109 10.4798 7.13403 10.4919C7.14682 10.5039 7.09479 10.5345 7.01773 10.5602C6.66348 10.6787 6.30263 10.7992 5.9403 10.9203C5.86328 10.9461 5.82152 10.9784 5.84724 10.9925C5.87297 11.0066 5.83283 11.0431 5.75642 11.0707C5.55196 11.1445 5.34733 11.2049 5.18712 11.3249C5.01368 11.4548 4.82093 11.5583 4.64984 11.6954C4.45713 11.8498 4.18887 11.9096 3.9534 12.0106C3.93106 12.0201 3.90872 12.0297 3.87933 12.0425C3.83829 12.0601 3.83771 12.0891 3.87814 12.1072C3.91856 12.1252 3.89842 12.1792 3.83328 12.2277C3.69173 12.333 3.5518 12.4372 3.41039 12.5424C3.34526 12.5909 3.3119 12.6413 3.33585 12.6551C3.35981 12.669 3.32159 12.7117 3.25043 12.7508C3.20252 12.7771 3.15532 12.803 3.10845 12.8289C3.0373 12.868 2.98293 12.9062 2.98686 12.9143C2.99097 12.9224 3.03816 12.921 3.09256 12.9112C3.14678 12.9013 3.14329 12.9389 3.08464 12.995C2.82592 13.2419 2.57575 13.4811 2.32468 13.7193C2.29881 13.7439 2.27132 13.7666 2.23692 13.795C2.18738 13.8358 2.2006 13.8544 2.26603 13.8363C2.33145 13.8184 2.34788 13.8587 2.30364 13.9267C2.17855 14.1184 2.05714 14.3079 1.92704 14.4912C1.84357 14.6086 1.73714 14.7099 1.64247 14.8195C1.63951 14.8231 1.64012 14.8297 1.64142 14.837C1.64304 14.8468 1.6701 14.8499 1.70198 14.8441C1.73387 14.8382 1.72093 14.8865 1.67316 14.9523C1.59394 15.0609 1.51662 15.1672 1.43253 15.2826C1.38476 15.3481 1.39842 15.3733 1.46294 15.3386C1.5275 15.3039 1.55366 15.3363 1.51911 15.4099C1.39168 15.6808 1.25877 15.9161 1.23849 16.2C1.22851 16.3397 1.15502 16.4748 1.08343 16.6259C1.04874 16.6993 1.0527 16.7399 1.08797 16.7146C1.12324 16.6893 1.14089 16.7338 1.12706 16.8138C1.06178 17.1905 0.998154 17.5584 0.935106 17.9223C0.921272 18.0022 0.931287 18.0582 0.957587 18.0472C0.983887 18.0362 0.986841 18.0904 0.964216 18.1685C0.946275 18.23 0.928945 18.2896 0.911724 18.3492C0.889099 18.427 0.894395 18.4841 0.923325 18.4764C0.952435 18.4688 0.951967 18.5245 0.93788 18.6045C0.901132 18.8133 0.92509 19.0346 0.772083 19.2062C0.718114 19.2668 0.691526 19.3009 0.730327 19.3009C0.769128 19.3009 0.761923 19.3542 0.714439 19.4202C0.701505 19.4382 0.688716 19.4561 0.675494 19.4743C0.62801 19.5402 0.615508 19.5849 0.647428 19.5739C0.679349 19.5629 0.707846 19.558 0.711089 19.5628C0.713322 19.566 0.715052 19.5691 0.715196 19.5722C0.71624 19.5916 0.717249 19.6113 0.715052 19.6304C0.674197 19.9825 0.787935 20.2555 1.12324 20.407C1.36639 20.517 1.54188 20.7642 1.85939 20.7341C1.95889 20.7246 2.06914 20.8316 2.17513 20.8839C2.17924 20.8859 2.18543 20.884 2.19203 20.8813C2.20114 20.8778 2.20157 20.8587 2.19307 20.8386C2.18453 20.8184 2.24199 20.8155 2.32154 20.8322C2.37857 20.8443 2.43575 20.8563 2.4935 20.8685C2.57305 20.8853 2.62698 20.8768 2.61434 20.8496C2.60169 20.8225 2.65256 20.8253 2.72959 20.8508C3.39458 21.0702 4.07236 20.9791 4.74452 20.9917C4.82565 20.9932 4.88258 20.9835 4.87184 20.9679C4.86096 20.9522 4.91814 20.9396 4.99945 20.9397C5.23064 20.9402 5.4638 20.941 5.69676 20.9385C5.80509 20.9374 5.914 20.9307 6.02129 20.9162C6.26001 20.884 6.49844 20.8496 6.73567 20.8084C6.99586 20.7633 7.25868 20.8662 7.52691 20.7095C7.68388 20.6178 7.82662 20.5483 7.88192 20.4273C7.91557 20.3535 7.96892 20.268 8.048 20.2493C8.19499 20.2145 8.33392 20.1827 8.46974 20.141C8.66007 20.0825 8.82457 20.0134 8.86485 19.7619C8.89338 19.5833 8.87912 19.4194 8.71714 19.3243C8.70125 19.3151 8.69257 19.2938 8.68655 19.2714C8.67772 19.238 8.60689 19.2048 8.52601 19.1981C8.50807 19.1966 8.4897 19.195 8.47089 19.1933C8.39005 19.1866 8.35831 19.1247 8.40021 19.055C8.42445 19.0148 8.44711 18.9771 8.46884 18.9408C8.51074 18.8713 8.5544 18.8201 8.56644 18.8264C8.57847 18.8328 8.59173 18.8861 8.59583 18.9457C8.59994 19.0052 8.63258 18.9948 8.66847 18.9219C8.68608 18.8862 8.70298 18.8519 8.71934 18.8186C8.75522 18.7458 8.79312 18.6898 8.80386 18.6936C8.81459 18.6974 8.8281 18.7478 8.83387 18.8059C8.83959 18.8639 8.86871 18.85 8.899 18.7746C8.9087 18.7503 8.91842 18.7262 8.92826 18.7015C8.95838 18.6261 8.9872 18.6195 8.99264 18.6866C8.99808 18.7536 9.01822 18.7436 9.05172 18.6695C9.11859 18.5217 9.22328 18.4105 9.38761 18.3407C9.61472 18.2442 9.8333 18.1275 10.0604 18.0307C10.0986 18.0144 10.1806 18.0379 10.2083 18.0712C10.3192 18.2047 10.4136 18.3519 10.5205 18.4892C10.6326 18.6334 10.749 18.7745 10.869 18.9122C11.0217 19.0874 11.1799 19.2578 11.3354 19.4306C11.3442 19.4405 11.352 19.451 11.3601 19.4624C11.3729 19.4806 11.3949 19.4768 11.4092 19.4541C11.4234 19.4315 11.4617 19.4732 11.4947 19.5475C11.5063 19.5735 11.5181 19.6 11.5301 19.6273C11.563 19.7015 11.596 19.721 11.6035 19.6707C11.611 19.6204 11.6543 19.6338 11.7002 19.7006C11.8225 19.8791 11.941 20.052 12.0565 20.2204C12.1024 20.2875 12.1396 20.2998 12.1396 20.2482C12.1396 20.1966 12.1765 20.2094 12.2219 20.2765C12.2898 20.3769 12.3543 20.4722 12.4233 20.5741C12.4689 20.6412 12.4987 20.6442 12.4903 20.5805C12.4818 20.5169 12.4853 20.4578 12.4979 20.4487C12.5106 20.4395 12.5597 20.4852 12.6075 20.5507C12.6347 20.5879 12.6617 20.6251 12.6887 20.6623C12.7365 20.7279 12.7912 20.7647 12.8074 20.7421C12.8241 20.7188 12.8258 20.7076 12.8265 20.6964C12.8269 20.6902 12.8215 20.6836 12.822 20.6775C12.8222 20.6751 12.8253 20.6732 12.8307 20.6695C12.8361 20.6658 12.8938 20.7011 12.9596 20.7486C13.0046 20.7809 13.0502 20.814 13.0972 20.8478C13.163 20.8952 13.2133 20.9041 13.2095 20.8676C13.2057 20.8312 13.2635 20.8267 13.3378 20.8593C13.402 20.8873 13.4632 20.9122 13.5267 20.9222C13.6894 20.9481 13.8651 20.9169 14.0204 20.9614C14.3313 21.0504 14.5915 20.9136 14.7985 20.7489C14.9283 20.6456 15.0499 20.6176 15.1912 20.6049C15.272 20.5975 15.3856 20.5497 15.4446 20.4939C15.5255 20.4171 15.6084 20.3384 15.6867 20.2641C15.7455 20.2083 15.7652 20.1035 15.7288 20.0308C15.6378 19.8494 15.5381 19.6916 15.3433 19.6338C15.2656 19.6107 15.2288 19.5856 15.2662 19.5543C15.3035 19.523 15.2679 19.4975 15.1868 19.4975C15.1641 19.4975 15.1423 19.4975 15.1209 19.4975C15.0398 19.4975 14.974 19.4934 14.9738 19.4883C14.9737 19.4831 15.0056 19.4705 15.0452 19.4599C15.0849 19.4493 15.0574 19.413 14.9838 19.3788C14.9617 19.3686 14.9401 19.3585 14.9185 19.3485C14.8449 19.3144 14.8139 19.2797 14.8493 19.2713C14.8847 19.2628 14.8555 19.2245 14.784 19.1859C14.6492 19.1127 14.514 19.0389 14.3771 18.9677C14.3483 18.9528 14.3173 18.942 14.2807 18.9303C14.2261 18.9128 14.2166 18.8879 14.2591 18.8754C14.3015 18.8631 14.2982 18.835 14.2517 18.8129C14.2053 18.7907 14.212 18.7657 14.267 18.7571C14.322 18.7486 14.3057 18.7166 14.2307 18.6855C14.1676 18.6595 14.105 18.6337 14.0452 18.609C13.9702 18.578 13.9355 18.5177 13.9702 18.4765C14.0014 18.4395 14.0242 18.4114 14.0177 18.3947C14.0004 18.3498 13.9754 18.3081 13.9473 18.2653C13.9026 18.1976 13.8886 18.1442 13.917 18.1454C13.9454 18.1465 13.958 18.1131 13.9455 18.0706C13.9379 18.0448 13.9309 18.0191 13.9255 17.9931C13.8932 17.8348 13.8947 17.6605 13.8259 17.5205C13.7318 17.329 13.7501 17.1807 13.8559 17.0478C13.9064 16.9843 13.9707 16.9611 13.9846 16.9827C13.9987 17.0043 14.0352 16.973 14.0659 16.9128C14.0967 16.8525 14.1293 16.8219 14.1385 16.8444C14.1478 16.8669 14.1978 16.8347 14.2501 16.7727C14.2936 16.7211 14.338 16.6685 14.3831 16.615C14.4354 16.5529 14.487 16.5275 14.498 16.5582C14.5092 16.589 14.5416 16.5522 14.5783 16.4797C14.7622 16.116 15.0729 15.8274 15.1448 15.4126C15.1451 15.4108 15.1487 15.4095 15.1526 15.4083C15.1575 15.4068 15.1791 15.422 15.2007 15.4423C15.2223 15.4625 15.2583 15.4158 15.2811 15.3379C15.4081 14.9014 15.531 14.4786 15.6563 14.0477C15.679 13.9697 15.739 13.8552 15.7866 13.7895C16.0221 13.466 16.0823 13.2468 16.0904 13.1176C16.0956 13.0367 16.0189 12.932 15.9756 12.8632C15.8905 12.7277 15.9088 12.5831 15.8977 12.4415C15.8827 12.2516 15.9037 12.0589 15.9196 11.87C15.9264 11.7892 15.9388 11.7274 15.9561 11.7352C15.9731 11.743 15.9725 11.6842 15.974 11.6031C15.98 11.2552 16.2877 11.1671 16.5495 11.0578C16.6244 11.0264 16.741 10.9783 16.8125 10.9557C16.8576 10.9415 16.9002 10.9243 16.9333 10.8961C17.0266 10.8166 17.095 10.7072 17.1717 10.6086C17.2418 10.5185 17.3264 10.4518 17.4195 10.3829C17.5787 10.2653 17.6933 10.0888 17.8352 9.94592C17.9531 9.82746 18.0751 9.70954 18.2106 9.61299C18.3832 9.49024 18.4201 9.25711 18.2984 9.07103C18.1793 8.88773 18.064 8.69736 17.9804 8.49615Z" fill="black"/>
</svg>
