<svg width="19" height="19" viewBox="0 0 19 19" fill="none" xmlns="http://www.w3.org/2000/svg">
<path d="M5.87128 8C6.35246 8 6.74299 7.64383 6.74299 7.20497V4.10435C6.74299 2.71821 7.97952 1.59006 9.49978 1.59006C11.0196 1.59006 12.2566 2.71821 12.2566 4.10435V7.20497C12.2566 7.64383 12.6471 8 13.1283 8C13.6095 8 14 7.64383 14 7.20497V4.10435C14 1.84129 11.9811 0 9.49978 0C7.01889 0 5 1.84129 5 4.10435V7.20497C4.99956 7.64383 5.39009 8 5.87128 8Z" fill="black"/>
<path d="M18.6843 6H14.4447V7.00164C14.4447 7.88761 13.7283 8.60811 12.8474 8.60811C11.9669 8.60811 11.2501 7.88761 11.2501 7.00164V6H7.79636V7.00164C7.79636 7.88761 7.07998 8.60811 6.19907 8.60811C5.31817 8.60811 4.60179 7.88761 4.60179 7.00164V6H0.315468C0.0950424 6 -0.0411263 6.1747 0.0111848 6.38997L2.80524 17.8353C2.97415 18.4787 3.64701 19 4.30868 19H14.691C15.3531 19 16.0256 18.4783 16.1953 17.8353L18.9889 6.38997C19.0409 6.1743 18.9051 6 18.6843 6Z" fill="black"/>
</svg>
