<svg width="42" height="37" viewBox="0 0 42 37" fill="none" xmlns="http://www.w3.org/2000/svg">
<path d="M10.3233 10.0408C11.5532 9.54779 11.9086 9.24965 11.9086 8.71126C11.9086 8.28041 11.5822 7.77706 10.6622 7.77706C9.84839 7.77706 9.22427 8.09793 9.2187 8.10072C9.15304 8.13575 9.07938 8.15443 9.00641 8.15443C8.82834 8.15443 8.6708 8.04666 8.60549 7.87984L8.38194 7.30839C8.3041 7.10016 8.4222 6.91872 8.57277 6.85364C9.07381 6.63555 10.053 6.46676 10.063 6.46502C10.0788 6.46224 10.1336 6.45052 10.1336 6.38637L10.1368 5.55738C10.1368 5.30774 10.3452 5.10449 10.6012 5.10449H11.0022C11.2579 5.10449 11.4662 5.30762 11.4662 5.5575L11.4652 6.42906C11.4652 6.49588 11.5376 6.52488 11.564 6.53103C12.8001 6.82545 13.5726 7.73089 13.5726 8.87298C13.5726 10.2967 12.3957 10.9401 11.1249 11.423C10.1091 11.8219 9.69468 12.2263 9.69468 12.8194C9.69468 13.4649 10.2816 13.9157 11.1224 13.9157C11.8403 13.9157 12.812 13.4606 12.8216 13.4559C12.8838 13.4265 12.9497 13.4116 13.0175 13.4116C13.2024 13.4116 13.3634 13.5235 13.4278 13.6967L13.6412 14.2746C13.7171 14.4904 13.6003 14.6656 13.4508 14.7435C12.854 15.0543 11.6993 15.2364 11.6479 15.2444C11.6341 15.2464 11.5638 15.2711 11.5638 15.3354V16.2031C11.5638 16.4528 11.3553 16.656 11.0993 16.656H10.6849C10.4288 16.656 10.2203 16.4529 10.2203 16.2031V15.2899C10.2203 15.2045 10.1573 15.197 10.1443 15.1938C8.82753 14.898 8.01641 13.9346 8.01641 12.7249C8.01675 11.4823 8.70677 10.6794 10.3233 10.0408Z" fill="#CD1515"/>
<path d="M10.8833 0C16.8943 0 21.7668 4.87287 21.7668 10.8835C21.7668 16.8943 16.8943 21.7673 10.8833 21.7673C4.87252 21.7673 -0.000112534 16.8943 -0.000112534 10.8835C-0.000112534 4.87287 4.87252 0 10.8833 0ZM10.8833 19.245C15.5013 19.245 19.2446 15.5013 19.2446 10.8837C19.2446 6.266 15.5013 2.52245 10.8833 2.52245C6.26554 2.52245 2.52234 6.266 2.52234 10.8837C2.52234 15.5013 6.26554 19.245 10.8833 19.245Z" fill="#CD1515"/>
<path d="M2.18283 27.2329C4.49717 28.5103 7.68028 29.6913 10.8547 30.1892C13.679 30.6321 18.9923 29.564 18.9923 28.3024C18.9923 27.8243 14.3323 29.4803 11.5135 28.7282C9.35194 28.1516 9.65878 26.1296 10.8345 25.8629C12.0034 25.5976 18.8515 23.0888 21.7766 23.0023C23.1546 22.9615 26.5565 23.4815 28.2026 23.7496C28.7665 23.8413 29.1201 23.8312 29.1554 24.3709C29.3192 26.879 29.642 32.0079 29.818 34.6869C29.8217 34.7435 29.7431 35.5048 29.1149 34.9691C28.4273 34.3828 27.4629 33.7329 26.571 33.9352C25.1716 34.2527 13.065 36.4707 11.3951 36.0825C9.00612 35.5272 2.2435 31.5195 0.946892 30.2738C-1.06281 28.3426 0.499453 26.3038 2.18283 27.2329Z" fill="#CD1515"/>
<path d="M32.5247 23.4596L38.8671 23.1471C39.3567 23.123 39.8568 23.492 39.9785 23.9668L41.1317 34.437C41.2533 34.912 40.9519 35.3161 40.462 35.335L33.4332 35.3343C32.9432 35.3532 32.5118 34.9688 32.4743 34.4799L31.7024 24.3922C31.665 23.9035 32.0351 23.4838 32.5247 23.4596ZM36.2585 33.9472C37.2271 33.9472 38.0121 33.1621 38.0121 32.1937C38.0121 31.2251 37.2269 30.4401 36.2585 30.4401C35.2901 30.4401 34.505 31.2253 34.505 32.1937C34.505 33.1622 35.29 33.9472 36.2585 33.9472Z" fill="#CD1515"/>
</svg>
