<svg width="17" height="13" viewBox="0 0 17 13" fill="none" xmlns="http://www.w3.org/2000/svg">
<path d="M1.56471 3.94823C1.77093 4.09375 2.39257 4.52596 3.42964 5.24462C4.46675 5.96327 5.26125 6.51662 5.81316 6.9047C5.8738 6.94723 6.00263 7.0397 6.19971 7.18223C6.39682 7.32485 6.5606 7.44011 6.69092 7.52802C6.82134 7.6159 6.979 7.71449 7.16407 7.82362C7.34907 7.93266 7.52346 8.01468 7.68721 8.06897C7.85099 8.12371 8.0026 8.15083 8.14207 8.15083H8.15121H8.16039C8.29986 8.15083 8.45153 8.12368 8.61531 8.06897C8.779 8.01468 8.95355 7.93256 9.13839 7.82362C9.32333 7.71436 9.48099 7.61587 9.61141 7.52802C9.74183 7.44011 9.90548 7.32485 10.1027 7.18223C10.2997 7.03958 10.4287 6.94723 10.4893 6.9047C11.0472 6.51662 12.4665 5.53104 14.7468 3.94804C15.1895 3.63886 15.5594 3.2658 15.8566 2.8291C16.1539 2.3926 16.3024 1.93468 16.3024 1.45561C16.3024 1.05527 16.1583 0.712574 15.8702 0.427551C15.5821 0.142464 15.2409 0 14.8468 0H1.45551C0.988547 0 0.629186 0.157663 0.377492 0.472989C0.125831 0.788378 0 1.1826 0 1.65562C0 2.0377 0.16684 2.45174 0.50036 2.89749C0.833848 3.34326 1.18875 3.69354 1.56471 3.94823Z" fill="url(#paint0_linear)"/>
<path d="M15.3926 4.79144C13.4035 6.13772 11.8932 7.18401 10.8623 7.93007C10.5166 8.18469 10.2361 8.38346 10.0208 8.52589C9.8054 8.66842 9.51898 8.81397 9.16108 8.96249C8.80331 9.11123 8.46989 9.18538 8.16052 9.18538H8.15125H8.1421C7.8328 9.18538 7.49918 9.11123 7.14141 8.96249C6.78365 8.81397 6.49703 8.66842 6.28172 8.52589C6.06648 8.38346 5.78595 8.18469 5.44029 7.93007C4.62148 7.32969 3.11438 6.28334 0.918925 4.79144C0.573137 4.56112 0.266861 4.29713 0 4V11.2231C0 11.6236 0.142464 11.9661 0.427551 12.2512C0.712574 12.5363 1.0553 12.6789 1.45561 12.6789H14.8469C15.2472 12.6789 15.5899 12.5363 15.8749 12.2512C16.1601 11.966 16.3025 11.6236 16.3025 11.2231V4C16.0416 4.29098 15.7385 4.55497 15.3926 4.79144Z" fill="url(#paint1_linear)"/>
<defs>
<linearGradient id="paint0_linear" x1="3.03657e-08" y1="4.07541" x2="16.3024" y2="4.07541" gradientUnits="userSpaceOnUse">
<stop stop-color="#CD1515"/>
<stop offset="1" stop-color="#E6145F"/>
</linearGradient>
<linearGradient id="paint1_linear" x1="3.03657e-08" y1="8.33942" x2="16.3025" y2="8.33942" gradientUnits="userSpaceOnUse">
<stop stop-color="#CD1515"/>
<stop offset="1" stop-color="#E6145F"/>
</linearGradient>
</defs>
</svg>
