<svg width="17" height="17" viewBox="0 0 17 17" fill="none" xmlns="http://www.w3.org/2000/svg">
<path d="M16.1148 10.1603C16.2326 9.59207 16.2917 9.03857 16.2917 8.50008C16.2917 7.44495 16.0872 6.43591 15.6775 5.47297C15.2681 4.5101 14.7147 3.68008 14.0174 2.98276C13.3201 2.28544 12.4902 1.73206 11.5273 1.32246C10.5642 0.91313 9.55544 0.708291 8.50016 0.708291C7.96154 0.708291 7.40808 0.76737 6.83993 0.885451C6.07256 0.295163 5.20924 0 4.25002 0C3.07689 0 2.07529 0.414989 1.24516 1.24497C0.41495 2.07518 0 3.07677 0 4.24994C0 5.20916 0.295163 6.07248 0.885374 6.83985C0.767371 7.40796 0.708291 7.96146 0.708291 8.50008C0.708291 9.55509 0.912975 10.5641 1.32246 11.5271C1.7319 12.49 2.28533 13.32 2.98269 14.0175C3.67997 14.7147 4.5101 15.2679 5.47297 15.6776C6.43591 16.0871 7.44495 16.2918 8.50008 16.2918C9.03865 16.2918 9.59211 16.2327 10.1606 16.1146C10.9278 16.705 11.791 17.0003 12.7503 17.0003C13.9233 17.0003 14.9252 16.585 15.7548 15.7551C16.5851 14.9249 17 13.9233 17 12.75C16.9998 11.791 16.7048 10.9278 16.1148 10.1603ZM12.6171 11.8038C12.3738 12.2355 12.0471 12.5804 11.6377 12.8387C11.2281 13.097 10.7762 13.2941 10.2819 13.4308C9.78757 13.5672 9.27113 13.6356 8.73236 13.6356C7.48554 13.6356 6.41203 13.3939 5.51177 12.9105C4.61151 12.427 4.16144 11.8462 4.16144 11.1672C4.16144 10.8353 4.25556 10.5589 4.44373 10.3373C4.63186 10.1159 4.9104 10.0054 5.27933 10.0054C5.49332 10.0054 5.69246 10.0644 5.87691 10.1824C6.06136 10.3004 6.23103 10.4427 6.38606 10.6087C6.54108 10.7749 6.70882 10.9407 6.88963 11.1068C7.07031 11.2729 7.31012 11.4148 7.60893 11.5329C7.90781 11.651 8.24539 11.7101 8.6218 11.7101C9.10138 11.7101 9.48861 11.6162 9.78404 11.4281C10.0791 11.2397 10.2266 11.0017 10.2266 10.7141C10.2266 10.4188 10.1087 10.1975 9.87266 10.05C9.71054 9.94635 9.29714 9.81358 8.63305 9.65135L7.01697 9.25268C6.57431 9.14948 6.19428 9.0297 5.87695 8.89328C5.55961 8.75667 5.26445 8.57796 4.99149 8.35641C4.71862 8.13513 4.512 7.85668 4.37178 7.52081C4.23161 7.18518 4.16152 6.79217 4.16152 6.3421C4.16152 5.80341 4.28514 5.32949 4.53224 4.91985C4.77933 4.51029 5.10787 4.18927 5.51724 3.95687C5.92668 3.72443 6.36757 3.55107 6.83989 3.43671C7.31202 3.32231 7.79904 3.26513 8.30078 3.26513C9.00927 3.26513 9.68042 3.35003 10.3151 3.51971C10.9496 3.68939 11.4735 3.93842 11.8866 4.26677C12.2997 4.59523 12.5063 4.9623 12.5063 5.36807C12.5063 5.69998 12.4013 5.98417 12.1908 6.22022C11.9809 6.45622 11.7023 6.5743 11.3554 6.5743C11.1636 6.5743 10.9866 6.52999 10.8242 6.44145C10.6619 6.35295 10.5145 6.246 10.3814 6.12055C10.2486 5.99518 10.1082 5.87156 9.9607 5.74983C9.81316 5.62811 9.6139 5.52297 9.36332 5.43443C9.11215 5.34589 8.82827 5.30158 8.51101 5.30158C7.44859 5.30158 6.91727 5.58546 6.91727 6.15373C6.91727 6.2791 6.94498 6.38982 7.00026 6.48572C7.05558 6.58163 7.11656 6.65912 7.18285 6.71816C7.2491 6.77728 7.35982 6.83625 7.51484 6.89532C7.66987 6.95444 7.799 6.99697 7.90227 7.02263C8.0055 7.04845 8.16797 7.08718 8.38925 7.13877L9.54036 7.40436C9.90185 7.48561 10.2245 7.57051 10.5088 7.65894C10.793 7.74763 11.0973 7.87296 11.4219 8.03535C11.7465 8.19766 12.0158 8.37835 12.2297 8.57761C12.4438 8.77702 12.6227 9.02946 12.7667 9.33568C12.9107 9.64196 12.9824 9.97958 12.9824 10.3484C12.9824 10.887 12.8609 11.3722 12.6171 11.8038Z" fill="url(#paint0_linear)"/>
<defs>
<linearGradient id="paint0_linear" x1="3.1665e-08" y1="8.50013" x2="17" y2="8.50013" gradientUnits="userSpaceOnUse">
<stop stop-color="#CD1515"/>
<stop offset="1" stop-color="#E6145F"/>
</linearGradient>
</defs>
</svg>
