<svg width="50" height="44" viewBox="0 0 50 44" fill="none" xmlns="http://www.w3.org/2000/svg">
<path d="M47.7402 9.33869C46.4553 8.05406 44.9055 7.41157 43.0896 7.41157H37.334L36.0238 3.91734C35.6982 3.07812 35.1032 2.35427 34.2377 1.74589C33.3726 1.13778 32.4862 0.833496 31.5782 0.833496H18.4223C17.5144 0.833496 16.6279 1.13778 15.7627 1.74589C14.8976 2.35427 14.3025 3.07812 13.977 3.91734L12.6667 7.41157H6.91106C5.09501 7.41157 3.54507 8.05406 2.26018 9.33869C0.975562 10.6234 0.333252 12.1735 0.333252 13.9894V37.0118C0.333252 38.8278 0.975562 40.3781 2.26018 41.6625C3.54507 42.9473 5.0951 43.5898 6.91106 43.5898H43.089C44.9048 43.5898 46.4546 42.9473 47.7396 41.6625C49.0241 40.3781 49.6666 38.8278 49.6666 37.0118V13.9894C49.6669 12.1735 49.0245 10.6234 47.7402 9.33869ZM33.1324 33.6333C30.8798 35.8859 28.1693 37.0125 25.0001 37.0125C21.8308 37.0125 19.1204 35.8859 16.8677 33.6333C14.615 31.381 13.4889 28.6698 13.4889 25.5013C13.4889 22.3318 14.6154 19.6215 16.8677 17.3688C19.1202 15.1161 21.8309 13.9899 25.0001 13.9899C28.1692 13.9899 30.8798 15.1163 33.1324 17.3688C35.385 19.6212 36.5113 22.3318 36.5113 25.5013C36.5113 28.6698 35.3851 31.3807 33.1324 33.6333Z" fill="black"/>
<path d="M25.0001 18.1006C22.9616 18.1006 21.2186 18.8243 19.7711 20.272C18.3236 21.7196 17.5999 23.4623 17.5999 25.5012C17.5999 27.5394 18.3236 29.2824 19.7711 30.7299C21.2186 32.1771 22.9615 32.9009 25.0001 32.9009C27.0384 32.9009 28.7816 32.1771 30.2291 30.7299C31.6766 29.2824 32.4004 27.5395 32.4004 25.5012C32.4004 23.4624 31.6766 21.7196 30.2291 20.272C28.7816 18.8244 27.0384 18.1006 25.0001 18.1006Z" fill="black"/>
</svg>
