<svg width="19" height="15" viewBox="0 0 19 15" fill="none" xmlns="http://www.w3.org/2000/svg">
<path d="M17.7084 9.7139H16.2917C15.8667 9.7139 15.5834 9.9468 15.5834 10.2961V11.7518C15.5834 11.9264 15.4417 12.0429 15.2292 12.0429H3.18751C2.97501 12.0429 2.83335 11.9264 2.83335 11.7518V10.2961C2.83335 9.9468 2.55001 9.7139 2.12501 9.7139H0.708336C0.283335 9.7139 0 9.9468 0 10.2961V13.7896C0 14.139 0.283335 14.3719 0.708336 14.3719H17.7084C18.1334 14.3719 18.4167 14.139 18.4167 13.7896V10.2961C18.4167 9.9468 18.1334 9.7139 17.7084 9.7139Z" fill="#141E30"/>
<path d="M8.77968 9.53924C8.92134 9.65569 9.13384 9.71391 9.27551 9.71391C9.41718 9.71391 9.62968 9.65569 9.77135 9.53924L14.0214 6.04573C14.1631 5.92928 14.2339 5.81283 14.2339 5.63816C14.2339 5.46348 14.1631 5.34703 14.0214 5.23058L13.0297 4.41543C12.888 4.29898 12.7464 4.24076 12.5339 4.24076C12.3214 4.24076 12.1797 4.29898 12.038 4.41543L11.3297 4.99768C11.1172 5.17236 10.6922 5.05591 10.6922 4.76478V0.980154C10.6922 0.630804 10.4089 0.397903 9.98385 0.397903H8.56717C8.14217 0.397903 7.85883 0.630804 7.85883 0.980154V4.82301C7.85883 5.05591 7.50467 5.23058 7.22133 5.05591L6.51299 4.47366C6.37132 4.35721 6.22965 4.29898 6.01715 4.29898C5.80465 4.29898 5.66298 4.35721 5.52132 4.47366L4.52964 5.28881C4.38797 5.40526 4.31714 5.52171 4.31714 5.69638C4.31714 5.87106 4.38797 5.98751 4.52964 6.10396L8.77968 9.53924Z" fill="#141E30"/>
</svg>
