<svg width="23" height="23" viewBox="0 0 46 46" fill="none" xmlns="http://www.w3.org/2000/svg">
<path d="M1.91696 15.3341H13.4168C13.9361 15.3341 14.3853 15.1443 14.7647 14.7649C15.1439 14.3856 15.3337 13.9365 15.3337 13.4176V1.91727C15.3337 1.39783 15.1439 0.948985 14.7652 0.569684C14.3853 0.190278 13.9361 0.000732422 13.4172 0.000732422H1.91696C1.39752 0.000732422 0.948252 0.190278 0.568951 0.569684C0.189546 0.948985 0 1.39815 0 1.91727V13.4176C0 13.9365 0.189546 14.3856 0.568951 14.7649C0.948567 15.1443 1.39783 15.3341 1.91696 15.3341Z" fill="white"/>
<path d="M45.4303 0.568951C45.0509 0.189546 44.6019 0 44.0828 0H32.5822C32.0635 0 31.6144 0.189546 31.2345 0.568951C30.8559 0.948148 30.666 1.39741 30.666 1.91654V13.4168C30.666 13.9357 30.8559 14.3849 31.2345 14.7642C31.6144 15.1436 32.0634 15.3334 32.5822 15.3334H44.0828C44.6019 15.3334 45.0509 15.1436 45.4304 14.7642C45.8095 14.3849 45.9991 13.9357 45.9991 13.4168V1.91654C45.999 1.3971 45.8097 0.948252 45.4303 0.568951Z" fill="white"/>
<path d="M44.0839 19.1665H32.5839C32.0653 19.1665 31.6155 19.3563 31.2363 19.7357C30.8569 20.1149 30.6671 20.5641 30.6671 21.0833V24.9169C30.6671 25.9549 30.433 26.8535 29.9634 27.6119C29.4942 28.3707 28.9602 28.9401 28.3615 29.3195C27.7626 29.6989 27.0536 29.9984 26.2349 30.2173C25.4164 30.4374 24.7775 30.5678 24.3187 30.6076C23.8592 30.6468 23.4198 30.6671 23.0008 30.6671C22.5817 30.6671 22.1425 30.6468 21.6834 30.6076C21.2243 30.5678 20.5855 30.4374 19.7669 30.2173C18.9483 29.9984 18.2391 29.6987 17.6403 29.3195C17.0413 28.9401 16.507 28.3704 16.0381 27.6119C15.5686 26.8535 15.3341 25.9549 15.3341 24.9169V21.0833C15.3341 20.5642 15.1443 20.115 14.7652 19.7357C14.3853 19.3563 13.9362 19.1665 13.4172 19.1665H1.91696C1.39752 19.1665 0.948252 19.3563 0.568951 19.7357C0.189546 20.1149 0 20.5641 0 21.0831V24.9168C0 28.93 0.983183 32.5434 2.94986 35.7577C4.91644 38.9725 7.652 41.4832 11.1557 43.2903C14.6599 45.0966 18.6081 46.0002 23.0004 46.0002C27.3936 46.0002 31.3412 45.0966 34.845 43.2903C38.3485 41.4832 41.084 38.9726 43.0504 35.7577C45.0176 32.5434 46 28.93 46 24.9168V21.0831C46 20.5641 45.8112 20.1149 45.4314 19.7356C45.0527 19.3562 44.6033 19.1665 44.0839 19.1665Z" fill="white"/>
</svg>
