<svg width="20" height="18" viewBox="0 0 20 18" fill="none" xmlns="http://www.w3.org/2000/svg">
<path d="M18 5.24995H1.50007C1.29681 5.24995 1.12101 5.32412 0.972632 5.47259C0.82417 5.62097 0.75 5.79676 0.75 5.9999V17.2499C0.75 17.453 0.82417 17.6288 0.972632 17.7772C1.12101 17.9256 1.29681 18 1.50007 18H18C18.2031 18 18.3788 17.9256 18.5273 17.7772C18.6756 17.6289 18.7498 17.453 18.7498 17.2499V5.9999C18.7498 5.79664 18.6759 5.62101 18.5273 5.47259C18.3789 5.32412 18.2031 5.24995 18 5.24995ZM11.7771 8.77725C11.6288 8.92568 11.4529 8.99989 11.2498 8.99989H8.24978C8.04677 8.99989 7.87097 8.92563 7.72247 8.77725C7.57409 8.62879 7.49984 8.45308 7.49984 8.24982C7.49984 8.04672 7.57409 7.87092 7.72247 7.7225C7.87093 7.57404 8.04673 7.49979 8.24978 7.49979H11.2501C11.453 7.49979 11.6288 7.57404 11.7774 7.7225C11.9257 7.87088 11.9999 8.04668 11.9999 8.24982C11.9999 8.45303 11.9255 8.62879 11.7771 8.77725Z" fill="white"/>
<path d="M19.2774 0.222632C19.1289 0.0741695 18.9532 0 18.7501 0H0.749986C0.546892 0 0.371094 0.0741695 0.222673 0.222632C0.0742516 0.371012 0 0.54681 0 0.749945V3.74993C0 3.95303 0.0742516 4.12874 0.222714 4.27725C0.371135 4.42571 0.546892 4.49988 0.750027 4.49988H18.7498C18.9529 4.49988 19.1288 4.42571 19.2774 4.27725C19.4257 4.12878 19.4999 3.95307 19.4999 3.74993V0.749945C19.4999 0.546687 19.4257 0.371012 19.2774 0.222632Z" fill="white"/>
</svg>
