<svg width="27" height="19" viewBox="0 0 27 19" fill="none" xmlns="http://www.w3.org/2000/svg">
<path d="M16.3271 8.06254H22.5454H23.3358C22.8321 7.81751 22.2656 7.57249 21.6361 7.33446C21.2863 7.21545 20.9436 7.08943 20.6288 6.95642C20.3071 6.82341 20.0273 6.67639 19.7825 6.51537C19.5377 6.35435 19.3488 6.17934 19.2019 5.98331C19.062 5.78729 18.9851 5.57727 18.9851 5.33924C18.9851 4.82118 19.181 4.42214 19.5796 4.14211C19.9713 3.86208 20.5239 3.72906 21.2304 3.72906C21.6151 3.72906 21.9928 3.79907 22.3635 3.93209C22.7342 4.0651 23.063 4.21212 23.3498 4.35913C23.6855 4.54115 24.0142 4.74418 24.336 4.9612L26.5043 2.2379C26.2176 1.98587 25.8608 1.74085 25.4342 1.49582C25.0075 1.25079 24.5458 1.04077 24.0632 0.851749C23.5736 0.669729 23.077 0.515712 22.5664 0.396699C22.0557 0.277686 21.5731 0.22168 21.1185 0.22168C20.2791 0.22168 19.5097 0.354694 18.8102 0.613722C18.1108 0.872751 17.5162 1.23679 17.0196 1.69884C16.523 2.16089 16.1383 2.70695 15.8725 3.33702C15.6067 3.96709 15.4668 4.64616 15.4668 5.36724C15.4668 6.07432 15.5857 6.69739 15.8305 7.23645C15.9634 7.52348 16.1313 7.80351 16.3271 8.06254Z" fill="black"/>
<path d="M26.7417 11.1988C26.5668 10.6878 26.266 10.2047 25.8464 9.76369C25.4267 9.31564 24.8741 8.89559 24.1816 8.50355C23.9228 8.35653 23.6361 8.20952 23.3423 8.0625L20.7962 10.4638L20.5584 10.6878C21.097 10.9048 21.5517 11.1078 21.9224 11.2969C22.3281 11.5069 22.6428 11.7029 22.8667 11.8919C23.0905 12.0739 23.2514 12.249 23.3423 12.41C23.4332 12.571 23.4822 12.718 23.4822 12.851C23.4822 13.2011 23.4052 13.4951 23.2584 13.7331C23.1045 13.9712 22.9156 14.1602 22.6778 14.3002C22.44 14.4402 22.1812 14.5452 21.8944 14.6152C21.6076 14.6852 21.3208 14.7132 21.0411 14.7132C20.7053 14.7132 20.3486 14.6432 19.9849 14.5102C19.6142 14.3772 19.2644 14.2092 18.9287 14.0202C18.5929 13.8241 18.2922 13.6281 18.0334 13.4181C17.9634 13.3621 17.9005 13.3061 17.8445 13.2571L17.4598 13.6211L15.6482 15.3153L15.3754 15.5743C15.3264 15.6163 15.2775 15.6583 15.2285 15.7003C15.3264 15.7984 15.4384 15.9034 15.5643 16.0294C15.914 16.3654 16.3197 16.6734 16.7743 16.9605H16.7464C17.3829 17.3665 18.0683 17.6746 18.7888 17.8916C19.5092 18.1086 20.2577 18.2206 21.0341 18.2206C21.8874 18.2206 22.6848 18.0806 23.4122 17.8076C24.1397 17.5275 24.7762 17.1495 25.3008 16.6734C25.8324 16.1974 26.2451 15.6303 26.5458 14.9723C26.8466 14.3142 27.0005 13.6211 27.0005 12.879C27.0075 12.27 26.9166 11.7169 26.7417 11.1988Z" fill="black"/>
<path d="M23 7.83826H8.34922L9.27308 11.3445H11.8034V12.3663C11.8034 13.2411 11.176 14.0319 10.3555 14.2698C10.3486 14.2698 10.3486 14.2698 10.3417 14.2768C9.84532 14.4168 9.34892 14.4938 8.85252 14.4938C8.10791 14.4938 7.40467 14.3538 6.75659 14.0669C6.10162 13.7799 5.52938 13.388 5.03987 12.8911C4.55036 12.3942 4.16427 11.8134 3.88159 11.1485C3.59892 10.4837 3.46103 9.77683 3.46103 9.021C3.46103 8.26516 3.59892 7.55132 3.88159 6.87947C4.16427 6.20762 4.55036 5.61975 5.03987 5.11586C5.52938 4.61197 6.10162 4.22006 6.75659 3.93313C7.41157 3.64619 8.10791 3.50622 8.85252 3.50622C9.56265 3.50622 10.2728 3.66718 10.976 3.99611C11.6793 4.32504 12.3411 4.77994 12.9478 5.36781L15.3058 2.84837C14.3957 1.92457 13.3822 1.21773 12.2722 0.727838C11.1622 0.237947 10.0177 0 8.84562 0C7.72182 0 6.6256 0.216952 5.56385 0.643857C4.5021 1.07076 3.56445 1.67963 2.744 2.45645C1.92356 3.24028 1.26169 4.18507 0.758393 5.30482C0.255096 6.42457 0 7.6633 0 9.021C0 10.1617 0.206834 11.2745 0.620503 12.3523C1.03417 13.43 1.6271 14.3818 2.39928 15.2146C3.17146 16.0474 4.10222 16.7193 5.19155 17.2302C6.28777 17.7411 7.5012 18 8.84562 18C10.0728 18 11.1897 17.776 12.2101 17.3211C13.1754 16.8872 14.1061 16.2784 15.0093 15.4806C15.0575 15.4316 23.0069 7.83826 23 7.83826Z" fill="black"/>
</svg>
