<svg width="17" height="18" viewBox="0 0 17 18" fill="none" xmlns="http://www.w3.org/2000/svg">
<path d="M4.46039 18C3.26444 18 2.14325 17.5321 1.3032 16.6824C0.463158 15.8327 0 14.6995 0 13.4903C0 12.2815 0.46282 11.1479 1.3032 10.2986L10.5373 0.962554C11.8584 -0.372489 13.9113 -0.312629 15.3123 1.10382C16.7133 2.52028 16.7735 4.59553 15.4524 5.9316L6.77754 14.7022C5.9632 15.5256 4.63699 15.5269 3.82131 14.7022C3.0063 13.8779 3.00664 12.537 3.82131 11.7134L9.69756 5.7722C9.89582 5.57175 10.2169 5.57175 10.4151 5.7722C10.6134 5.97264 10.6134 6.29725 10.4151 6.4977L4.53888 12.4389C4.11971 12.8627 4.11971 13.5526 4.53888 13.9767C4.95873 14.4005 5.64079 14.3999 6.05996 13.9767L14.7348 5.2061C15.6466 4.28391 15.5867 2.83223 14.5947 1.82932C13.6028 0.826416 12.167 0.765872 11.2548 1.68805L2.02078 11.0241C1.37222 11.6798 1.01496 12.5558 1.01496 13.4903C1.01496 14.4252 1.37222 15.3012 2.02078 15.9569C2.66933 16.6126 3.53577 16.9738 4.46039 16.9738C5.38468 16.9738 6.25111 16.6126 6.89967 15.9569L16.1337 6.62084C16.332 6.42039 16.6531 6.42039 16.8513 6.62084C17.0496 6.82128 17.0496 7.14589 16.8513 7.34634L7.61724 16.6824C6.7772 17.5317 5.65601 18 4.46039 18Z" fill="black"/>
</svg>
