<svg width="14" height="18" viewBox="0 0 14 18" fill="none" xmlns="http://www.w3.org/2000/svg">
<path d="M6.51893 0C2.92437 0 0 2.92437 0 6.51889C0 10.9798 5.8338 17.5287 6.08218 17.8053C6.31548 18.0651 6.7228 18.0647 6.95567 17.8053C7.20405 17.5287 13.0379 10.9798 13.0379 6.51889C13.0378 2.92437 10.1134 0 6.51893 0ZM6.51893 9.79873C4.71042 9.79873 3.23912 8.3274 3.23912 6.51889C3.23912 4.71038 4.71045 3.23909 6.51893 3.23909C8.3274 3.23909 9.79869 4.71042 9.79869 6.51893C9.79869 8.32744 8.3274 9.79873 6.51893 9.79873Z" fill="url(#paint0_linear)"/>
<defs>
<linearGradient id="paint0_linear" x1="2.42849e-08" y1="8.99999" x2="13.0379" y2="8.99999" gradientUnits="userSpaceOnUse">
<stop stop-color="#CD1515"/>
<stop offset="1" stop-color="#E6145F"/>
</linearGradient>
</defs>
</svg>
