<svg width="16" height="21" viewBox="0 0 16 21" fill="none" xmlns="http://www.w3.org/2000/svg">
<path d="M7.76468 9.98671C10.0351 9.98671 11.8758 7.75108 11.8758 4.99339C11.8758 2.23563 11.2714 0 7.76468 0C4.25787 0 3.65356 2.23563 3.65356 4.99339C3.65363 7.75108 5.49428 9.98671 7.76468 9.98671Z" fill="#CD1515"/>
<path d="M15.5207 17.4023C15.4447 12.5982 14.8172 11.2293 10.016 10.3628C10.016 10.3628 9.34008 11.224 7.76482 11.224C6.18957 11.224 5.51373 10.3628 5.51373 10.3628C0.764886 11.2198 0.0991922 12.5685 0.0116953 17.2462C0.00457923 17.6282 0.00129946 17.6482 0 17.6039C0.000247516 17.687 0.000618922 17.8406 0.000618922 18.1086C0.000618922 18.1086 1.14371 20.4129 7.76488 20.4129C14.3861 20.4129 15.5293 18.1086 15.5293 18.1086C15.5293 17.9365 15.5294 17.8167 15.5295 17.7353C15.5282 17.7627 15.5256 17.7096 15.5207 17.4023Z" fill="#CD1515"/>
</svg>
