<svg viewBox="0 0 201 45" fill="none" xmlns="http://www.w3.org/2000/svg">
<path d="M90.5758 7.95869H97.5828V15.5735C96.6039 16.4501 95.6078 17.1033 94.5602 17.5674C93.5126 18.0315 92.3619 18.255 91.091 18.255C89.7171 18.255 88.4634 17.9971 87.3299 17.4814C86.2136 16.9658 85.2519 16.2782 84.4619 15.4359C83.6719 14.5937 83.0536 13.6311 82.6414 12.531C82.2121 11.4481 82.006 10.3136 82.006 9.16193C82.006 7.7868 82.2636 6.532 82.7788 5.39752C83.294 4.26304 83.981 3.30045 84.8225 2.50975C85.6641 1.71905 86.6258 1.10025 87.7249 0.67052C88.8069 0.240793 89.9404 0.017334 91.091 0.017334C92.2932 0.017334 93.4782 0.257982 94.6117 0.756465C95.7452 1.25495 96.7928 1.9597 97.7374 2.9051L95.3159 5.46627C94.6804 4.86466 94.0106 4.40055 93.2893 4.07396C92.568 3.74736 91.8295 3.57547 91.1082 3.57547C90.3354 3.57547 89.6141 3.71299 88.9443 4.0052C88.2745 4.29742 87.6906 4.69277 87.1754 5.20844C86.6773 5.72411 86.2823 6.30854 85.9904 6.9961C85.6984 7.68367 85.561 8.40561 85.561 9.16193C85.561 9.93544 85.6984 10.6574 85.9904 11.3278C86.2823 11.9981 86.6773 12.5826 87.1754 13.0982C87.6734 13.5967 88.2573 13.9921 88.9443 14.2843C89.6141 14.5765 90.3354 14.714 91.1082 14.714C91.6234 14.714 92.1387 14.6452 92.6367 14.4905C93.1519 14.353 93.6328 14.1468 94.0622 13.8889V11.5168H90.593V7.95869H90.5758Z" fill="#D3D3D3"/>
<path d="M113.263 18.0829H102.512V0.189087H106.067V14.542H113.28V18.0829H113.263Z" fill="#D3D3D3"/>
<path d="M123.241 18.272C122.125 18.272 121.025 18.0657 119.943 17.636C118.879 17.2063 117.917 16.6047 117.075 15.8312C116.234 15.0576 115.547 14.1122 115.049 13.0121C114.551 11.912 114.276 10.6744 114.276 9.31649C114.276 8.14763 114.499 7.01316 114.946 5.91305C115.392 4.83014 116.028 3.86755 116.818 3.04247C117.625 2.2174 118.57 1.54702 119.651 1.06573C120.733 0.567244 121.936 0.326599 123.224 0.326599C124.357 0.326599 125.473 0.550056 126.555 0.996973C127.637 1.44389 128.599 2.0627 129.423 2.87058C130.248 3.67847 130.918 4.62387 131.416 5.72397C131.914 6.82407 132.171 8.02731 132.171 9.35087C132.171 10.5025 131.948 11.6198 131.502 12.7027C131.055 13.7685 130.437 14.7311 129.647 15.5733C128.857 16.4156 127.912 17.0688 126.813 17.5673C125.731 18.0142 124.529 18.272 123.241 18.272ZM123.241 3.81598C122.468 3.81598 121.764 3.9535 121.094 4.24571C120.424 4.53792 119.858 4.93327 119.36 5.43176C118.861 5.93024 118.466 6.51467 118.192 7.18505C117.9 7.85542 117.762 8.56017 117.762 9.2993C117.762 10.0556 117.9 10.7604 118.192 11.4136C118.484 12.0839 118.879 12.6512 119.36 13.1497C119.858 13.6481 120.441 14.0263 121.111 14.3185C121.781 14.5935 122.502 14.7482 123.241 14.7482C123.996 14.7482 124.701 14.6107 125.353 14.3185C126.006 14.0263 126.59 13.631 127.071 13.1497C127.569 12.6512 127.964 12.0839 128.238 11.4308C128.53 10.7776 128.668 10.0728 128.668 9.31649C128.668 8.56017 128.53 7.85542 128.238 7.20224C127.947 6.53186 127.552 5.94743 127.053 5.44895C126.555 4.95046 125.972 4.55511 125.319 4.2629C124.666 3.9535 123.962 3.81598 123.241 3.81598Z" fill="#D3D3D3"/>
<path d="M149.328 5.08797C149.328 5.6724 149.191 6.29121 148.933 6.96159C148.676 7.63196 148.177 8.23358 147.456 8.73206C147.903 8.93833 148.281 9.19617 148.607 9.50557C148.933 9.81497 149.191 10.1416 149.397 10.4854C149.603 10.8291 149.758 11.1901 149.861 11.5683C149.964 11.9464 150.015 12.3074 150.015 12.6684C150.015 13.3387 149.912 13.9919 149.723 14.6279C149.534 15.2639 149.191 15.8483 148.727 16.3468C148.263 16.8625 147.645 17.275 146.872 17.5844C146.099 17.8938 145.138 18.0657 143.97 18.0657H136.722V0.189087H143.867C144.64 0.189087 145.344 0.326599 146.014 0.601624C146.683 0.876649 147.25 1.23762 147.748 1.68454C148.246 2.13145 148.624 2.66432 148.916 3.24874C149.191 3.85036 149.328 4.46917 149.328 5.08797ZM140.26 7.16785H143.472C144.107 7.16785 144.605 7.01315 145 6.72094C145.378 6.42872 145.567 6.03337 145.567 5.53489C145.567 5.03641 145.378 4.62387 145 4.2629C144.622 3.91912 144.107 3.74723 143.472 3.74723H140.26V7.16785ZM143.506 14.5248C144.485 14.5248 145.172 14.3357 145.601 13.9747C146.031 13.6138 146.237 13.184 146.237 12.6856C146.237 12.4277 146.202 12.1871 146.117 11.9464C146.031 11.7058 145.893 11.4995 145.687 11.3276C145.481 11.1557 145.206 11.001 144.846 10.8979C144.485 10.7948 144.039 10.726 143.523 10.726H140.26V14.542H143.506V14.5248Z" fill="#D3D3D3"/>
<path d="M161.436 0L169.49 18.0829H165.575L164.115 14.817H157.297C157.074 15.3327 156.833 15.8827 156.576 16.4671C156.318 17.0516 156.078 17.6016 155.871 18.0829H151.99L159.942 0H161.436ZM162.535 11.2589L160.697 7.11629L158.86 11.2589H162.535Z" fill="#D3D3D3"/>
<path d="M183.436 18.0829H172.685V0.189087H176.24V14.542H183.453V18.0829H183.436Z" fill="#D3D3D3"/>
<path d="M88.2745 44.2276C87.4844 44.2276 86.7288 44.1244 86.0075 43.901C85.269 43.6775 84.582 43.3681 83.9294 42.9556H83.9466C83.4829 42.6634 83.0707 42.3539 82.7272 42.0102C82.3666 41.6664 82.1262 41.4257 81.9888 41.271L84.6507 38.813C84.771 38.9677 84.9599 39.1568 85.2175 39.363C85.4751 39.5693 85.7842 39.7756 86.1277 39.9818C86.4712 40.1709 86.8318 40.3428 87.1925 40.4803C87.5703 40.6179 87.931 40.6866 88.2573 40.6866C88.5492 40.6866 88.8412 40.6522 89.1332 40.5835C89.4251 40.5147 89.6827 40.4116 89.9232 40.2569C90.1636 40.1194 90.3525 39.9131 90.5071 39.6896C90.6616 39.449 90.7303 39.1568 90.7303 38.7958C90.7303 38.6583 90.6788 38.5036 90.5929 38.3489C90.5071 38.1942 90.3353 38.0051 90.1121 37.8332C89.8888 37.6441 89.5625 37.4379 89.1503 37.2316C88.7382 37.0253 88.2229 36.7847 87.6218 36.5612C86.9005 36.2862 86.2479 35.994 85.6297 35.6846C85.0114 35.3752 84.479 34.997 84.0325 34.5673C83.586 34.1376 83.2253 33.6563 82.9849 33.1062C82.7444 32.5562 82.607 31.9374 82.607 31.2154C82.607 30.4763 82.7444 29.7887 83.0192 29.1527C83.294 28.5167 83.6718 27.9667 84.187 27.4854C84.6851 27.0213 85.2862 26.6431 86.0075 26.3853C86.7116 26.1274 87.5016 25.9899 88.3432 25.9899C88.8069 25.9899 89.2877 26.0415 89.8201 26.1618C90.3353 26.2821 90.8506 26.4368 91.3486 26.6259C91.8467 26.815 92.3103 27.0385 92.7397 27.2791C93.169 27.5198 93.5297 27.7776 93.8217 28.0354L91.6234 30.8029C91.2971 30.5794 90.9708 30.3731 90.6273 30.1841C90.3353 30.0294 90.009 29.8919 89.6312 29.7543C89.2534 29.6168 88.8755 29.5481 88.4805 29.5481C87.7592 29.5481 87.2097 29.6856 86.8147 29.9778C86.4197 30.2528 86.2136 30.6654 86.2136 31.1982C86.2136 31.4389 86.2823 31.6623 86.4368 31.8514C86.5742 32.0405 86.7803 32.2296 87.0208 32.3843C87.2612 32.539 87.5531 32.6937 87.8795 32.8312C88.2058 32.9687 88.5492 33.089 88.9099 33.2093C89.9403 33.6047 90.799 34 91.486 34.3954C92.1901 34.7907 92.7397 35.2205 93.169 35.6674C93.5984 36.1143 93.8904 36.6128 94.0793 37.1285C94.251 37.6441 94.3541 38.2114 94.3541 38.8302C94.3541 39.5865 94.1995 40.2913 93.8904 40.9444C93.5812 41.6148 93.169 42.1821 92.6195 42.6633C92.0871 43.1446 91.4517 43.54 90.696 43.815C89.9575 44.0729 89.1503 44.2276 88.2745 44.2276Z" fill="#D3D3D3"/>
<path d="M105.225 44.2276C104.195 44.2276 103.267 44.0557 102.409 43.7119C101.55 43.3681 100.829 42.8868 100.228 42.268C99.6264 41.6492 99.1456 40.9273 98.8021 40.0678C98.4586 39.2084 98.2869 38.2802 98.2869 37.2488V26.1447H101.808V36.7847C101.808 37.3863 101.893 37.9192 102.082 38.4005C102.271 38.8818 102.529 39.2943 102.838 39.6209C103.147 39.9475 103.508 40.2053 103.92 40.3944C104.332 40.5663 104.761 40.6694 105.191 40.6694C105.637 40.6694 106.067 40.5835 106.462 40.3944C106.874 40.2225 107.235 39.9647 107.544 39.6209C107.853 39.2943 108.11 38.8818 108.299 38.4005C108.488 37.9192 108.574 37.3691 108.574 36.7847V26.1447H112.129V37.2488C112.129 38.2802 111.957 39.2084 111.614 40.0678C111.27 40.9273 110.79 41.6492 110.188 42.268C109.57 42.8868 108.849 43.3681 107.99 43.7119C107.183 44.0385 106.238 44.2276 105.225 44.2276Z" fill="#D3D3D3"/>
<path d="M120.888 44.0385H117.333V26.1447H124.563C125.319 26.1447 126.023 26.2822 126.676 26.5744C127.345 26.8666 127.929 27.2619 128.427 27.7604C128.925 28.2589 129.338 28.8433 129.629 29.5137C129.921 30.1841 130.076 30.8888 130.076 31.6623C130.076 32.4359 129.939 33.1578 129.647 33.8282C129.355 34.5157 128.96 35.1002 128.462 35.5986C127.964 36.0971 127.38 36.4925 126.693 36.7675C126.023 37.0597 125.302 37.1972 124.563 37.1972H120.888V44.0385ZM120.888 33.6907H123.911C124.821 33.6907 125.473 33.4844 125.903 33.089C126.332 32.6937 126.538 32.2124 126.538 31.6623C126.538 31.1123 126.332 30.6482 125.903 30.27C125.473 29.8919 124.821 29.7028 123.911 29.7028H120.888V33.6907Z" fill="#D3D3D3"/>
<path d="M137.495 44.0385H133.94V26.1447H141.17C141.926 26.1447 142.63 26.2822 143.283 26.5744C143.953 26.8666 144.537 27.2619 145.035 27.7604C145.533 28.2589 145.945 28.8433 146.237 29.5137C146.529 30.1841 146.683 30.8888 146.683 31.6623C146.683 32.4359 146.546 33.1578 146.254 33.8282C145.962 34.5157 145.567 35.1002 145.069 35.5986C144.571 36.0971 143.987 36.4925 143.3 36.7675C142.63 37.0597 141.909 37.1972 141.17 37.1972H137.495V44.0385ZM137.495 33.6907H140.518C141.428 33.6907 142.081 33.4844 142.51 33.089C142.939 32.6937 143.145 32.2124 143.145 31.6623C143.145 31.1123 142.939 30.6482 142.51 30.27C142.081 29.8919 141.428 29.7028 140.518 29.7028H137.495V33.6907Z" fill="#D3D3D3"/>
<path d="M161.281 44.0385H150.53V26.1447H154.085V40.4975H161.298V44.0385H161.281Z" fill="#D3D3D3"/>
<path d="M165.094 44.0385V26.1447H168.615V44.0385H165.094Z" fill="#D3D3D3"/>
<path d="M177.219 29.6856V33.2953H183.024V36.8706H177.219V40.4803H185.17V44.0385H173.664V26.1447H185.17V29.7028H177.219V29.6856Z" fill="#D3D3D3"/>
<path d="M194.084 44.2276C193.294 44.2276 192.538 44.1244 191.817 43.901C191.078 43.6775 190.391 43.3681 189.739 42.9556H189.756C189.292 42.6634 188.88 42.3539 188.536 42.0102C188.176 41.6664 187.935 41.4257 187.798 41.271L190.46 38.813C190.58 38.9677 190.769 39.1568 191.027 39.363C191.284 39.5693 191.593 39.7756 191.937 39.9818C192.28 40.1709 192.641 40.3428 193.002 40.4803C193.38 40.6179 193.74 40.6866 194.066 40.6866C194.358 40.6866 194.65 40.6522 194.942 40.5835C195.234 40.5147 195.492 40.4116 195.732 40.2569C195.973 40.1194 196.162 39.9131 196.316 39.6896C196.471 39.449 196.54 39.1568 196.54 38.7958C196.54 38.6583 196.488 38.5036 196.402 38.3489C196.316 38.1942 196.145 38.0051 195.921 37.8332C195.698 37.6441 195.372 37.4379 194.96 37.2316C194.547 37.0253 194.032 36.7847 193.431 36.5612C192.71 36.2862 192.057 35.994 191.439 35.6846C190.821 35.3752 190.288 34.997 189.842 34.5673C189.395 34.1376 189.034 33.6563 188.794 33.1062C188.554 32.5562 188.416 31.9374 188.416 31.2154C188.416 30.4763 188.554 29.7887 188.828 29.1527C189.103 28.5167 189.481 27.9667 189.996 27.4854C190.494 27.0213 191.095 26.6431 191.817 26.3853C192.521 26.1274 193.311 25.9899 194.152 25.9899C194.616 25.9899 195.097 26.0415 195.629 26.1618C196.145 26.2821 196.66 26.4368 197.158 26.6259C197.656 26.815 198.12 27.0385 198.549 27.2791C198.978 27.5198 199.339 27.7776 199.631 28.0354L197.433 30.8029C197.106 30.5794 196.78 30.3731 196.437 30.1841C196.145 30.0294 195.818 29.8919 195.44 29.7543C195.063 29.6168 194.685 29.5481 194.29 29.5481C193.568 29.5481 193.019 29.6856 192.624 29.9778C192.229 30.2528 192.023 30.6654 192.023 31.1982C192.023 31.4389 192.091 31.6623 192.246 31.8514C192.383 32.0405 192.59 32.2296 192.83 32.3843C193.07 32.539 193.362 32.6937 193.689 32.8312C194.015 32.9687 194.358 33.089 194.719 33.2093C195.75 33.6047 196.608 34 197.295 34.3954C197.999 34.7907 198.549 35.2205 198.978 35.6674C199.408 36.1143 199.7 36.6128 199.888 37.1285C200.06 37.6441 200.163 38.2114 200.163 38.8302C200.163 39.5865 200.009 40.2913 199.7 40.9444C199.39 41.6148 198.978 42.1821 198.429 42.6633C197.896 43.1446 197.261 43.54 196.505 43.815C195.767 44.0729 194.96 44.2276 194.084 44.2276Z" fill="#D3D3D3"/>
<path d="M40.0841 19.269H55.3518H57.2925C56.0559 18.6674 54.6648 18.0658 53.1192 17.4813C52.2605 17.1891 51.4189 16.8797 50.6461 16.5531C49.8561 16.2265 49.1691 15.8656 48.5681 15.4702C47.967 15.0749 47.5033 14.6451 47.1426 14.1638C46.7991 13.6825 46.6102 13.1669 46.6102 12.5824C46.6102 11.3104 47.0911 10.3307 48.07 9.6431C49.0318 8.95554 50.3885 8.62894 52.1231 8.62894C53.0676 8.62894 53.995 8.80083 54.9053 9.12743C55.8155 9.45402 56.6227 9.81499 57.3268 10.176C58.1512 10.6229 58.9583 11.1214 59.7484 11.6542L65.0723 4.96767C64.3682 4.34886 63.4923 3.74724 62.4447 3.14563C61.3971 2.54401 60.2636 2.02834 59.0786 1.56423C57.8764 1.11731 56.657 0.739154 55.4033 0.446939C54.1496 0.154725 52.9646 0.0172119 51.8483 0.0172119C49.7874 0.0172119 47.8983 0.343803 46.1809 0.979799C44.4635 1.6158 43.0037 2.50963 41.7843 3.64411C40.565 4.77859 39.6204 6.11934 38.9678 7.66635C38.3152 9.21337 37.9717 10.8807 37.9717 12.6512C37.9717 14.3873 38.2636 15.9171 38.8647 17.2407C39.191 17.9454 39.6032 18.633 40.0841 19.269Z" fill="#D3D3D3"/>
<path d="M65.6563 26.9697C65.2269 25.7149 64.4884 24.5288 63.458 23.4459C62.4275 22.3458 61.0708 21.3145 59.3706 20.3519C58.7351 19.9909 58.031 19.63 57.3097 19.269L51.0583 25.1648L50.4744 25.7149C51.7968 26.2478 52.9131 26.7462 53.8234 27.2103C54.8195 27.726 55.5923 28.2073 56.1419 28.6714C56.6914 29.1183 57.0864 29.5481 57.3097 29.9434C57.533 30.3388 57.6532 30.6997 57.6532 31.0263C57.6532 31.8858 57.4643 32.6077 57.1036 33.1921C56.7258 33.7766 56.2621 34.2407 55.6782 34.5845C55.0942 34.9282 54.4588 35.1861 53.7547 35.358C53.0505 35.5299 52.3464 35.5986 51.6594 35.5986C50.8351 35.5986 49.9592 35.4267 49.0662 35.1001C48.1559 34.7735 47.2972 34.361 46.4729 33.8969C45.6485 33.4156 44.91 32.9343 44.2746 32.4186C44.1029 32.2811 43.9483 32.1436 43.8109 32.0233L42.8663 32.9171L38.4183 37.0769L37.7485 37.7129C37.6283 37.816 37.508 37.9191 37.3878 38.0223C37.6283 38.2629 37.903 38.5208 38.2122 38.8302C39.0709 39.6552 40.067 40.4116 41.1833 41.1163H41.1146C42.6774 42.1133 44.3605 42.8696 46.1294 43.4025C47.8983 43.9353 49.7359 44.2104 51.6423 44.2104C53.7375 44.2104 55.6953 43.8666 57.4814 43.1962C59.2675 42.5086 60.8304 41.5804 62.1184 40.4116C63.4236 39.2427 64.4369 37.8504 65.1754 36.2346C65.9139 34.6188 66.2917 32.9171 66.2917 31.0951C66.3089 29.5996 66.0856 28.2417 65.6563 26.9697Z" fill="#D3D3D3"/>
<path d="M57.2925 19.2691H20.7977L23.0991 27.8808H29.4019V30.3905C29.4019 32.5391 27.8391 34.4815 25.7954 35.0659C25.7782 35.0659 25.7782 35.0659 25.761 35.0831C24.5245 35.4269 23.288 35.6159 22.0514 35.6159C20.1967 35.6159 18.4449 35.2722 16.8305 34.5674C15.199 33.8626 13.7736 32.9001 12.5542 31.6796C11.3349 30.4592 10.3731 29.0325 9.66898 27.3996C8.96484 25.7666 8.62136 24.0305 8.62136 22.1741C8.62136 20.3176 8.96484 18.5644 9.66898 16.9142C10.3731 15.2641 11.3349 13.8202 12.5542 12.5826C13.7736 11.3449 15.199 10.3824 16.8305 9.6776C18.4621 8.97285 20.1967 8.62907 22.0514 8.62907C23.8204 8.62907 25.5893 9.02442 27.341 9.8323C29.0928 10.6402 30.7415 11.7575 32.2528 13.2014L38.1263 7.01329C35.8594 4.74433 33.3348 3.00823 30.5698 1.805C27.8047 0.601762 24.9539 0.017334 22.0343 0.017334C19.2349 0.017334 16.5042 0.550195 13.8594 1.59873C11.2146 2.64726 8.87897 4.14271 6.83526 6.0507C4.79155 7.97588 3.14285 10.2964 1.88914 13.0467C0.635439 15.7969 0 18.8394 0 22.1741C0 24.9759 0.515221 27.709 1.54566 30.3561C2.5761 33.0032 4.05307 35.3409 5.97656 37.3864C7.90005 39.4319 10.2185 41.0821 12.932 42.3369C15.6627 43.5917 18.6853 44.2277 22.0343 44.2277C25.0913 44.2277 27.8734 43.6776 30.4152 42.5603C32.8196 41.4946 35.1381 39.9992 37.3879 38.0396C37.5081 37.9193 57.3097 19.2691 57.2925 19.2691Z" fill="#D21615"/>
</svg>
